<?xml version="1.0" encoding="UTF-8" standalone="no"?>
<!-- Created with Inkscape (http://www.inkscape.org/) -->

<svg
   width="210mm"
   height="297mm"
   viewBox="0 0 210 297"
   version="1.1"
   id="svg5"
   inkscape:version="1.1 (c68e22c387, 2021-05-23)"
   sodipodi:docname="CIRCLE.svg"
   inkscape:export-filename="C:\Users\mrj\Desktop\CIRCLE.png"
   inkscape:export-xdpi="96"
   inkscape:export-ydpi="96"
   xmlns:inkscape="http://www.inkscape.org/namespaces/inkscape"
   xmlns:sodipodi="http://sodipodi.sourceforge.net/DTD/sodipodi-0.dtd"
   xmlns:xlink="http://www.w3.org/1999/xlink"
   xmlns="http://www.w3.org/2000/svg"
   xmlns:svg="http://www.w3.org/2000/svg">
  <sodipodi:namedview
     id="namedview7"
     pagecolor="#ffffff"
     bordercolor="#999999"
     borderopacity="1"
     inkscape:pageshadow="0"
     inkscape:pageopacity="0"
     inkscape:pagecheckerboard="0"
     inkscape:document-units="mm"
     showgrid="false"
     inkscape:lockguides="true"
     inkscape:snap-smooth-nodes="false"
     inkscape:object-nodes="false"
     inkscape:zoom="0.25"
     inkscape:cx="-108"
     inkscape:cy="674"
     inkscape:window-width="1366"
     inkscape:window-height="705"
     inkscape:window-x="-8"
     inkscape:window-y="-8"
     inkscape:window-maximized="1"
     inkscape:current-layer="layer1" />
  <defs
     id="defs2">
    <linearGradient
       inkscape:collect="always"
       id="linearGradient8743">
      <stop
         style="stop-color:#000000;stop-opacity:1;"
         offset="0"
         id="stop8739" />
      <stop
         style="stop-color:#191919;stop-opacity:0.09236947"
         offset="1"
         id="stop8741" />
    </linearGradient>
    <linearGradient
       inkscape:collect="always"
       id="linearGradient2939">
      <stop
         style="stop-color:#ff0000;stop-opacity:1;"
         offset="0"
         id="stop2935" />
      <stop
         style="stop-color:#680000;stop-opacity:1"
         offset="1"
         id="stop2937" />
    </linearGradient>
    <linearGradient
       inkscape:collect="always"
       xlink:href="#linearGradient2939"
       id="linearGradient2941"
       x1="107.26189"
       y1="83.876808"
       x2="107.26189"
       y2="165.36848"
       gradientUnits="userSpaceOnUse" />
    <linearGradient
       inkscape:collect="always"
       xlink:href="#linearGradient8743"
       id="linearGradient9289"
       gradientUnits="userSpaceOnUse"
       x1="79.493896"
       y1="94.074043"
       x2="104.91338"
       y2="181.24268" />
  </defs>
  <g
     inkscape:label="Layer 1"
     inkscape:groupmode="layer"
     id="layer1">
    <g
       id="g10397"
       transform="translate(2.5113085,21.760688)">
      <path
         id="path2118"
         style="opacity:1;fill:url(#linearGradient9289);fill-opacity:1;stroke:#9128e1;stroke-width:0.247668;stroke-opacity:0;paint-order:stroke fill markers"
         d="m 96.816642,78.687512 a 42.898069,48.05098 0 0 0 -42.898159,48.051008 42.898069,48.05098 0 0 0 42.898159,48.051 42.898069,48.05098 0 0 0 5.714718,-0.43985 42.898069,48.05098 0 0 0 4.5e-4,0 42.898069,48.05098 0 0 0 0.0367,-0.008 42.898069,48.05098 0 0 0 0.0303,-0.007 42.898069,48.05098 0 0 0 6.10497,-1.4627 42.898069,48.05098 0 0 0 0.86696,-0.34888 42.898069,48.05098 0 0 0 5.01933,-2.11135 42.898069,48.05098 0 0 0 0.99418,-0.58664 42.898069,48.05098 0 0 0 4.515,-2.81427 42.898069,48.05098 0 0 0 0.9557,-0.7727 42.898069,48.05098 0 0 0 4.05503,-3.49859 42.898069,48.05098 0 0 0 0.85474,-0.92052 42.898069,48.05098 0 0 0 3.5507,-4.13536 42.898069,48.05098 0 0 0 0.71213,-1.01769 42.898069,48.05098 0 0 0 2.98752,-4.7132 42.898069,48.05098 0 0 0 0.5582,-1.08126 42.898069,48.05098 0 0 0 2.35371,-5.20474 42.898069,48.05098 0 0 0 0.39839,-1.10348 42.898069,48.05098 0 0 0 1.6615,-5.60995 42.898069,48.05098 0 0 0 0.23858,-1.07661 42.898069,48.05098 0 0 0 0.91767,-5.92316 42.898069,48.05098 0 0 0 0.33682,-3.649 31.554238,35.344526 0 0 1 -0.008,0.076 31.554238,35.344526 0 0 0 0.0426,-1.64153 31.554238,35.344526 0 0 0 -0.4405,-5.63838 31.554238,35.344526 0 0 0 -0.75197,-3.47998 31.554238,35.344526 0 0 0 -0.5238,-2.18889 31.554238,35.344526 0 0 0 -1.14629,-3.08562 31.554238,35.344526 0 0 0 -0.94528,-2.27158 31.554238,35.344526 0 0 0 -1.51164,-2.75484 31.554238,35.344526 0 0 0 -1.34414,-2.1496 31.554238,35.344526 0 0 0 -1.82311,-2.38684 31.554238,35.344526 0 0 0 -1.73076,-1.93872 31.554238,35.344526 0 0 0 -2.06532,-1.973875 31.554238,35.344526 0 0 0 -2.10878,-1.653421 31.554238,35.344526 0 0 0 -2.21562,-1.520071 31.554238,35.344526 0 0 0 -2.50265,-1.307643 31.554238,35.344526 0 0 0 -2.23826,-1.038878 31.554238,35.344526 0 0 0 -3.04818,-0.914834 31.554238,35.344526 0 0 0 -1.97749,-0.533396 31.554238,35.344526 0 0 0 -5.1805,-0.507552 31.554238,35.344526 0 0 0 -5.69027,0.589214 31.554238,35.344526 0 0 1 25.9007,34.754906 31.554238,35.344526 0 0 1 -25.85905,34.75645 31.554238,35.344526 0 0 0 0.0503,0.0155 31.554238,35.344526 0 0 1 -0.0665,-0.0103 31.554238,35.344526 0 0 1 -5.678948,0.58302 31.554238,35.344526 0 0 1 -5.242977,-0.51376 31.554238,35.344526 0 0 1 -1.679599,-0.45638 31.554238,35.344526 0 0 1 -3.415339,-1.02492 31.554238,35.344526 0 0 1 -1.902339,-0.89261 31.554238,35.344526 0 0 1 -2.900592,-1.51542 31.554238,35.344526 0 0 1 -1.865669,-1.29679 31.554238,35.344526 0 0 1 -2.518948,-1.97491 31.554238,35.344526 0 0 1 -1.700878,-1.65135 31.554238,35.344526 0 0 1 -2.141828,-2.39872 31.554238,35.344526 0 0 1 -1.455049,-1.94235 31.554238,35.344526 0 0 1 -1.740266,-2.78378 31.554238,35.344526 0 0 1 -1.153988,-2.15942 31.554238,35.344526 0 0 1 -1.298862,-3.12026 31.554238,35.344526 0 0 1 -0.816711,-2.28501 31.554238,35.344526 0 0 1 -0.82848,-3.46242 31.554238,35.344526 0 0 1 -0.454534,-2.254 31.554238,35.344526 0 0 1 -0.117255,-0.5825 31.554238,35.344526 0 0 1 -0.320982,-5.03003 42.898069,48.05098 0 0 1 30.841711,-46.057495 42.898069,48.05098 0 0 1 6.427753,-1.553669 42.898069,48.05098 0 0 0 4.5e-4,0 42.898069,48.05098 0 0 1 5.62825,-0.439844 z" />
      <path
         id="path1948"
         style="opacity:1;fill:url(#linearGradient2941);fill-opacity:1;stroke:#9128e1;stroke-width:0.247668;stroke-opacity:0;paint-order:stroke fill markers"
         d="m 108.16051,78.687512 a 42.898069,48.05098 0 0 0 -5.62825,0.439844 42.898069,48.05098 0 0 0 -4.5e-4,0 42.898069,48.05098 0 0 0 -5.213552,1.205307 42.898069,48.05098 0 0 0 -1.214201,0.348362 42.898069,48.05098 0 0 0 -30.841711,46.057495 31.554238,35.344526 0 0 0 0.320982,5.03003 31.554238,35.344526 0 0 0 0.117255,0.5825 31.554238,35.344526 0 0 0 0.454534,2.254 31.554238,35.344526 0 0 0 9.04e-4,0.005 31.554238,35.344526 0 0 0 0.827576,3.45776 31.554238,35.344526 0 0 0 0.816711,2.28501 31.554238,35.344526 0 0 0 1.298407,3.11923 31.554238,35.344526 0 0 0 4.55e-4,0.001 31.554238,35.344526 0 0 0 1.153988,2.15942 31.554238,35.344526 0 0 0 9.06e-4,0.002 31.554238,35.344526 0 0 0 1.73936,2.78172 31.554238,35.344526 0 0 0 0,5.1e-4 31.554238,35.344526 0 0 0 1.455049,1.94235 31.554238,35.344526 0 0 0 0.0014,0.002 31.554238,35.344526 0 0 0 2.14047,2.39717 31.554238,35.344526 0 0 0 0.452724,0.43933 31.554238,35.344526 0 0 0 1.248154,1.21202 31.554238,35.344526 0 0 0 0.0018,0.002 31.554238,35.344526 0 0 0 2.517135,1.97336 31.554238,35.344526 0 0 0 1.865669,1.29679 31.554238,35.344526 0 0 0 2.895613,1.51283 31.554238,35.344526 0 0 0 0.005,0.003 31.554238,35.344526 0 0 0 1.902339,0.89261 31.554238,35.344526 0 0 0 0.0014,5.1e-4 31.554238,35.344526 0 0 0 3.412168,1.02389 31.554238,35.344526 0 0 0 0.0018,5.2e-4 31.554238,35.344526 0 0 0 1.679599,0.45638 31.554238,35.344526 0 0 0 4.52e-4,0 31.554238,35.344526 0 0 0 5.242525,0.51376 31.554238,35.344526 0 0 0 5.678949,-0.58302 31.554238,35.344526 0 0 0 0.0665,0.0103 31.554238,35.344526 0 0 1 -0.0503,-0.0155 31.554238,35.344526 0 0 1 -25.905679,-34.75645 31.554238,35.344526 0 0 1 25.864029,-34.754906 31.554238,35.344526 0 0 1 5.69027,-0.589214 31.554238,35.344526 0 0 1 5.17914,0.507552 31.554238,35.344526 0 0 1 0.001,0 31.554238,35.344526 0 0 1 1.28754,0.347327 31.554238,35.344526 0 0 1 0.68995,0.186069 31.554238,35.344526 0 0 1 3.04818,0.914834 31.554238,35.344526 0 0 1 2.23826,1.038878 31.554238,35.344526 0 0 1 4.5e-4,0 31.554238,35.344526 0 0 1 2.5022,1.307643 31.554238,35.344526 0 0 1 2.21562,1.520071 31.554238,35.344526 0 0 1 2.10833,1.653421 31.554238,35.344526 0 0 1 4.5e-4,0 31.554238,35.344526 0 0 1 2.06532,1.973875 31.554238,35.344526 0 0 1 4.5e-4,0 31.554238,35.344526 0 0 1 1.73031,1.93872 31.554238,35.344526 0 0 1 1.82311,2.38684 31.554238,35.344526 0 0 1 1.34232,2.14701 31.554238,35.344526 0 0 1 0.002,0.003 31.554238,35.344526 0 0 1 1.51164,2.75484 31.554238,35.344526 0 0 1 4.5e-4,0.001 31.554238,35.344526 0 0 1 0.94483,2.27055 31.554238,35.344526 0 0 1 1.14629,3.08562 31.554238,35.344526 0 0 1 0,5.2e-4 31.554238,35.344526 0 0 1 0.52199,2.18165 31.554238,35.344526 0 0 1 0.002,0.007 31.554238,35.344526 0 0 1 0.4654,2.15373 31.554238,35.344526 0 0 1 0.28657,1.32625 31.554238,35.344526 0 0 1 0.008,0.0352 42.898069,48.05098 0 0 1 0.15076,1.1929 31.554238,35.344526 0 0 1 0.28204,4.41033 31.554238,35.344526 0 0 1 -0.0426,1.64153 31.554238,35.344526 0 0 0 0.008,-0.076 42.898069,48.05098 0 0 1 -0.009,0.10699 31.554238,35.344526 0 0 1 -0.24537,3.00758 42.898069,48.05098 0 0 1 -0.0829,0.53443 42.898069,48.05098 0 0 1 -0.91767,5.92316 42.898069,48.05098 0 0 1 -0.23858,1.07558 42.898069,48.05098 0 0 1 0,0.001 42.898069,48.05098 0 0 1 -1.6615,5.60995 42.898069,48.05098 0 0 1 -0.003,0.008 42.898069,48.05098 0 0 1 -0.39433,1.09315 42.898069,48.05098 0 0 1 -9e-4,0.002 42.898069,48.05098 0 0 1 -2.35371,5.20474 42.898069,48.05098 0 0 1 -0.003,0.006 42.898069,48.05098 0 0 1 -0.55323,1.07092 42.898069,48.05098 0 0 1 -0.002,0.004 42.898069,48.05098 0 0 1 -2.98752,4.7132 42.898069,48.05098 0 0 1 -0.002,0.003 42.898069,48.05098 0 0 1 -0.70851,1.01304 42.898069,48.05098 0 0 1 -0.001,0.002 42.898069,48.05098 0 0 1 -3.5507,4.13536 42.898069,48.05098 0 0 1 -0.005,0.006 42.898069,48.05098 0 0 1 -0.84614,0.91122 42.898069,48.05098 0 0 1 -0.003,0.004 42.898069,48.05098 0 0 1 -4.05503,3.49859 42.898069,48.05098 0 0 1 -0.007,0.005 42.898069,48.05098 0 0 1 -0.94619,0.76546 42.898069,48.05098 0 0 1 -0.003,0.002 42.898069,48.05098 0 0 1 -4.515,2.81427 42.898069,48.05098 0 0 1 -0.0122,0.007 42.898069,48.05098 0 0 1 -0.97833,0.57733 42.898069,48.05098 0 0 1 -0.004,0.002 42.898069,48.05098 0 0 1 -4.92381,2.07104 42.898069,48.05098 0 0 1 -0.0955,0.0403 42.898069,48.05098 0 0 1 -0.77506,0.32614 l 0.005,-0.0165 a 42.898069,48.05098 0 0 1 -0.0973,0.0393 42.898069,48.05098 0 0 1 -6.10497,1.4627 42.898069,48.05098 0 0 1 -0.0303,0.007 42.898069,48.05098 0 0 1 -0.0367,0.008 42.898069,48.05098 0 0 0 -4.5e-4,0 42.898069,48.05098 0 0 1 -5.714719,0.43985 h 11.343869 a 42.898069,48.05098 0 0 0 42.89816,-48.051 42.898069,48.05098 0 0 0 -42.89816,-48.051008 z" />
    </g>
  </g>
</svg>
