<?xml version="1.0" encoding="utf-8"?>
<!-- Generator: Adobe Illustrator 25.2.0, SVG Export Plug-In . SVG Version: 6.00 Build 0)  -->
<svg version="1.1" xmlns="http://www.w3.org/2000/svg" xmlns:xlink="http://www.w3.org/1999/xlink" x="0px" y="0px"
	 viewBox="0 0 792 612" style="enable-background:new 0 0 792 612;" xml:space="preserve">
<style type="text/css">
	.st0{fill:url(#SVGID_1_);}
	.st1{fill:url(#SVGID_2_);}
	.st2{fill:url(#SVGID_3_);}
	.st3{fill:url(#SVGID_4_);}
	.st4{fill:url(#SVGID_5_);}
	.st5{fill:url(#SVGID_6_);}
	.st6{fill:#FFFFFF;}
</style>
<g id="Background">
	
		<radialGradient id="SVGID_1_" cx="28.3806" cy="177.5185" r="777.714" gradientTransform="matrix(1 0 0 1 219.6192 -57.5188)" gradientUnits="userSpaceOnUse">
		<stop  offset="0" style="stop-color:#363636"/>
		<stop  offset="1" style="stop-color:#121212"/>
	</radialGradient>
	<rect class="st0" width="792" height="612"/>
</g>
<g id="Layer_1">
	<g>
		
			<linearGradient id="SVGID_2_" gradientUnits="userSpaceOnUse" x1="542.5178" y1="-54.7304" x2="938.1634" y2="-54.7304" gradientTransform="matrix(-0.7001 0.1882 -0.219 -0.8145 678.1943 233.3723)">
			<stop  offset="1.402240e-03" style="stop-color:#6B0C22"/>
			<stop  offset="1" style="stop-color:#3B0613"/>
		</linearGradient>
		<path class="st1" d="M26.99,469.16c103.49-14.18,189.2-94.5,292.69-108.69l0,0c3.54,13.16-2.82,25.92-13.69,27.37
			C209.17,400.73,125.85,463.83,26.99,469.16L26.99,469.16z"/>
		
			<linearGradient id="SVGID_3_" gradientUnits="userSpaceOnUse" x1="536.3289" y1="-37.8242" x2="922.2793" y2="-37.8242" gradientTransform="matrix(-0.7001 0.1882 -0.219 -0.8145 678.1943 233.3723)">
			<stop  offset="0" style="stop-color:#D9042B"/>
			<stop  offset="1" style="stop-color:#AD0322"/>
		</linearGradient>
		<path class="st2" d="M26.99,469.16C128.21,446.5,211.64,357.7,312.85,335.04l6.84,25.44C216.2,374.66,130.48,454.98,26.99,469.16
			L26.99,469.16z"/>
		
			<linearGradient id="SVGID_4_" gradientUnits="userSpaceOnUse" x1="523.067" y1="-21.2533" x2="951.8669" y2="-21.2533" gradientTransform="matrix(-0.7001 0.1882 -0.219 -0.8145 678.1943 233.3723)">
			<stop  offset="0" style="stop-color:#F4CB89"/>
			<stop  offset="1" style="stop-color:#CFAC74"/>
		</linearGradient>
		<path class="st3" d="M26.99,469.16c98.93-31.14,180.08-128.42,279.01-159.56l6.84,25.44C211.64,357.7,128.21,446.5,26.99,469.16
			L26.99,469.16z"/>
		
			<linearGradient id="SVGID_5_" gradientUnits="userSpaceOnUse" x1="550.0329" y1="-5.5099" x2="934.1888" y2="-5.5099" gradientTransform="matrix(-0.7001 0.1882 -0.219 -0.8145 678.1943 233.3723)">
			<stop  offset="0" style="stop-color:#588C8C"/>
			<stop  offset="1" style="stop-color:#416969"/>
		</linearGradient>
		<path class="st4" d="M26.99,469.16c96.65-39.62,175.52-145.38,272.18-185l6.84,25.44C207.08,340.74,125.93,438.02,26.99,469.16
			L26.99,469.16z"/>
		
			<linearGradient id="SVGID_6_" gradientUnits="userSpaceOnUse" x1="550.0329" y1="7.2461" x2="934.1888" y2="7.2461" gradientTransform="matrix(-0.7001 0.1882 -0.219 -0.8145 678.1943 233.3723)">
			<stop  offset="0" style="stop-color:#324F4F"/>
			<stop  offset="1" style="stop-color:#233838"/>
		</linearGradient>
		<path class="st5" d="M26.99,469.16c87.92-44.81,160.42-147.03,246.23-199.69c9.63-5.91,22.34,1.28,25.95,14.69l0,0
			C202.52,323.78,123.65,429.54,26.99,469.16L26.99,469.16z"/>
	</g>
	<g>
		<path class="st6" d="M323.21,263.78c0.24-1,0.77-2.04,1.56-3.13c2.68,23.28,8.2,49.54,23.31,70.77c3.89-0.88,7.76-1.72,11.74-2.57
			c3.99,4.65,8.45,8.91,13.4,12.6c-7.14,1.42-14.44,3.03-22.83,5.14C330.17,323.22,325.77,290.8,323.21,263.78z"/>
		<path class="st6" d="M376.64,305.9c15.83,26.65,20.18,32.06,13.29,33.58c-7.34,1.22-26.05-5.02-38.37-25.69
			c-12.15-21.39-10.55-37.51-3.59-40.59C355.65,269.67,364.61,283.95,376.64,305.9z M358.53,311.42
			c6.76,11.21,15.69,18.04,18.97,17.38c3.07-0.58-2.77-8.36-9.66-20c-5.99-9.8-11.76-21.06-15.01-19.81
			C349.37,290.26,352.65,301.96,358.53,311.42z"/>
		<path class="st6" d="M376.28,291.79c-4.27-9.99-6.65-17.79-8.53-24.53c2.95-1.06,6.03-2.13,9.25-3.23
			c1.21,4.49,2.62,9.01,4.24,13.51c0.09-0.03,0.19-0.06,0.28-0.09c-1.53-11.17,2.01-17.37,5.61-18.56c1.15-0.38,4.37-1.76,5.31-1.68
			c1.57,7.57,1.08,16.54,3.74,24.11c-1.01-0.1-1.99-0.03-3.24,0.34c-3.8,1.14-5.29,6.36-2.69,14.09c0.54,1.6,1.45,3.71,2.6,5.93
			c6.46,12.42,14.63,23.68,24.28,32.02c-3.23,0.56-6.36,1.1-9.4,1.61C394.19,324.61,383.61,308.79,376.28,291.79z"/>
		<path class="st6" d="M421.33,303.01c5.6,10.17,13.07,12.94,18.77,11.73c4.07-0.91,6.96-2.73,9.3-5.34
			c3.14,4.87,6.42,9.46,9.79,13.65c-2.4,3.19-6.32,5.23-11.15,6.13c-11.84,2-29.46-5.86-41.48-29.52
			c-10.6-21.32-6.69-42.35,6.72-49.18c24.43-12.44,23,13.16,30.83,35.38c1.75,4.92,2.94,8.52,3.5,10.54
			C438.37,298.73,429.58,300.94,421.33,303.01z M428.91,282.94c-2.65-7.52-6.97-17.13-12.6-15.46c-5.46,1.58-4.61,12.33-2.09,19.49
			C418.95,285.66,423.85,284.31,428.91,282.94z"/>
		<path class="st6" d="M449.22,270.37c-2.9-10.24-5.01-18.92-6.56-26.35c4.28-1.19,8.62-2.38,13.01-3.57
			c0.87,3.48,1.82,7.02,2.85,10.62c0.1-0.03,0.2-0.05,0.3-0.08c1.08-6.29,4.43-14.37,12.38-16.41c6.6-1.69,12.4,1.93,16.44,9.71
			c0.07-0.02,0.15-0.04,0.22-0.06c0.89-4.59,2.49-8.43,4.49-11.23c2.19-3.08,5.01-5.05,8.64-5.93
			c26.81-10.52,25.52,31.28,25.54,30.73c4.51,17.53,9.26,35.51,13.43,50.67c-5.06,1.19-10.07,2.35-15.02,3.48
			c-4.43-13.61-9.1-29.83-13.37-46.06c-3.11-11.87-6.85-18.74-11.99-17.4c-3.51,0.91-5.1,5.32-4.88,10.73
			c0.08,1.85,0.58,4.55,1.18,6.81c4.62,17.4,10.04,34.81,15.44,49c-4.82,1.07-9.55,2.11-14.2,3.11
			c-5.95-13.23-11.65-29.67-16.35-46.4c-2.68-9.54-6.25-16.69-11.23-15.34c-3.59,0.96-4.88,6.04-4.59,10.89
			c0.1,2.04,0.63,4.53,1.31,6.84c5,17.03,11.3,33.65,18.14,46.72c-4.47,0.94-8.84,1.84-13.1,2.7
			C462.47,309.15,454.76,289.85,449.22,270.37z"/>
		<path class="st6" d="M558.9,197.83c2.38,4.42,1.1,9.3-3.76,10.27c-4.57,0.96-9.33-2.86-11.17-7.67c-1.98-4.96-0.24-7.95,3.89-8.52
			C552.06,191.38,556.42,193.26,558.9,197.83z M572.39,301.48c-5.19-26.41-13.67-59.23-21.68-83.47c5.17-1.15,10.28-2.26,15.31-3.33
			c9.46-6.42,17.66,55.95,22.25,82.79C582.98,298.82,577.68,300.16,572.39,301.48z"/>
		<path class="st6" d="M586.87,236.47c-3.39-10.54-6.75-18.65-9.73-25.01c4.26-0.89,8.46-1.74,12.58-2.57
			c1.67,2.86,3.32,5.89,4.94,9.06c0.07-0.01,0.13-0.03,0.2-0.04c0.11-7.85,2.99-11.78,8.8-13.19c9.85-2.39,28.47-12.9,35.07,33.11
			c4.46,31.11-0.14,47.23-10.31,49.87c-5.49,1.51-10.34-1.29-13.27-5.8c-0.07,0.02-0.14,0.04-0.21,0.06
			c2.35,13.7,3.52,26.64,3.19,37.29c-4.96,1.2-9.94,2.36-14.92,3.49C603.08,300.42,596.31,265.87,586.87,236.47z M608.9,254.53
			c0.6,2.25,1.28,4.33,2,5.96c2.67,6.32,6.7,9.73,10.41,8.73c6.25-1.65,7.58-13.02,3.16-26.8c-4.54-13.96-11.64-21.64-17.42-20.36
			c-3.6,0.81-5.1,5.93-3.79,12.46c0.22,1.56,0.66,3.33,1.22,5.04C606.07,244.44,607.54,249.46,608.9,254.53z"/>
		<path class="st6" d="M653.01,259.67c3.08,1.97,8.68,3.59,12.44,2.5c3.87-1.11,5.04-4.19,3.84-8.5c-1.2-4.21-3.23-6-9.08-8.17
			c-10.7-3.76-17.08-11.95-20.87-20.02c-6.43-13.86-6.49-22.5,2.42-23.86c4.1-0.67,8.8,0.07,12.46,1.26
			c7.68,1.07,5.34,8.15,7.57,12.87c-2.66-1.17-6.85-2.41-9.91-1.79c-2.99,0.6-3.27,3.11-1.4,6.52c1.78,3.28,4.2,4.81,10.63,7.08
			c9.83,3.42,16.15,10.07,19.57,20.81c4.67,15.24-0.23,27.65-12.06,31.23c-5.28,1.59-10.81,0.91-14.51-1.39
			C654.02,272.07,653.66,265.84,653.01,259.67z"/>
		<path class="st6" d="M717.59,233.11c3.23,8.79,5.15,16.67,6.36,22.98c-2.49,0.94-5.12,1.91-7.89,2.91
			c-0.71-3.23-1.54-6.47-2.5-9.69c-0.06,0.02-0.12,0.04-0.19,0.06c-0.13,5.21-1.91,12.94-7.57,14.89
			c-7.57,2.67-12.78-6.49-21.07-29.43c-5.82-15.03-14.12-28.83-24.6-38.58c3.51-0.55,6.92-1.08,10.24-1.59
			c12.03,2.94,18.23,20.66,24.12,33.97c4.5,10.38,7.65,16.76,11.14,15.66c2.51-0.77,2.79-5.09,2.15-8.6
			c-0.23-1.44-0.79-3.35-1.62-5.34c-6.06-14.6-14.9-27.91-26.46-37.11c3.17-0.48,6.26-0.95,9.31-1.41
			C703.88,199.28,711.62,216.88,717.59,233.11z"/>
		<path class="st6" d="M711.66,207.04c-5.08-7.12-10.5-12.33-15.84-16.27c2.55-0.4,5.07-0.81,7.61-1.22
			c2.55,1.85,4.95,3.86,7.21,6.02c0.06-0.01,0.11-0.02,0.17-0.03c-1.95-3.64-4.01-7.64,0.61-8.44c3.82-0.68,10.1,1.32,15.34,6.21
			c0.04-0.01,0.08-0.01,0.12-0.02c-1.05-2.69-1.53-4.85-1.28-6.42c0.26-1.72,1.48-2.83,3.81-3.34c6.52-1.47,17.16,3.87,20.84,21.07
			c2.81,12.17,3.32,24.98,2.87,37.32c-0.68,0.6-1.52,1.24-2.55,1.93c-0.57-11.79-2.32-23.82-6.16-35.06
			c-2.76-8.2-6.61-12.72-9.23-12.21c-1.81,0.35-1.45,2.97-0.08,6.48c0.47,1.2,1.31,2.99,2.05,4.55
			c5.68,11.93,8.72,25.18,10.07,38.27c-1.38,0.77-2.95,1.58-4.71,2.43c-1.84-13.11-5.56-26.3-11.82-38.05
			c-3.52-6.7-8.21-11.26-10.83-10.78c-1.89,0.34-0.85,3.38,0.76,6.62c0.67,1.35,1.67,3.07,2.64,4.72
			c7.17,12.17,11.59,26.09,13.82,39.97c-2.13,0.93-4.45,1.9-6.97,2.91C727.29,237.21,721.33,220.64,711.66,207.04z"/>
	</g>
	<g>
	</g>
</g>
</svg>
