<?xml version="1.0" encoding="utf-8"?>
<!-- Generator: Adobe Illustrator 25.2.0, SVG Export Plug-In . SVG Version: 6.00 Build 0)  -->
<svg version="1.1" id="Layer_1" xmlns="http://www.w3.org/2000/svg" xmlns:xlink="http://www.w3.org/1999/xlink" x="0px" y="0px"
	 viewBox="0 0 792 612" style="enable-background:new 0 0 792 612;" xml:space="preserve">
<style type="text/css">
	.st0{fill:#D1D3D4;}
	.st1{fill:none;}
	.st2{fill:#FBB040;}
	.st3{fill:#00AEEF;}
	.st4{fill:#FFFFFF;}
	.st5{fill:#F7941D;}
	.st6{fill:#FBA96D;}
	.st7{fill:#F1F2F2;}
	.st8{fill:#E8830C;}
</style>
<rect x="0.44" y="-1" class="st0" width="793.8" height="612.36"/>
<path class="st1" d="M150.56,209.42c-5.51,0.65-10.53-4.74-10.26-10.26c0.21-4.29,3.61-8.61,8.28-9c5.17-0.43,9.61,4.14,9.9,9.18
	C158.75,204.13,155.24,208.87,150.56,209.42z"/>
<path class="st2" d="M170,186.56c-10.02-11.22-28.01-17.51-35.64-11.52c-5.97,4.68-0.36,12.87-8.1,19.98
	c-9.01,8.27-14.76,0.81-21.96,8.1c-6.53,6.61-2.62,19.52-1.98,21.6c4.86,15.66,23.88,30.71,44.82,27
	c16.33-2.89,29.16-16.35,32.04-32.22C179.43,218.14,182.35,200.38,170,186.56z M150.56,209.42c-5.51,0.65-10.53-4.74-10.26-10.26
	c0.21-4.29,3.61-8.61,8.28-9c5.17-0.43,9.61,4.14,9.9,9.18C158.75,204.13,155.24,208.87,150.56,209.42z"/>
<path class="st1" d="M150.56,209.42c-5.51,0.65-10.53-4.74-10.26-10.26c0.21-4.29,3.61-8.61,8.28-9c5.17-0.43,9.61,4.14,9.9,9.18
	C158.75,204.13,155.24,208.87,150.56,209.42z"/>
<path class="st3" d="M271.76,175.28c23.76,0.04,47.52,0.08,71.28,0.12c0.04,3.48,0.08,6.96,0.12,10.44
	c-9.88,10.2-19.76,20.4-29.64,30.6c0.04,11.24,0.08,22.48,0.12,33.72c-3.8-3.56-7.6-7.12-11.4-10.68
	c-0.08-7.76-0.16-15.52-0.24-23.28c-9.92-9.8-19.84-19.6-29.76-29.4C272.08,182.96,271.92,179.12,271.76,175.28z"/>
<path class="st3" d="M469.34,160.64c4.33,2.38,31.36,17.8,36.18,48.06c2.25,14.13,2.34,37.89-16.74,50.58
	c-10.6,7.05-22.52,5.63-32.76-1.98c-2.42-1.8-11.14-8.9-11.16-18.9c-0.03-13.71,12.51-10.08,24.48-33.84
	C473.4,196.49,476.64,183,469.34,160.64z"/>
<path class="st4" d="M472.58,215.63c-0.28,12.06,1.69,18.91,4.95,21.33c4.08,3.04,8.52,2.15,10.98,6.12
	c2.13,3.43,1.67,8.7-0.9,11.52c-4.6,5.04-15.3,4.68-21.42-3.06C460.31,244.1,462.24,228.31,472.58,215.63z"/>
<path class="st3" d="M659.42,190.88c-0.22,4.65-2.54,8.55-5.76,11.28c-2.96,2.51-6.69,4.02-10.26,4.2
	c-5.87,0.3-10.08-3.05-11.11-3.89c-0.09-0.07-0.43-0.36-0.91-0.83c-2.04-2.02-6.65-7.46-5.44-14.54
	c1.33-7.78,9.01-13.53,16.92-13.32C651.61,174.01,659.87,181.51,659.42,190.88z"/>
<path class="st5" d="M678.32,223.28c-0.18,6.42-0.36,12.84-0.54,19.26c-0.63,0-1.26,0.01-1.89,0.01l-65.88,0.33
	c-0.99,0.01-1.98,0.01-2.97,0.02c-0.06-1.4-0.57-14.05,0.36-19.8c0.13-0.8,0.4-2.13,1.44-3.24c1.61-1.71,4.07-1.83,5.22-1.8
	c5.64-0.18,11.28-0.36,16.92-0.54c0.06-5.28,0.12-10.56,0.18-15.84c0.07-0.01,0.15-0.03,0.22-0.04c0.48,0.47,0.82,0.76,0.91,0.83
	c1.03,0.84,5.24,4.19,11.11,3.89c3.57-0.18,7.3-1.69,10.26-4.2v16.26c8.7,0.03,15.29,0.09,18.9,0c0.79-0.02,2.57-0.08,3.96,1.08
	C677.86,220.61,678.21,222.3,678.32,223.28z"/>
<path class="st6" d="M675.89,242.55v1.83c0,4.95-4.01,8.96-8.95,8.96h-49.6c-4.05,0-7.33-3.28-7.33-7.33v-3.13"/>
<path class="st7" d="M288.8,372.32c-5.67-8.69-2.99-19.87,4.32-24.48c7.97-5.02,20.44-1.61,25.02,8.82
	C308.36,361.88,298.58,367.1,288.8,372.32z"/>
<path class="st8" d="M288.44,371.6c8.4,16.86,16.8,33.72,25.2,50.58c9.84-5.1,19.68-10.2,29.52-15.3
	c-8.58-17.16-17.16-34.32-25.74-51.48C307.76,360.8,298.1,366.2,288.44,371.6z"/>
<path class="st6" d="M313.46,422c8.91,5.1,17.82,10.2,26.73,15.3c0.96-10.2,1.92-20.4,2.88-30.6
	C333.2,411.8,323.33,416.9,313.46,422z"/>
<path class="st8" d="M518.66,346.04c-2.81-2.44-7.65-0.99-10.53-0.09c-7.36,2.31-12.51,6.68-19.71,14.13
	c-4.65,4.81-10.47,11.23-16.74,19.26l-5.04-5.4c-0.56-0.57-1.94-1.82-3.78-1.8c-1,0.01-1.83,0.38-3.6,1.62
	c-1.38,0.96-3.21,2.37-5.22,4.32c10.92,10.74,21.84,21.48,32.76,32.22c2.93-1.3,4.58-3.08,5.4-4.14c0.88-1.13,1.68-2.2,1.62-3.6
	c-0.05-1.12-0.63-2.02-2.52-3.96c-1.27-1.3-3.06-3.01-5.4-4.86c10.12-6.53,17.49-13.22,22.5-18.36
	c7.67-7.88,11.17-13.54,12.06-20.16C520.77,352.94,521.32,348.35,518.66,346.04z M508.85,361.57c-1.35,1.21-3.6,1.05-4.68-0.41
	c-1.01-1.37-0.61-3.35,0.68-4.36c1.14-0.91,2.88-0.97,4,0C510.21,357.97,510.25,360.3,508.85,361.57z"/>
<path class="st1" d="M508.85,361.57c-1.35,1.21-3.6,1.05-4.68-0.41c-1.01-1.37-0.61-3.35,0.68-4.36c1.14-0.91,2.88-0.97,4,0
	C510.21,357.97,510.25,360.3,508.85,361.57z"/>
<path class="st6" d="M480.14,416.78c-3.14,2.89-7.28,7.36-10.62,13.68c-4.01,7.59-3.29,11.08-6.21,12.42
	c-6.32,2.9-17.72-9.87-26.91-20.16c-8.16-9.13-15.23-17.21-12.78-22.05c1.55-3.06,5.59-2.26,13.14-6.21
	c5.59-2.93,9.53-6.59,12.06-9.36L480.14,416.78z"/>
<path class="st1" d="M518.72,345.68"/>
<path class="st1" d="M508.85,361.57c-1.35,1.21-3.6,1.05-4.68-0.41c-1.01-1.37-0.61-3.35,0.68-4.36c1.14-0.91,2.88-0.97,4,0
	C510.21,357.97,510.25,360.3,508.85,361.57z"/>
</svg>
