<?xml version="1.0" encoding="utf-8"?>
<!-- Generator: Adobe Illustrator 25.2.0, SVG Export Plug-In . SVG Version: 6.00 Build 0)  -->
<svg version="1.1" id="Layer_1" xmlns="http://www.w3.org/2000/svg" xmlns:xlink="http://www.w3.org/1999/xlink" x="0px" y="0px"
	 viewBox="0 0 792 612" style="enable-background:new 0 0 792 612;" xml:space="preserve">
<style type="text/css">
	.st0{fill:none;stroke:#231F20;stroke-miterlimit:10;}
	.st1{fill:#231F20;}
	.st2{fill:none;}
</style>
<path class="st0" d="M441.8,345.1c17.3-13.7,35.5-33.4,39.1-43.9c3.6-10.6-7.7-83.8-18.7-99.1c-11-15.4-13-23-21.8-27.8
	c-8.9-4.8-149.2-71.9-162,103.7c-1.7,23,30.5,48,44.4,56.6c-10.6-25.9-7.3-128.2,18.6-148.7c7.2-5.8,10.8-2.2,10.8-2.2
	s-4,18.7,13.7,32.4c17.6,13.7,42.5,13,47.2,12.6c4.7-0.4,14.8,0,19.8,1.1"/>
<path class="st0" d="M422,204.9c0,0,42.1,38.9,19.8,137.2"/>
<path class="st0" d="M357.4,184.4c16.2,7.9,18.6,9.6,41.6,9"/>
<path class="st0" d="M360.3,188.1c17.4,14.9,29,22,49.1,20.2"/>
<path class="st0" d="M357.4,188.6"/>
<path class="st0" d="M357.7,187.6c5.8,19.7,25.9,27.4,41.2,28.9"/>
<path class="st0" d="M304.3,258.9c-3.4,17.6-2.3,27.7,0.4,36"/>
<path class="st0" d="M295.1,259.3c-1.6,12.6-0.2,24.7,1,27.9"/>
<path class="st0" d="M288.2,261"/>
<path class="st0" d="M287.8,260.9c-1.6,5.9-0.5,13.3,0.5,16"/>
<path class="st0" d="M349.3,233.5"/>
<ellipse class="st0" cx="348.4" cy="248.8" rx="9.7" ry="14.4"/>
<ellipse class="st0" cx="417.1" cy="248.9" rx="9.7" ry="14.4"/>
<path class="st0" d="M313.1,287.7c11.2,14.8,59,25.6,80.6,23c21.6-2.5,52.7,2.5,52.6-59.9"/>
<path class="st0" d="M509.1,259.6"/>
<line class="st0" x1="450.3" y1="337.9" x2="458.1" y2="346.6"/>
<path class="st0" d="M452.6,382c0,0-12.4-22.5-11.2-25.2c1.3-2.7,23.4-18.5,31.7-5.4C481.4,364.6,473.3,377,452.6,382z"/>
<path class="st0" d="M424.5,314.4"/>
<path class="st0" d="M425.5,315.3"/>
<path class="st0" d="M424.8,313.7c0,0,4.9,11.6,5.9,16.3c0.9,4.7,8.5,29.8,12.3,33.8"/>
<path class="st0" d="M402.8,356.8c-6,4.4-22.7,16.2,8.8,41.2s27.7,22,40.7,15.8c13-6.1,9.1-18.7-6.7-41.8
	C428.2,346.7,420.1,344.2,402.8,356.8z"/>
<path class="st0" d="M353.1,356.7c2.8,2.3,8,6.5,8.8,12.9c1.2,9.1-7.4,17.1-12.2,21.7c-1.5,1.5-2.4,2.1-7.9,6.1
	c-22.3,16.3-26,18.7-31.5,18.2c-2.9-0.3-5.3-2.3-10.1-4.9c-12.6-6.9-7.9-19.2,9.2-41.3C328.3,345,336.5,343,353.1,356.7z"/>
<path class="st0" d="M308.6,378.1c-15.5-1.1-40.1-10.1-26.3-30.4c13.9-20.3,25.6-7,37.4-1.1"/>
<path class="st0" d="M302.3,382.8c0,0,28.8-67.5,29.2-74"/>
<path class="st0" d="M296.5,339.6"/>
<path class="st0" d="M297.8,338.8"/>
<path class="st0" d="M298.9,338.1"/>
<path class="st0" d="M296,339.2c0,0,16.6-6.7,31-31.7"/>
<path class="st0" d="M333.4,301.4c-1,0.4-2.6,1-4.3,2c-2.1,1.2-3.7,2.1-3.6,2.9c0.2,1.3,4.6,1.6,5.2,1.6c2.2,0.1,5.6,0,9.7-1.8
	c0.9,1.1,3.8,4.5,8.8,5.6c3.6,0.8,6.5,0.1,7.9-0.4c0.5,0.6,3.4,4.3,8.6,4.7c4.4,0.3,7.5-1.9,8.3-2.5c0.1,0.2,3.1,3.7,7.6,3.1
	c3.1-0.5,4.9-2.7,5.2-3.2c0.4,0.4,3.8,3.6,8.6,3.1c4.1-0.4,6.5-3.2,7-3.8c1.5,2.6,4.6,3.8,7.4,3.1c2.6-0.7,4.4-3,4.7-5.8
	c1.1,2,3.2,3.2,5.4,3.1c2-0.1,3.8-1.4,4.7-3.2c1.8,2.1,4.5,2.7,6.3,1.6c1.5-0.9,1.9-2.7,2-3.1c-1.3-0.9-2.8-1.7-4.5-2.5
	c-4.2-1.9-8-2.7-11-3.1"/>
<path class="st0" d="M350.3,391.7c0.2-0.1,2.1-1.2,4.3-0.5c2.2,0.8,3,2.8,3.1,3.1c0.5-0.3,2.1-1.1,4.3-0.7c2.3,0.4,3.6,1.9,3.9,2.3
	c0.3-0.3,1.7-1.6,3.7-1.6c3-0.1,4.8,2.5,4.9,2.6c0.3-0.3,1.8-1.7,4.1-1.8c2.5-0.1,4.2,1.5,4.4,1.7c0.5-0.5,2.1-1.8,4.6-2
	c3-0.2,5.1,1.4,5.5,1.7c0.1-0.2,0.8-1.4,2.2-1.8c1.3-0.4,2.7,0,3.7,1c0.5-0.6,1.5-1.5,3-2.2c2.4-1,4.6-0.6,5.4-0.4"/>
<path class="st0" d="M343.5,393.6c0.2,2.9,2,5.4,4.6,6.2c2.4,0.8,4.5-0.2,5-0.4c0.1,0.3,1.4,3.2,4.6,4c2.7,0.6,4.9-0.8,5.2-1
	c0.2,0.3,2,2.7,5.2,2.9c2.3,0.1,4-1.1,4.4-1.4c0.5,0.4,2,1.4,4,1.5c2.9,0.1,4.9-1.7,5.2-2c0.3,0.3,2.2,2.3,5.2,2.2
	c3.7-0.1,5.7-3.1,5.9-3.4c1.1,1.4,2.9,2,4.5,1.6c1.9-0.6,2.6-2.4,2.6-2.6c0.8,0.5,2.7,1.5,4.9,1.1c3.3-0.6,6.1-4.3,6.1-9"/>
<path class="st0" d="M433,182.1c3.3,1.9,8,5.2,12.4,10.4c4.7,5.5,7.1,11,8.5,14.6"/>
<path class="st0" d="M446.8,199.3c2.7,0.3,13.2-0.2,18.2-2.6c2-1,3.6-2.9,3.7-3.3c0.4-1.5-1.6-1.5-1.8-4.1c-0.1-2,0.1-2.5-0.4-3.2
	c-1-1.5-3.2-0.2-5.7-1.9c-2.2-1.5-0.9-4.2-3.4-6.1c-1.7-1.3-3.3,0.7-5.2-1c-1.7-1.5-1.8-3.7-2.8-4c-2.3-0.8-7.6,4.9-9.1,11.8
	c-0.6,2.7,0.3,5.1,0.5,6.7"/>
<path class="st0" d="M446.9,171.3c-0.6,1.4-2.7,6.4-0.8,12.2c0.6,1.9,1.8,5.7,5.2,7.7c3.7,2.1,6.6,0.2,13.4,2c2.2,0.6,3.9,1.4,5,1.9
	"/>
<path class="st0" d="M447.1,188.9c0.6-6.8,1.5-8.4,2.2-8.5c0.9-0.1,1.2,2.7,3.8,3.9c1.7,0.8,2.5,0.2,4,0.8c1.3,0.5,2.8,1.8,3.9,5.6"
	/>
<g>
	<path class="st1" d="M696.4,347c8.3-6.7,16-14.2,23.2-22c3.6-4,7-8.1,10-12.4c1.5-2.2,3-4.4,4.1-6.8l0.4-0.9l0.4-0.9
		c0.2-0.6,0.5-1.2,0.6-1.8c0.2-0.6,0.2-1.3,0.3-1.9c0-0.7,0.1-1.3,0.1-2c0.1-5.3-0.4-10.6-0.9-15.9c-0.6-5.3-1.3-10.6-2.1-15.8
		c-1.6-10.5-3.6-21-6.1-31.4c-1.2-5.2-2.6-10.3-4.2-15.4c-0.8-2.5-1.7-5-2.6-7.5c-1-2.4-2.1-4.8-3.4-6.9l-0.5-0.8l-0.6-0.8l-1.2-1.6
		l-2.3-3.3c-1.5-2.2-2.9-4.5-4.4-6.8c-2.9-4.5-5.6-9.1-9.4-12.3c-1.9-1.6-4.1-2.7-6.6-3.8c-2.4-1.1-4.8-2.1-7.3-3.1
		c-4.9-1.9-9.9-3.7-15-5.2c-10.1-3-20.5-5.2-31-6c-10.5-0.9-21.1-0.4-31.3,1.9c-5.1,1.2-10.1,2.8-14.9,4.9
		c-4.8,2.1-9.3,4.8-13.5,7.8c-4.2,3.1-8.1,6.6-11.6,10.4c-3.5,3.9-6.6,8.1-9.4,12.5c-2.8,4.4-5.3,9.1-7.4,13.9
		c-0.6,1.2-1.1,2.4-1.6,3.6c-0.5,1.2-1,2.4-1.5,3.7c-0.9,2.5-1.8,4.9-2.6,7.5c-1.6,5-2.9,10.1-4.1,15.3c-0.5,2.6-1.1,5.2-1.6,7.8
		c-0.4,2.6-1,5.2-1.3,7.8c-0.4,2.6-0.8,5.2-1.1,7.9c-0.3,2.6-0.6,5.3-0.8,7.9c-0.2,2.6-0.6,5.4-0.5,7.7c0.1,2.5,0.5,4.9,1.3,7.4
		c1.6,4.8,4.1,9.4,7.2,13.6c3,4.2,6.5,8.2,10.3,11.9c7.5,7.4,15.8,14,24.7,19.7l-2.6,2.2c-1.4-3.4-2.1-6.9-2.8-10.3
		c-0.3-1.7-0.6-3.5-0.9-5.2c-0.3-1.7-0.5-3.5-0.7-5.2c-0.8-7-1.1-13.9-1.3-20.9c-0.3-13.9,0.5-27.8,2-41.7
		c0.8-6.9,1.8-13.8,3.1-20.7c1.3-6.8,2.9-13.6,5.1-20.3c1.1-3.3,2.3-6.6,3.7-9.8c0.7-1.6,1.5-3.2,2.3-4.7l1.3-2.3
		c0.2-0.4,0.4-0.8,0.7-1.1l0.8-1.1c0.5-0.7,1-1.5,1.6-2.2l1.8-2c0.3-0.4,0.6-0.6,1-1l1-0.9c0.3-0.3,0.7-0.6,1-0.9l1.1-0.8
		c1.5-1,3.2-1.9,5.1-2.3c0.9-0.2,2-0.3,3-0.1c0.5,0.1,1,0.2,1.5,0.4c0.5,0.2,0.9,0.4,1.4,0.9c0.3,0.2,0.4,0.6,0.3,0.9l0,0.1
		c-0.4,2-0.4,4.2-0.3,6.4c0.1,2.2,0.4,4.3,0.9,6.4c1,4.2,2.9,8.2,5.5,11.7c2.6,3.5,5.8,6.5,9.4,9c3.6,2.5,7.5,4.5,11.6,6.1
		c8.2,3.1,17.1,4.7,25.9,5.1c2.2,0.1,4.4,0.1,6.6,0c2.2-0.1,4.5-0.1,6.7,0c2.2,0.1,4.4,0.2,6.7,0.4c2.2,0.2,4.4,0.5,6.6,0.9
		c-2.2-0.4-4.4-0.6-6.6-0.8c-2.2-0.1-4.4-0.2-6.6-0.2c-2.2,0-4.4,0-6.6,0.2c-2.2,0.2-4.5,0.2-6.7,0.2c-8.9-0.2-17.8-1.6-26.3-4.7
		c-4.2-1.6-8.3-3.6-12-6c-3.8-2.4-7.2-5.5-9.9-9.1c-2.8-3.6-4.9-7.7-6-12.2c-1.1-4.4-1.6-9-0.8-13.7l0.3,0.9
		c-0.1-0.1-0.5-0.3-0.8-0.4c-0.3-0.1-0.7-0.2-1-0.3c-0.7-0.1-1.4-0.1-2.2,0.1c-1.5,0.3-2.9,1.1-4.3,2l-1,0.7
		c-0.3,0.3-0.6,0.6-0.9,0.8l-0.9,0.8c-0.3,0.3-0.6,0.5-0.9,0.9l-1.6,1.9c-0.5,0.6-1,1.4-1.5,2.1l-0.7,1c-0.2,0.4-0.4,0.7-0.6,1.1
		l-1.3,2.2c-0.7,1.5-1.5,3-2.2,4.6c-1.3,3.1-2.5,6.3-3.5,9.6c-2,6.5-3.6,13.3-4.8,20c-1.2,6.8-2.2,13.6-2.9,20.5
		c-1.4,13.7-1.9,27.5-1.6,41.3c0.2,6.9,0.5,13.8,1.3,20.6c0.2,1.7,0.4,3.4,0.7,5.1c0.2,1.7,0.5,3.4,0.9,5c0.7,3.3,1.5,6.6,2.7,9.7
		l0,0c0.4,0.9-0.1,1.9-1,2.3c-0.5,0.2-1.1,0.1-1.6-0.1c-9.2-5.8-17.7-12.5-25.4-20.1c-3.9-3.8-7.5-7.9-10.7-12.3
		c-3.2-4.4-6-9.3-7.7-14.6c-0.9-2.7-1.4-5.5-1.5-8.4c-0.1-3,0.3-5.5,0.5-8.2c0.2-2.7,0.5-5.3,0.8-8c0.3-2.7,0.7-5.3,1.1-8
		c0.3-2.7,0.9-5.3,1.3-8c0.5-2.7,1.1-5.3,1.6-7.9c1.2-5.3,2.5-10.5,4.2-15.6c0.8-2.6,1.7-5.1,2.7-7.7c0.5-1.3,1-2.5,1.5-3.8
		c0.5-1.3,1-2.5,1.6-3.7c2.2-5,4.8-9.8,7.7-14.3c2.9-4.6,6.2-9,9.9-13c3.7-4,7.8-7.7,12.2-10.9c4.4-3.2,9.2-6,14.2-8.2
		c5-2.2,10.2-3.9,15.5-5.1c10.6-2.4,21.6-2.8,32.4-1.9c10.8,0.9,21.4,3.1,31.7,6.3c5.2,1.6,10.2,3.4,15.2,5.4c2.5,1,5,2.1,7.4,3.3
		c2.4,1.1,5,2.5,7.2,4.3c2.2,1.8,4,4,5.5,6.3c1.6,2.2,3,4.5,4.4,6.8c1.4,2.3,2.8,4.5,4.3,6.7l2.2,3.3l1.1,1.6l0.6,0.8l0.6,0.9
		c1.5,2.4,2.6,4.9,3.6,7.4c1,2.5,1.8,5.1,2.6,7.7c1.6,5.2,2.9,10.4,4.1,15.6c2.3,10.5,4.2,21,5.7,31.6c0.7,5.3,1.4,10.6,1.8,16
		c0.4,5.3,0.8,10.7,0.6,16.1c0,0.7-0.1,1.4-0.2,2c-0.1,0.7-0.1,1.4-0.4,2.1c-0.1,0.7-0.4,1.3-0.7,2l-0.4,1l-0.5,0.9
		c-1.2,2.4-2.7,4.7-4.3,6.9c-3.2,4.3-6.7,8.4-10.3,12.3C712.8,333.3,704.8,340.5,696.4,347z"/>
</g>
<g>
	<path class="st1" d="M676.6,206.9c4.5,4,8.1,8.9,11.4,14c3.1,5.2,5.8,10.6,8,16.3c4.4,11.3,6.9,23.3,8.1,35.4
		c1.1,12.1,0.8,24.2-0.5,36.2c-1.3,12-3.8,23.8-7.2,35.3c1.8-11.9,3.4-23.7,4.1-35.6l0.2-4.5c0.1-1.5,0.1-3,0.2-4.5l0.1-4.5l0-4.4
		c0-3-0.1-5.9-0.2-8.9c-0.1-1.5-0.2-3-0.3-4.4l-0.2-2.2l-0.2-2.2c-0.5-5.9-1.4-11.7-2.5-17.5c-1.1-5.8-2.7-11.5-4.5-17.1
		c-1.9-5.6-4.1-11.1-6.8-16.4C683.5,216.6,680.5,211.4,676.6,206.9z"/>
</g>
<g>
	<path class="st1" d="M612,186.4c3.6,0.8,7,2.1,10.4,3.2c3.4,1.2,6.6,2.2,10,2.9c3.4,0.7,6.9,1,10.4,1.4c3.6,0.4,7.2,0.7,10.8,1.5
		c-3.6,0.9-7.2,1.4-10.9,1.6c-3.7,0.2-7.4,0.1-11.1-0.6c-3.7-0.7-7.3-2.1-10.5-3.9C617.9,190.7,614.9,188.7,612,186.4z"/>
</g>
<g>
	<path class="st1" d="M614.9,190.1c4,2.3,7.8,4.9,11.6,7.3c3.8,2.4,7.6,4.7,11.6,6.6c4,1.9,8.1,3.4,12.4,4.4c4.3,1,8.8,1.4,13.4,1.9
		c-4.5,1.2-9.2,1.7-13.9,1.3c-4.7-0.4-9.4-1.8-13.7-3.9c-4.3-2.1-8.2-4.7-11.7-7.7C621.1,196.9,617.8,193.7,614.9,190.1z"/>
</g>
<g>
	<path class="st2" d="M612,190.6"/>
</g>
<g>
	<path class="st1" d="M612.3,189.6c2.1,4,4.4,7.7,7.3,10.8c2.9,3.2,6.2,5.8,9.8,8.1c3.6,2.3,7.5,4.2,11.5,5.8
		c4,1.6,8.2,2.9,12.6,4.2c-4.5,0.4-9.1-0.1-13.5-1.2c-4.4-1.1-8.8-2.9-12.7-5.4c-3.9-2.5-7.4-5.7-10.1-9.5
		C614.5,198.5,612.7,194.1,612.3,189.6z"/>
</g>
<g>
	<path class="st1" d="M558.9,260.9c0.3,3.1,0.2,6.2,0.1,9.2l-0.2,8.9c-0.1,3-0.1,5.9,0,8.8c0.1,3,0.3,5.9,0.5,9.1
		c-1.7-2.6-2.9-5.6-3.6-8.7c-0.7-3.1-1-6.2-0.9-9.3c0.1-3.1,0.5-6.2,1.1-9.2C556.5,266.6,557.5,263.7,558.9,260.9z"/>
</g>
<g>
	<path class="st1" d="M549.7,261.2c0.5,2.4,0.8,4.8,1,7.1c0.2,2.3,0.3,4.6,0.4,6.9c0.1,2.3,0.1,4.6,0,6.9c0,2.3-0.2,4.6-0.3,7.1
		c-0.8-1-1.3-2.1-1.8-3.3c-0.4-1.1-0.8-2.3-1.1-3.5c-0.5-2.3-0.8-4.7-0.9-7.1c-0.1-2.4,0.1-4.8,0.5-7.1
		C547.9,265.8,548.6,263.4,549.7,261.2z"/>
</g>
<g>
	<path class="st2" d="M542.8,262.9"/>
</g>
<g>
	<path class="st1" d="M542.4,262.9c0.5,1.5,0.7,2.8,0.9,4.1c0.2,1.3,0.3,2.6,0.3,3.8c0.1,1.3,0,2.6-0.1,3.9
		c-0.1,1.3-0.3,2.7-0.7,4.2c-1.2-1-1.9-2.4-2.4-3.7c-0.5-1.4-0.8-2.8-0.8-4.2c-0.1-1.4,0.1-2.9,0.5-4.3
		C540.6,265.3,541.2,263.9,542.4,262.9z"/>
</g>
<g>
	<path class="st2" d="M603.9,235.5"/>
</g>
<g>
	<path class="st1" d="M612.7,250.7c0,3.2-0.6,6.4-2,9.3c-0.7,1.5-1.6,2.9-2.9,4c-1.3,1.1-2.9,2-4.8,2.1c-1.8,0.1-3.7-0.5-5.3-1.5
		c-1.5-1-2.8-2.4-3.7-3.9c-1.9-3-2.7-6.6-2.7-10.1c0-3.5,0.8-7,2.7-10.1c0.9-1.5,2.2-2.9,3.7-3.9c1.5-1,3.4-1.6,5.3-1.5
		c1.9,0.1,3.5,1,4.8,2.1c1.3,1.1,2.2,2.5,2.9,4C612.1,244.3,612.6,247.6,612.7,250.7z M612.7,250.7c0-3.2-0.8-6.4-2.5-9.1
		c-0.8-1.3-1.9-2.5-3.2-3.3c-1.3-0.8-2.7-1.2-4.1-1.1c-2.7,0.3-4.8,2.5-6,5.1c-1.2,2.6-1.7,5.5-1.7,8.4c0,2.9,0.5,5.8,1.7,8.4
		c1.2,2.5,3.2,4.8,6,5.1c1.4,0.1,2.8-0.3,4.1-1.1c1.3-0.8,2.3-2,3.2-3.3C611.9,257.2,612.6,253.9,612.7,250.7z"/>
</g>
<g>
	<path class="st1" d="M681.4,250.9c0,3.2-0.6,6.4-2,9.3c-0.7,1.5-1.6,2.9-2.9,4c-1.3,1.1-2.9,2-4.8,2.1c-1.8,0.1-3.7-0.5-5.3-1.5
		c-1.5-1-2.8-2.4-3.7-3.9c-1.9-3-2.7-6.6-2.7-10.1c0-3.5,0.8-7,2.7-10.1c0.9-1.5,2.2-2.9,3.7-3.9c1.5-1,3.4-1.6,5.3-1.5
		c1.9,0.1,3.5,1,4.8,2.1c1.3,1.1,2.2,2.5,2.9,4C680.9,244.5,681.4,247.7,681.4,250.9z M681.4,250.9c0-3.2-0.8-6.4-2.5-9.1
		c-0.8-1.3-1.9-2.5-3.2-3.3c-1.3-0.8-2.7-1.2-4.1-1.1c-2.7,0.3-4.8,2.5-6,5.1c-1.2,2.6-1.7,5.5-1.7,8.4c0,2.9,0.5,5.8,1.7,8.4
		c1.2,2.5,3.2,4.8,6,5.1c1.4,0.1,2.8-0.3,4.1-1.1c1.3-0.8,2.3-2,3.2-3.3C680.7,257.3,681.4,254.1,681.4,250.9z"/>
</g>
<g>
	<path class="st1" d="M567.7,289.7c2.5,2.8,5.6,4.9,8.9,6.7c3.3,1.8,6.7,3.3,10.1,4.5c6.9,2.6,14.1,4.6,21.3,6.2
		c7.2,1.6,14.6,2.8,21.9,3.5c3.7,0.3,7.3,0.6,11,0.6c1.8,0,3.6-0.1,5.4-0.2c1.7-0.2,3.7-0.4,5.6-0.6c3.8-0.3,7.5-0.5,11.1-0.9
		c3.6-0.4,7.2-1,10.6-2.1c3.4-1,6.6-2.5,9.5-4.6c2.9-2,5.3-4.6,7.3-7.6c2-2.9,3.6-6.2,4.8-9.7c1.3-3.4,2.3-7,3-10.6
		c1.5-7.2,2.2-14.7,2.6-22.2c0.5,7.5,0.3,15-0.7,22.5c-0.5,3.7-1.3,7.5-2.4,11.1c-1.1,3.7-2.6,7.2-4.7,10.5
		c-0.5,0.8-1.1,1.6-1.6,2.4c-0.6,0.8-1.2,1.5-1.9,2.3c-0.7,0.7-1.4,1.4-2.1,2.1c-0.8,0.6-1.5,1.3-2.3,1.9c-3.2,2.4-6.7,4.2-10.5,5.4
		c-7.5,2.4-15.2,2.7-22.5,3.3c-1.9,0.1-3.6,0.4-5.6,0.5c-1.9,0.1-3.9,0.2-5.8,0.2c-3.8,0-7.6-0.3-11.4-0.7
		c-7.5-0.9-14.9-2.3-22.2-4.2c-7.3-1.9-14.5-4.3-21.3-7.4c-3.4-1.6-6.8-3.3-9.9-5.4c-1.6-1-3.1-2.2-4.5-3.4
		C570,292.6,568.8,291.2,567.7,289.7z"/>
</g>
<path class="st0" d="M763.7,261.6"/>
<g>
	<path class="st1" d="M704.8,339.9c1.3,0.2,2.2,0.6,3.1,1.1c0.9,0.5,1.6,1.2,2.3,1.9c0.7,0.7,1.2,1.5,1.6,2.4
		c0.4,0.9,0.8,1.9,0.8,3.2c-1.3-0.2-2.2-0.6-3.1-1.1c-0.9-0.5-1.6-1.2-2.3-1.9c-0.7-0.7-1.2-1.5-1.6-2.5
		C705.2,342.2,704.9,341.2,704.8,339.9z"/>
</g>
<g>
	<path class="st1" d="M707.2,384c-2.6-3.8-4.9-7.7-7.2-11.6c-1.1-2-2.2-4-3.2-6.1c-0.5-1-1-2.1-1.4-3.2c-0.2-0.5-0.4-1.1-0.6-1.7
		c-0.2-0.6-0.4-1.2-0.4-2.1c0-0.2,0-0.4,0.1-0.9c0.1-0.4,0.2-0.6,0.4-0.8c0.3-0.4,0.5-0.6,0.7-0.9c0.4-0.5,0.9-0.9,1.3-1.3
		c0.9-0.8,1.8-1.5,2.8-2.2c1.9-1.4,3.9-2.6,6-3.7c2.1-1.1,4.3-1.9,6.7-2.6c2.3-0.6,4.8-1,7.4-0.7c1.3,0.1,2.6,0.5,3.8,1
		c1.2,0.6,2.4,1.3,3.4,2.2c0.5,0.4,0.9,1,1.4,1.5c0.4,0.5,0.8,1.1,1.1,1.6l0.9,1.6c0.1,0.3,0.3,0.5,0.4,0.8l0.3,0.9l0.7,1.7l0.4,1.8
		c0.1,0.3,0.1,0.6,0.2,0.9l0.1,0.9c0,0.6,0.1,1.3,0.1,1.9c0,2.5-0.7,5-1.8,7.3c-2.4,4.4-6.3,7.5-10.5,9.5c-2.1,1-4.3,1.9-6.5,2.5
		c-1.1,0.3-2.2,0.6-3.3,0.9L707.2,384z M707.2,384c1.1-0.4,2.2-0.8,3.2-1.2c1-0.4,2.1-0.9,3.1-1.3c1-0.4,2-1,3-1.5
		c1-0.5,1.9-1.1,2.9-1.7c3.7-2.3,6.9-5.5,8.6-9.2c0.2-0.5,0.3-1,0.5-1.4c0.1-0.2,0.2-0.5,0.2-0.7l0.1-0.7c0.1-0.5,0.2-1,0.2-1.5
		l0-1.5c0-0.5-0.1-1-0.2-1.5l-0.1-0.7c-0.1-0.2-0.1-0.5-0.2-0.7l-0.4-1.5l-0.6-1.4l-0.3-0.7L727,356l-0.8-1.4
		c-0.3-0.5-0.6-0.8-0.8-1.2c-0.3-0.3-0.6-0.7-1-1c-0.7-0.6-1.5-1.1-2.3-1.5c-0.9-0.3-1.8-0.6-2.7-0.7c-1.9-0.2-4,0-6,0.5
		c-2,0.5-4,1.3-6,2.2c-2,0.9-3.9,2-5.7,3.1c-0.9,0.6-1.8,1.2-2.6,1.9c-0.4,0.3-0.8,0.7-1.2,1c-0.2,0.2-0.3,0.3-0.4,0.4
		c0,0,0,0,0-0.1c0-0.1,0-0.1,0,0c0,0.3,0.1,0.8,0.2,1.3c0.1,0.5,0.3,1,0.4,1.5c0.3,1,0.7,2.1,1.1,3.1c0.8,2.1,1.7,4.2,2.5,6.2
		C703.5,375.7,705.4,379.8,707.2,384z"/>
</g>
<g>
	<path class="st2" d="M679.1,316.3"/>
</g>
<g>
	<path class="st2" d="M680.1,317.2"/>
</g>
<g>
	<path class="st1" d="M679.4,315.7c2.5,3.8,4.5,7.8,6.3,12c0.4,1.1,0.8,2.1,1.2,3.3l0.4,1.6l0.5,1.6l1.9,6.3
		c1.3,4.2,2.5,8.5,3.8,12.7c0.6,2.1,1.2,4.3,1.9,6.4l0.5,1.6c0.2,0.5,0.4,1,0.5,1.6c0.4,1,0.8,2.1,1.3,3.1c-0.9-0.7-1.6-1.6-2.3-2.5
		c-0.7-0.9-1.2-1.9-1.8-2.9c-1.1-2-2.1-4-3-6.1c-1.8-4.1-3.3-8.3-4.6-12.6c-0.6-2.2-1.2-4.3-1.8-6.5l-0.4-1.7l-0.3-1.7
		c-0.2-1-0.4-2.1-0.7-3.1C681.6,324.4,680.3,320.1,679.4,315.7z"/>
</g>
<g>
	<path class="st1" d="M657.4,358.8c-1.7,1.2-3.4,2.6-4.9,4.1c-1.5,1.5-2.8,3.2-3.6,5.1c-0.9,1.9-1.2,4-1.2,6.1
		c0.1,2.1,0.7,4.1,1.5,6.1c1.7,3.8,4.4,7.1,7.3,10.2c2.9,3,6.1,5.7,9.5,8.2l10.2,7.6c3.4,2.5,6.8,5,10.2,7.4
		c1.7,1.2,3.5,2.3,5.2,3.2c1.8,0.9,3.5,1.6,5,1.4c1.5-0.1,3.3-1,5.1-2l2.8-1.5l1.5-0.7c0.4-0.2,0.9-0.4,1.3-0.7
		c0.8-0.5,1.6-1,2.3-1.6c0.7-0.6,1.3-1.2,1.7-2c0.5-0.7,0.8-1.5,1-2.3c0.2-0.8,0.3-1.7,0.4-2.6c0-3.7-1.3-7.7-3-11.4
		c-1.7-3.8-3.7-7.5-5.8-11.1c-2.1-3.6-4.4-7.2-6.7-10.7c-2.3-3.5-4.7-7-7.4-10.2c-2.7-3.2-5.6-6.3-9.3-8.2c-1.8-1-3.9-1.6-6-1.7
		c-2.1-0.1-4.2,0.3-6.2,1C664.4,354,660.8,356.3,657.4,358.8z M657.4,358.8c3.4-2.5,7-4.9,10.9-6.4c2-0.7,4.1-1.2,6.2-1.2
		c2.1,0,4.3,0.6,6.2,1.5c3.9,1.9,7.1,4.9,10,7.9c2.9,3.1,5.6,6.5,8.1,9.8c5.1,6.8,10,13.7,13.9,21.5c0.9,2,1.8,4,2.5,6.1
		c0.7,2.1,1.2,4.4,1.2,6.8c0,1.2-0.1,2.4-0.4,3.6c-0.3,1.2-0.8,2.4-1.5,3.5c-0.7,1.1-1.5,2-2.4,2.8c-0.9,0.8-1.9,1.5-2.9,2.1
		c-0.5,0.3-1,0.5-1.5,0.8l-1.4,0.7l-2.8,1.4c-1,0.5-1.9,1-3,1.4c-1.1,0.4-2.3,0.8-3.7,0.9c-1.3,0.1-2.7-0.2-3.8-0.6
		c-1.2-0.4-2.2-0.9-3.2-1.5c-2-1.1-3.7-2.4-5.4-3.6c-6.8-5.2-13.2-10.7-19.7-16.2c-3.2-2.8-6.3-5.7-9.1-9c-2.8-3.2-5.3-6.8-6.9-10.8
		c-0.8-2-1.3-4.1-1.3-6.3c0-2.1,0.5-4.3,1.4-6.2c0.9-1.9,2.2-3.6,3.7-5.1C654,361.3,655.7,360,657.4,358.8z"/>
</g>
<g>
	<path class="st1" d="M607.6,358.6c3.3,2.6,6.5,5.7,8.1,9.7c0.4,1,0.7,2,0.8,3.1c0.1,0.5,0.1,1.1,0.1,1.6c0,0.5,0,1.1,0,1.6
		c-0.2,2.1-0.8,4.2-1.7,6.1c-1.9,3.9-4.6,7.2-7.6,10.3c-1.5,1.5-2.9,3.1-4.6,4.5c-1.7,1.4-3.3,2.7-5,4c-6.7,5.2-13.3,10.5-20.4,15.3
		c-1.8,1.2-3.6,2.3-5.7,3.3c-1,0.5-2.2,0.9-3.4,1.1c-1.2,0.2-2.5,0.3-3.7,0.1c-1.3-0.1-2.6-0.6-3.6-1.1c-1.1-0.5-2-1.1-2.9-1.6
		l-2.7-1.6l-1.4-0.8c-0.5-0.3-1-0.6-1.5-0.9c-1.9-1.3-3.8-3-5-5.2c-0.6-1.1-1-2.3-1.3-3.5c-0.2-1.2-0.3-2.5-0.2-3.7
		c0.2-2.4,0.8-4.6,1.6-6.7c0.8-2.1,1.8-4,2.9-5.9c4.4-7.5,9.7-14.1,15.2-20.6c2.8-3.2,5.6-6.4,8.7-9.3c3.1-2.9,6.5-5.7,10.5-7.3
		c2-0.8,4.1-1.3,6.3-1.1c2.1,0.1,4.2,0.7,6.2,1.6C601,353.3,604.4,355.9,607.6,358.6z M607.6,358.6c-3.3-2.6-6.7-5.2-10.6-6.9
		c-1.9-0.8-4-1.4-6.1-1.4c-2.1-0.1-4.2,0.4-6.1,1.3c-3.8,1.7-6.9,4.7-9.8,7.7c-2.9,3.1-5.5,6.4-8,9.7c-2.5,3.4-5,6.8-7.3,10.3
		c-2.4,3.5-4.5,7.1-6.5,10.7c-1.9,3.6-3.4,7.5-3.7,11.2c0,0.9,0,1.8,0.2,2.7c0.2,0.8,0.5,1.6,0.9,2.4c0.4,0.7,1,1.4,1.6,2.1
		c0.7,0.6,1.4,1.2,2.2,1.7c0.4,0.3,0.8,0.5,1.2,0.8l1.4,0.8l2.7,1.6c1.8,1.1,3.5,2.1,5,2.2c0.9,0.1,1.8,0.1,2.6,0
		c0.9-0.2,1.7-0.4,2.6-0.8c1.8-0.7,3.6-1.8,5.3-2.8c3.5-2.2,7.1-4.5,10.6-6.9l10.5-7.1c1.7-1.2,3.5-2.4,5.2-3.6
		c0.8-0.6,1.6-1.3,2.4-2c0.8-0.7,1.6-1.4,2.3-2.1c3-2.9,6-6,7.9-9.7c1-1.9,1.7-3.9,1.9-5.9c0.2-2.1,0-4.2-0.8-6.2
		C614,364.4,610.9,361.3,607.6,358.6z"/>
</g>
<g>
	<path class="st1" d="M563.2,380c-4,0.2-8-0.3-12-1.1c-3.9-0.9-7.8-2.2-11.4-4.4c-1.8-1.1-3.5-2.4-5-4c-1.5-1.6-2.7-3.6-3.4-5.8
		c-0.7-2.2-0.7-4.6-0.3-6.8c0.4-2.2,1.2-4.2,2.2-6.1c1-1.9,2.2-3.6,3.4-5.3c1.3-1.6,2.7-3.2,4.2-4.6c1.6-1.4,3.4-2.7,5.5-3.5
		c2-0.9,4.3-1.3,6.5-1.2c2.2,0.1,4.3,0.7,6.2,1.6c1.9,0.8,3.7,1.9,5.4,3c3.4,2.2,6.5,4.7,9.8,6.8c-3.7-1.4-7.2-3.4-10.8-5.1
		c-3.5-1.7-7.2-3.1-10.7-3.1c-1.8,0.1-3.4,0.5-5,1.2c-1.6,0.8-3,1.8-4.3,3.1c-1.3,1.3-2.6,2.7-3.7,4.2c-1.1,1.6-2.2,3.1-3,4.7
		c-0.8,1.6-1.5,3.3-1.9,5c-0.3,1.7-0.3,3.4,0.1,5c0.8,3.3,3.4,6.1,6.4,8.2c3.1,2.2,6.6,3.8,10.3,5.1
		C555.4,378.3,559.3,379.3,563.2,380z"/>
</g>
<g>
	<path class="st1" d="M556.9,384.7c1.8-6.4,4-12.7,6.3-18.9c2.3-6.2,4.7-12.4,7.2-18.5c2.5-6.1,5.1-12.2,7.8-18.3l4.1-9.1
		c0.7-1.5,1.4-3,2-4.5c0.3-0.8,0.7-1.5,1-2.3c0.3-0.8,0.6-1.5,0.8-2.3c0,1.7-0.4,3.3-0.8,5c-0.4,1.6-0.8,3.2-1.2,4.9
		c-0.9,3.2-1.9,6.4-3,9.5c-2.1,6.3-4.5,12.5-7,18.7c-2.5,6.1-5.2,12.2-8,18.2C563.2,373,560.2,378.9,556.9,384.7z"/>
</g>
<g>
	<path class="st2" d="M551.1,341.5"/>
</g>
<g>
	<path class="st2" d="M552.4,340.8"/>
</g>
<g>
	<path class="st2" d="M553.5,340.1"/>
</g>
<g>
	<path class="st1" d="M550.6,341.1c3-2.3,5.8-4.7,8.5-7.2c2.7-2.5,5.2-5.1,7.8-7.7c1.2-1.4,2.5-2.7,3.7-4.1c1.3-1.3,2.4-2.8,3.6-4.2
		c1.2-1.4,2.4-2.8,3.6-4.2c1.2-1.4,2.4-2.9,3.8-4.3c-0.6,1.8-1.3,3.6-2.1,5.3c-0.9,1.7-1.7,3.4-2.7,5c-1,1.6-2.1,3.2-3.2,4.7
		c-0.6,0.8-1.2,1.5-1.8,2.2l-1.9,2.1c-2.6,2.8-5.5,5.3-8.7,7.5C557.8,338.5,554.4,340.3,550.6,341.1z"/>
</g>
<g>
	<path class="st1" d="M588,303.4c-1.9,0.8-3.7,1.9-5.5,3.1c-0.4,0.3-0.9,0.6-1.2,0.9c-0.2,0.2-0.4,0.3-0.5,0.5
		c-0.1,0.2-0.2,0.3-0.2,0.3c0,0,0.3,0.3,0.8,0.4c0.4,0.1,0.9,0.2,1.4,0.3c2,0.3,4.1,0.3,6-0.1c2-0.3,3.9-1,5.7-1.8
		c0.5-0.2,1-0.1,1.3,0.3l0.1,0.1c0.9,1.1,2,2,3.2,2.8c1.2,0.8,2.5,1.4,3.8,1.8c2.7,0.8,5.6,0.7,8.2-0.2c0.7-0.2,1.4,0,1.8,0.5
		l0.1,0.1c0.8,1,1.9,1.9,3.1,2.6c1.2,0.7,2.5,1.1,3.8,1.2c1.3,0.2,2.7,0,3.9-0.4c1.3-0.4,2.5-1,3.5-1.8c0.8-0.6,2-0.5,2.6,0.2
		l0.1,0.1c0.2,0.3,0.7,0.7,1,1c0.4,0.3,0.8,0.6,1.3,0.8c0.9,0.4,1.8,0.7,2.7,0.6c0.9,0,1.8-0.2,2.6-0.7c0.8-0.4,1.6-1.1,2.1-1.8l0,0
		c0.7-0.9,1.9-1.1,2.8-0.4c0.1,0,0.1,0.1,0.2,0.2c0.8,0.8,1.9,1.5,3,1.9c1.1,0.4,2.3,0.7,3.5,0.6c1.2,0,2.4-0.3,3.4-0.9
		c1.1-0.5,2.1-1.3,2.9-2.2l0.1-0.1c0.7-0.8,1.9-0.8,2.6-0.2c0.2,0.1,0.3,0.3,0.4,0.5c0.5,0.9,1.2,1.6,2.1,2c0.9,0.4,1.9,0.6,2.9,0.4
		c1.9-0.4,3.6-2.2,3.8-4.3l0-0.1c0.1-0.9,0.9-1.5,1.8-1.4c0.6,0.1,1,0.4,1.3,0.9c0.6,1.4,2.1,2.3,3.6,2.4c1.5,0,3.1-0.9,3.9-2.3
		l0.1-0.1c0.3-0.6,1.1-0.8,1.7-0.5c0.2,0.1,0.3,0.2,0.4,0.3c0.9,1.1,2.3,1.9,3.7,1.9c0.7,0,1.3-0.3,1.8-0.8c0.5-0.5,0.9-1.2,1-1.9
		l0.4,0.9c-4.4-3.2-9.5-5.3-15-6.3c2.8,0.1,5.6,0.6,8.2,1.4c2.7,0.8,5.3,2,7.7,3.4c0.3,0.2,0.4,0.5,0.4,0.8l0,0.1
		c-0.2,1-0.6,2-1.3,2.9c-0.7,0.9-1.9,1.4-3,1.6c-2.3,0.3-4.4-0.8-5.8-2.4l2.1-0.3c-0.5,1.2-1.4,2.2-2.4,2.9
		c-1.1,0.7-2.4,1.2-3.7,1.2c-2.7,0.1-5.3-1.4-6.5-3.8l3-0.6c-0.1,1.7-0.8,3.4-1.9,4.7c-1.1,1.3-2.7,2.3-4.4,2.7
		c-1.7,0.4-3.6,0.2-5.2-0.5c-1.6-0.7-3-1.9-3.9-3.4l3.1,0.3c-1.1,1.4-2.5,2.4-4,3.2c-1.5,0.8-3.3,1.3-5,1.3
		c-1.7,0.1-3.5-0.2-5.1-0.9c-1.6-0.6-3-1.5-4.4-2.8l3-0.2c-0.9,1.3-2.1,2.2-3.4,3c-1.4,0.7-2.9,1.1-4.5,1.1c-1.6,0-3.1-0.4-4.4-1.1
		c-0.7-0.3-1.3-0.7-1.9-1.2c-0.6-0.5-1.1-0.9-1.7-1.6l2.7,0.3c-1.5,1.1-3.1,1.9-4.9,2.4c-1.8,0.5-3.6,0.6-5.4,0.3
		c-1.8-0.2-3.6-0.9-5.1-1.8c-1.6-0.9-2.9-2.1-4-3.6l1.8,0.6c-3.3,1-6.9,0.9-10.1-0.2c-1.6-0.5-3.1-1.3-4.5-2.3
		c-1.3-1-2.5-2.2-3.5-3.5l1.4,0.4c-2,0.8-4.2,1.4-6.4,1.5c-2.2,0.2-4.4,0-6.5-0.5c-0.5-0.1-1.1-0.3-1.6-0.5
		c-0.3-0.1-0.5-0.3-0.8-0.5c-0.3-0.2-0.6-0.6-0.6-1.1c0-0.5,0.3-0.8,0.5-1c0.2-0.2,0.5-0.4,0.7-0.5c0.5-0.3,0.9-0.6,1.4-0.8
		C584,304.8,586,303.9,588,303.4z"/>
</g>
<g>
	<path class="st1" d="M604.9,393.7c1.2-1,2.8-1.4,4.5-1.1c0.8,0.2,1.6,0.6,2.3,1.2c0.7,0.6,1.2,1.2,1.6,2.1l-1.5-0.6
		c0.8-0.5,1.6-0.8,2.5-1c0.9-0.2,1.8-0.3,2.7-0.1c0.9,0.1,1.8,0.4,2.6,0.9c0.8,0.5,1.5,1,2.2,1.8l-2.5-0.2c0.7-0.8,1.6-1.4,2.7-1.8
		c1-0.4,2.2-0.6,3.3-0.4c1.1,0.1,2.2,0.5,3.1,1.1c0.5,0.3,0.9,0.6,1.3,1c0.4,0.4,0.7,0.7,1.1,1.3l-3-0.3c0.7-0.8,1.6-1.3,2.6-1.8
		c1-0.4,2-0.7,3.1-0.7c1.1,0,2.1,0.2,3.1,0.6c1,0.4,1.8,1,2.6,1.7l-2.7-0.1c1.7-1.5,4-2.4,6.3-2.4c1.1,0,2.3,0.2,3.3,0.6
		c1,0.4,2,1,2.8,1.7l-2.4,0.5c0.4-0.7,1-1.3,1.6-1.7c0.7-0.4,1.5-0.7,2.3-0.8c1.6-0.1,3.1,0.6,4.1,1.6l-1.6,0.1
		c1.2-1.2,2.8-2,4.5-2.3c1.6-0.3,3.3-0.1,4.7,0.5c-1.6-0.1-3.1,0.1-4.4,0.7c-0.7,0.3-1.3,0.6-1.8,1.1c-0.5,0.4-1,0.9-1.4,1.5
		c-0.3,0.4-0.9,0.5-1.4,0.2l0,0l-0.2-0.1c-0.7-0.5-1.5-0.7-2.2-0.5c-0.3,0.1-0.6,0.2-0.9,0.5c-0.2,0.2-0.5,0.5-0.6,0.8
		c-0.3,0.7-1.2,1.1-1.9,0.8c-0.1,0-0.2-0.1-0.3-0.1l-0.2-0.1c-0.6-0.4-1.3-0.7-2-0.9c-0.7-0.2-1.4-0.3-2.1-0.2
		c-1.4,0.1-2.7,0.7-3.8,1.6c-0.7,0.7-1.9,0.7-2.6,0l-0.1-0.1c-0.4-0.3-0.9-0.6-1.4-0.8c-0.5-0.2-1-0.3-1.5-0.3c-0.5,0-1,0.1-1.5,0.3
		c-0.5,0.2-1,0.5-1.3,0.9l-0.1,0.1c-0.8,0.7-2,0.7-2.7-0.1c-0.1-0.1-0.2-0.2-0.2-0.3c-0.1-0.1-0.3-0.4-0.5-0.6
		c-0.2-0.2-0.4-0.4-0.7-0.6c-0.5-0.3-1-0.6-1.5-0.6c-0.5-0.1-1.1-0.1-1.6,0.1c-0.5,0.2-1.1,0.5-1.5,0.8l-0.2,0.2
		c-0.7,0.6-1.6,0.5-2.2-0.2c0,0-0.1-0.1-0.1-0.1c-0.3-0.4-0.7-0.9-1.2-1.2c-0.5-0.3-1-0.6-1.6-0.8c-1.1-0.3-2.4-0.3-3.6,0.2
		l-0.2,0.1c-0.5,0.2-1.1,0-1.3-0.5c0,0,0-0.1,0-0.1c-0.1-0.5-0.4-1.1-0.8-1.6c-0.4-0.5-0.9-0.9-1.5-1.2
		C607.8,393.1,606.3,393.1,604.9,393.7z"/>
</g>
<g>
	<path class="st1" d="M598,395.5c0.2,1.1,0.7,2.1,1.3,3c0.6,0.9,1.4,1.6,2.3,2c0.9,0.5,1.9,0.7,2.8,0.6c0.9-0.1,1.9-0.4,2.7-0.8
		c0.5-0.3,1.2-0.1,1.5,0.4l0,0l0.1,0.2c0.3,0.7,0.9,1.4,1.5,1.9c0.6,0.5,1.3,0.9,2,1c0.7,0.2,1.5,0.2,2.2,0c0.7-0.2,1.4-0.5,2-0.9
		c0.7-0.5,1.7-0.4,2.3,0.3l0.1,0.1c0.4,0.5,1,1,1.6,1.3c0.6,0.4,1.2,0.6,1.9,0.6c0.6,0.1,1.3,0,1.9-0.2c0.6-0.2,1.2-0.5,1.7-0.9
		c0.7-0.6,1.7-0.6,2.3,0l0.1,0.1c1,0.7,2.2,1.1,3.4,1c0.6,0,1.2-0.2,1.7-0.4c0.6-0.2,1.1-0.6,1.5-1l0,0c0.8-0.8,2-0.7,2.8,0.1
		c0.5,0.5,1.2,1,1.9,1.3c0.7,0.3,1.5,0.4,2.3,0.3c0.8-0.1,1.5-0.3,2.2-0.7c0.7-0.4,1.4-1.1,1.8-1.6l0.1-0.1c0.5-0.7,1.6-0.9,2.4-0.4
		c0.1,0.1,0.3,0.2,0.4,0.4c0.5,0.7,1.4,1.2,2.3,1.2c0.4,0,0.9-0.2,1.2-0.5c0.4-0.3,0.7-0.8,0.9-1.2l0.1-0.2c0.3-0.6,1.1-0.9,1.7-0.6
		c0.1,0,0.1,0.1,0.2,0.1c1,0.7,2.1,1.2,3.2,1.2c1.1,0.1,2.3-0.3,3.3-1.1c1-0.7,1.9-1.8,2.5-3c0.6-1.2,1-2.5,1.2-3.9
		c0.1,1.4,0,2.9-0.4,4.3c-0.2,0.7-0.5,1.4-0.9,2.1c-0.4,0.6-0.9,1.3-1.4,1.8c-0.6,0.5-1.2,1-1.9,1.4c-0.7,0.4-1.6,0.6-2.4,0.7
		c-1.7,0.1-3.3-0.4-4.7-1.1l2-0.7c-0.3,1-0.8,1.7-1.6,2.5c-0.7,0.7-1.7,1.2-2.8,1.3c-1,0.2-2.1,0-3-0.4c-1-0.4-1.8-1-2.4-1.8
		l2.8-0.1c-0.4,0.6-0.8,1.1-1.3,1.6c-0.5,0.5-1,0.9-1.5,1.3c-1.1,0.8-2.4,1.3-3.8,1.5c-1.4,0.2-2.8,0-4.1-0.5
		c-1.3-0.5-2.4-1.2-3.4-2.2l2.8,0.1c-0.8,0.8-1.7,1.3-2.6,1.8c-1,0.5-2,0.7-3.1,0.8c-2.2,0.1-4.4-0.6-6-1.9l2.4,0
		c-0.9,0.7-2,1.2-3.1,1.5c-1.1,0.3-2.3,0.3-3.5,0.1c-1.2-0.2-2.3-0.7-3.2-1.3c-1-0.6-1.7-1.4-2.4-2.3l2.4,0.4
		c-1.1,0.7-2.2,1.1-3.4,1.3c-1.2,0.2-2.5,0.1-3.6-0.3c-1.1-0.4-2.2-1.1-3-1.9c-0.8-0.9-1.4-1.8-1.8-2.9l1.6,0.6
		c-1.2,0.5-2.5,0.7-3.8,0.6c-1.3-0.1-2.5-0.6-3.5-1.3C598.9,400.2,597.9,397.7,598,395.5z"/>
</g>
<g>
	<path class="st1" d="M687.6,184c2.8,0.7,5.4,2,7.8,3.6c2.4,1.6,4.5,3.6,6.4,5.8c1.9,2.2,3.4,4.7,4.6,7.3c1.2,2.6,2,5.4,2.1,8.3
		c-1.7-2.3-3.3-4.6-4.9-6.7c-1.6-2.2-3.2-4.3-4.9-6.3c-1.7-2-3.5-4-5.3-6C691.5,188,689.5,186.1,687.6,184z"/>
</g>
<g>
	<path class="st1" d="M701.4,201.2c3.2-0.2,6.4-0.8,9.6-1.4c1.6-0.3,3.1-0.7,4.6-1.2c1.5-0.5,3-1,4-1.8c0.5-0.4,1.1-0.9,1.5-1.4
		c0.2-0.3,0.4-0.5,0.6-0.7c0,0,0.1-0.1,0-0.1c0,0-0.1,0.2-0.1,0.2c0,0,0,0,0,0c0,0,0,0.2,0,0.3c0,0.1,0,0.1,0,0l-0.4-0.4
		c-0.3-0.3-0.7-0.8-1-1.4c-0.3-0.6-0.5-1.2-0.5-1.7c0-0.3-0.1-0.5-0.1-0.7l0-0.7c0-0.4,0-0.9-0.1-1.1c0-0.1,0-0.1,0-0.1c0,0,0,0,0,0
		c0,0,0,0,0,0c0,0,0.2,0.1,0,0.1c-0.1,0-0.4-0.1-0.8-0.1c-0.8,0-1.9-0.1-3-0.6c-0.5-0.2-1-0.5-1.5-0.8c-0.5-0.4-1-0.8-1.4-1.4
		c-0.7-1.2-0.9-2.2-1-2.9c-0.2-0.7-0.3-1.1-0.6-1.4c-0.1-0.1-0.1-0.2-0.2-0.2c-0.1-0.1-0.2-0.2-0.2-0.2c-0.1-0.1-0.1-0.1-0.2-0.1
		c-0.1,0-0.4,0-0.8,0.1c-0.4,0.1-1,0.1-1.7,0.1c-0.7-0.1-1.4-0.3-2-0.7c-0.5-0.4-0.9-0.8-1.3-1.2c-0.7-0.9-1.1-1.8-1.4-2.5
		c-0.1-0.3-0.3-0.7-0.3-0.7c0,0,0,0,0,0c0,0,0.1,0.1,0.1,0.1c0,0,0.1,0.1,0.1,0.1c0,0,0.1,0,0.1,0l0,0c0,0,0.1,0,0,0
		c-0.2,0-0.8,0.2-1.4,0.6c-1.1,0.8-2.1,1.9-3.1,3.1c-0.9,1.2-1.7,2.5-2.4,3.9c-0.3,0.7-0.6,1.4-0.9,2.2c-0.3,0.7-0.4,1.4-0.5,2.2
		c-0.2,1.5,0.1,3.2,0.1,4.8c-0.2-0.8-0.5-1.5-0.7-2.3c-0.2-0.8-0.4-1.6-0.5-2.5c-0.1-0.8,0-1.8,0.1-2.6c0.1-0.8,0.3-1.7,0.6-2.5
		c1-3.2,2.6-6.3,5.4-8.8c0.8-0.6,1.5-1.2,2.9-1.5c0.3-0.1,0.8,0,1.2,0.1c0.2,0,0.6,0.2,0.8,0.3c0.1,0.1,0.2,0.2,0.3,0.3
		c0.1,0.1,0.2,0.2,0.2,0.2c0.6,0.7,0.7,1.1,0.9,1.5c0.4,0.7,0.6,1.3,1,1.7c0.2,0.2,0.4,0.4,0.5,0.4c0.1,0.1,0.2,0.1,0.3,0.1
		c0.1,0,0.4,0,0.7-0.1c0.4-0.1,0.9-0.2,1.6-0.1c0.7,0,1.5,0.3,2.1,0.7c0.3,0.2,0.5,0.4,0.7,0.6c0.2,0.2,0.4,0.4,0.6,0.6
		c0.8,0.9,1.2,2.1,1.4,3c0.2,0.9,0.4,1.5,0.5,1.7c0.1,0.1,0.2,0.2,0.3,0.3c0.2,0.1,0.4,0.3,0.7,0.4c0.5,0.2,1,0.3,1.8,0.3
		c0.4,0,0.9,0.1,1.6,0.2c0.7,0.1,1.6,0.7,2.1,1.4c0.1,0.2,0.2,0.3,0.3,0.5c0.1,0.2,0.2,0.4,0.2,0.6c0.1,0.4,0.2,0.8,0.2,1.1
		c0,0.6,0,0.9,0,1.3l0,0.6c0,0.2,0,0.4,0,0.5c0,0.2,0.1,0.4,0.1,0.6c0.1,0.2,0.2,0.3,0.4,0.6l0.4,0.5c0.2,0.2,0.4,0.5,0.6,1
		c0.2,0.5,0.2,1.1,0.1,1.5l-0.1,0.3c0,0.1-0.2,0.5-0.2,0.5c-0.1,0.2-0.2,0.3-0.3,0.5c-0.3,0.4-0.7,0.8-1,1.1
		c-0.7,0.6-1.4,1.2-2.2,1.7c-1.7,0.9-3.4,1.3-5,1.7c-1.7,0.3-3.3,0.5-5,0.6c-1.7,0.1-3.3,0.1-4.9,0
		C704.7,201.7,703,201.6,701.4,201.2z"/>
</g>
<g>
	<path class="st1" d="M701.5,173.2c-0.6,3.4-0.6,6.8,0.2,9.8c0.2,0.8,0.4,1.5,0.7,2.2c0.3,0.8,0.6,1.5,0.9,2.2
		c0.7,1.4,1.5,2.5,2.5,3.4c0.5,0.4,1.1,0.8,1.6,1c0.6,0.3,1.2,0.4,1.9,0.5c1.4,0.2,3.3,0.2,5.1,0.5c3.6,0.6,7,2.1,9.7,4.3
		c-3.4-0.8-6.7-1.3-9.9-1.2c-1.6,0-3.2,0.2-5.2,0.2c-1,0-2.1-0.3-3.1-0.7c-1-0.4-1.9-1-2.7-1.6c-1.6-1.4-2.7-3.1-3.4-4.9
		c-0.3-0.9-0.6-1.8-0.8-2.6c-0.1-0.4-0.2-0.9-0.3-1.4c-0.1-0.5-0.1-0.9-0.2-1.4C698.3,179.7,699.3,176,701.5,173.2z"/>
</g>
<g>
	<path class="st1" d="M701.7,190.8c-0.6-2.2-0.8-4.4-0.6-6.8c0.1-0.6,0.2-1.2,0.5-2l0.2-0.3c0.1-0.1,0.2-0.2,0.3-0.4
		c0.1-0.1,0.3-0.3,0.4-0.4c0.2-0.1,0.4-0.3,0.7-0.4c0.6-0.2,1.4-0.1,1.8,0.2c0.4,0.3,0.7,0.5,0.8,0.7c0.3,0.4,0.5,0.6,0.6,0.9
		c0.2,0.2,0.3,0.4,0.4,0.6c0.3,0.4,0.5,0.7,0.8,0.9c0.5,0.5,1.1,0.8,1.7,0.9c0.3,0.1,0.9,0.1,1.7,0.2c0.8,0.2,1.5,0.5,2,0.9
		c1.2,0.9,1.8,2.1,2.2,3.2c0.3,1.2,0.5,2.3,0.3,3.5c-0.7-0.9-1.3-1.8-2-2.5c-0.7-0.7-1.4-1.3-2.1-1.5c-0.3-0.1-0.7-0.2-1-0.2
		c-0.3,0-0.8,0.1-1.5,0c-1.6-0.1-3-0.8-4-1.8c-0.5-0.5-1-1.1-1.3-1.6c-0.2-0.3-0.3-0.5-0.4-0.8c-0.1-0.2-0.2-0.4-0.3-0.5
		c0,0,0,0,0.2,0.1c0.1,0.1,0.3,0.1,0.5,0.2c0.2,0,0.4,0,0.6-0.1c0.2-0.1,0.3-0.1,0.4-0.2c0.1,0,0.1-0.1,0.1-0.1c0,0,0,0,0,0
		c0,0,0,0,0,0c-0.2,0.2-0.4,0.6-0.6,1C703.4,186.7,702.8,188.8,701.7,190.8z"/>
</g>
</svg>
