<?xml version="1.0" encoding="utf-8"?>
<!-- Generator: Adobe Illustrator 25.2.0, SVG Export Plug-In . SVG Version: 6.00 Build 0)  -->
<svg version="1.1" id="Layer_1" xmlns="http://www.w3.org/2000/svg" xmlns:xlink="http://www.w3.org/1999/xlink" x="0px" y="0px"
	 viewBox="0 0 792 612" style="enable-background:new 0 0 792 612;" xml:space="preserve">
<style type="text/css">
	.st0{fill:none;}
	.st1{fill:#29D9C2;}
	.st2{fill:#F0F09C;}
	.st3{fill:#01A2A6;}
	.st4{fill:#BDF271;}
	.st5{fill:url(#SVGID_1_);}
</style>
<pattern  width="46.36" height="27" patternUnits="userSpaceOnUse" id="New_Pattern" viewBox="9.55 -39.05 46.36 27" style="overflow:visible;">
	<g>
		<rect x="9.55" y="-39.05" class="st0" width="46.36" height="27"/>
		<g>
			<g>
				<g>
					<polygon class="st1" points="40.18,-34.47 33.76,-48.14 37.85,-50.06 41.31,-42.69 					"/>
				</g>
				<polygon class="st2" points="40.18,-34.47 41.31,-42.69 42.15,-48.78 47.04,-51.08 46.36,-46.17 45.06,-36.77 				"/>
			</g>
		</g>
		<g>
			<g>
				<g>
					<polygon class="st3" points="28.18,-38.44 28.21,-46.58 32.73,-46.57 32.68,-31.47 					"/>
				</g>
				<g>
					<polygon class="st1" points="11.53,-31.54 11.59,-46.64 16.11,-46.62 16.08,-38.48 					"/>
				</g>
				<polygon class="st4" points="22.14,-39.46 24.85,-43.6 28.18,-38.44 32.68,-31.47 32.68,-31.46 27.29,-31.48 				"/>
				<polygon class="st2" points="11.53,-31.54 16.08,-38.48 19.45,-43.62 24.85,-43.6 22.14,-39.46 16.93,-31.52 				"/>
			</g>
			<g>
				<g>
					<polygon class="st1" points="15.1,-42.1 15.1,-27 10.57,-27 10.57,-35.14 					"/>
				</g>
				<polygon class="st2" points="15.1,-42.1 10.57,-35.14 7.22,-29.99 1.83,-29.99 4.53,-34.14 9.7,-42.1 				"/>
			</g>
			<g>
				<g>
					<polygon class="st3" points="29.08,-34.34 25.62,-41.71 29.72,-43.63 36.14,-29.96 					"/>
					<line class="st3" x1="18.97" y1="-35.28" x2="18.98" y2="-35.28"/>
				</g>
				<g>
					<polygon class="st1" points="16.99,-20.97 10.57,-34.64 14.67,-36.56 18.13,-29.19 					"/>
					<line class="st1" x1="18.97" y1="-35.28" x2="18.98" y2="-35.28"/>
				</g>
				<polygon class="st4" points="23.18,-32.67 23.86,-37.58 29.08,-34.34 36.14,-29.96 36.14,-29.96 31.25,-27.67 				"/>
				<polygon class="st2" points="16.99,-20.97 18.13,-29.19 18.97,-35.28 23.86,-37.58 23.18,-32.67 21.88,-23.27 				"/>
			</g>
		</g>
		<g>
			<g>
				<g>
					<polygon class="st3" points="37.26,-39.64 37.26,-31.5 32.73,-31.5 32.73,-46.6 					"/>
					<line class="st3" x1="46" y1="-34.49" x2="46" y2="-34.49"/>
				</g>
				<g>
					<polygon class="st1" points="53.88,-46.6 53.88,-31.5 49.36,-31.5 49.36,-39.64 					"/>
					<line class="st1" x1="46" y1="-34.49" x2="46" y2="-34.49"/>
				</g>
				<polygon class="st4" points="43.31,-38.64 40.61,-34.49 37.26,-39.64 32.73,-46.6 32.73,-46.6 38.13,-46.6 				"/>
				<polygon class="st2" points="53.88,-46.6 49.36,-39.64 46.01,-34.49 40.61,-34.49 43.31,-38.64 48.48,-46.6 				"/>
			</g>
			<g>
				<g>
					<polygon class="st3" points="44.84,-35.14 44.84,-27 40.31,-27 40.31,-42.1 					"/>
					<line class="st3" x1="53.58" y1="-29.99" x2="53.58" y2="-29.99"/>
				</g>
				<g>
					<line class="st1" x1="53.58" y1="-29.99" x2="53.58" y2="-29.99"/>
				</g>
				<polygon class="st4" points="50.89,-34.14 48.19,-29.99 44.84,-35.14 40.31,-42.1 40.31,-42.1 45.71,-42.1 				"/>
				<polygon class="st2" points="61.46,-42.1 56.94,-35.14 53.59,-29.99 48.19,-29.99 50.89,-34.14 56.06,-42.1 				"/>
			</g>
		</g>
		<g>
			<g>
				<g>
					<polygon class="st3" points="5.9,-20.84 2.44,-28.21 6.54,-30.13 12.95,-16.46 					"/>
				</g>
				<polygon class="st4" points="0,-19.17 0.68,-24.08 5.9,-20.84 12.95,-16.46 12.96,-16.46 8.07,-14.17 				"/>
			</g>
		</g>
		<g>
			<g>
				<g>
					<polygon class="st3" points="14.08,-26.14 14.08,-18 9.55,-18 9.55,-33.1 					"/>
					<line class="st3" x1="22.82" y1="-20.99" x2="22.82" y2="-20.99"/>
				</g>
				<g>
					<polygon class="st1" points="30.7,-33.1 30.7,-18 26.18,-18 26.18,-26.14 					"/>
					<line class="st1" x1="22.82" y1="-20.99" x2="22.82" y2="-20.99"/>
				</g>
				<polygon class="st4" points="20.13,-25.14 17.43,-20.99 14.08,-26.14 9.55,-33.1 9.55,-33.1 14.95,-33.1 				"/>
				<polygon class="st2" points="30.7,-33.1 26.18,-26.14 22.83,-20.99 17.43,-20.99 20.13,-25.14 25.3,-33.1 				"/>
			</g>
			<g>
				<g>
					<polygon class="st3" points="51.36,-24.94 51.39,-33.08 55.91,-33.07 55.86,-17.97 					"/>
					<line class="st3" x1="42.63" y1="-30.12" x2="42.63" y2="-30.12"/>
				</g>
				<g>
					<polygon class="st1" points="34.72,-18.04 34.77,-33.14 39.29,-33.12 39.26,-24.98 					"/>
					<line class="st1" x1="42.63" y1="-30.12" x2="42.63" y2="-30.12"/>
				</g>
				<polygon class="st4" points="45.32,-25.96 48.03,-30.1 51.36,-24.94 55.86,-17.97 55.86,-17.96 50.47,-17.98 				"/>
				<polygon class="st2" points="34.72,-18.04 39.26,-24.98 42.63,-30.12 48.03,-30.1 45.32,-25.96 40.11,-18.02 				"/>
			</g>
			<g>
				<g>
					<polygon class="st3" points="21.66,-21.64 21.66,-13.5 17.13,-13.5 17.13,-28.6 					"/>
					<line class="st3" x1="30.4" y1="-16.49" x2="30.4" y2="-16.49"/>
				</g>
				<g>
					<polygon class="st1" points="38.28,-28.6 38.28,-13.5 33.76,-13.5 33.76,-21.64 					"/>
					<line class="st1" x1="30.4" y1="-16.49" x2="30.4" y2="-16.49"/>
				</g>
				<polygon class="st4" points="27.71,-20.64 25.01,-16.49 21.66,-21.64 17.13,-28.6 17.13,-28.6 22.53,-28.6 				"/>
				<polygon class="st2" points="38.28,-28.6 33.76,-21.64 30.41,-16.49 25.01,-16.49 27.71,-20.64 32.88,-28.6 				"/>
			</g>
			<g>
				<g>
					<polygon class="st3" points="52.26,-20.84 48.8,-28.21 52.9,-30.13 59.32,-16.46 					"/>
					<line class="st3" x1="42.16" y1="-21.78" x2="42.16" y2="-21.78"/>
				</g>
				<g>
					<polygon class="st1" points="40.18,-7.47 33.76,-21.14 37.85,-23.06 41.31,-15.69 					"/>
					<line class="st1" x1="42.16" y1="-21.78" x2="42.16" y2="-21.78"/>
				</g>
				<polygon class="st4" points="46.36,-19.17 47.04,-24.08 52.26,-20.84 59.32,-16.46 59.32,-16.46 54.43,-14.17 				"/>
				<polygon class="st2" points="40.18,-7.47 41.31,-15.69 42.15,-21.78 47.04,-24.08 46.36,-19.17 45.06,-9.77 				"/>
			</g>
		</g>
		<g>
			<g>
				<g>
					<polygon class="st3" points="28.18,-11.44 28.21,-19.58 32.73,-19.57 32.68,-4.47 					"/>
					<line class="st3" x1="19.45" y1="-16.62" x2="19.45" y2="-16.62"/>
				</g>
				<g>
					<polygon class="st1" points="11.53,-4.54 11.59,-19.64 16.11,-19.62 16.08,-11.48 					"/>
					<line class="st1" x1="19.45" y1="-16.62" x2="19.45" y2="-16.62"/>
				</g>
				<polygon class="st4" points="22.14,-12.46 24.85,-16.6 28.18,-11.44 32.68,-4.47 32.68,-4.46 27.29,-4.48 				"/>
				<polygon class="st2" points="11.53,-4.54 16.08,-11.48 19.45,-16.62 24.85,-16.6 22.14,-12.46 16.93,-4.52 				"/>
			</g>
			<g>
				<g>
					<polygon class="st1" points="15.1,-15.1 15.1,0 10.57,0 10.57,-8.14 					"/>
				</g>
				<polygon class="st2" points="15.1,-15.1 10.57,-8.14 7.22,-2.99 1.83,-2.99 4.53,-7.14 9.7,-15.1 				"/>
			</g>
			<g>
				<g>
					<polygon class="st3" points="29.08,-7.34 25.62,-14.71 29.72,-16.63 36.14,-2.96 					"/>
				</g>
			</g>
		</g>
		<g>
			<g>
				<g>
					<polygon class="st3" points="37.26,-12.64 37.26,-4.5 32.73,-4.5 32.73,-19.6 					"/>
				</g>
				<g>
					<polygon class="st1" points="53.88,-19.6 53.88,-4.5 49.36,-4.5 49.36,-12.64 					"/>
				</g>
				<polygon class="st4" points="43.31,-11.64 40.61,-7.49 37.26,-12.64 32.73,-19.6 32.73,-19.6 38.13,-19.6 				"/>
				<polygon class="st2" points="53.88,-19.6 49.36,-12.64 46.01,-7.49 40.61,-7.49 43.31,-11.64 48.48,-19.6 				"/>
			</g>
			<g>
				<g>
					<polygon class="st3" points="44.84,-8.14 44.84,0 40.31,0 40.31,-15.1 					"/>
				</g>
				<polygon class="st4" points="50.89,-7.14 48.19,-2.99 44.84,-8.14 40.31,-15.1 40.31,-15.1 45.71,-15.1 				"/>
				<polygon class="st2" points="61.46,-15.1 56.94,-8.14 53.59,-2.99 48.19,-2.99 50.89,-7.14 56.06,-15.1 				"/>
			</g>
		</g>
	</g>
</pattern>
<g>
	<g>
		<g>
			<g>
				<polygon class="st3" points="-180.06,115 -180.06,119.35 -184.14,119.35 -184.14,111.27 				"/>
			</g>
			<g>
				<line class="st3" x1="-172.18" y1="117.76" x2="-172.18" y2="117.75"/>
			</g>
		</g>
		<g>
			<g>
				<polygon class="st1" points="-165.07,111.27 -165.07,119.35 -169.15,119.35 -169.15,115 				"/>
			</g>
			<g>
				<line class="st1" x1="-172.18" y1="117.76" x2="-172.18" y2="117.75"/>
			</g>
		</g>
		<polygon class="st4" points="-174.61,115.53 -177.04,117.75 -180.06,115 -184.14,111.27 -184.14,111.27 -179.28,111.27 		"/>
		<polygon class="st2" points="-165.07,111.27 -169.15,115 -172.17,117.75 -177.04,117.75 -174.61,115.53 -169.94,111.27 		"/>
	</g>
	<g>
		<g>
			<g>
				<polygon class="st3" points="-146.44,115.64 -146.42,111.28 -142.33,111.29 -142.38,119.37 				"/>
			</g>
			<g>
				<line class="st3" x1="-154.31" y1="112.87" x2="-154.31" y2="112.87"/>
			</g>
		</g>
		<g>
			<g>
				<polygon class="st1" points="-161.45,119.34 -161.41,111.25 -157.33,111.26 -157.35,115.62 				"/>
			</g>
			<g>
				<line class="st1" x1="-154.31" y1="112.87" x2="-154.31" y2="112.87"/>
			</g>
		</g>
		<polygon class="st4" points="-151.89,115.09 -149.45,112.88 -146.44,115.64 -142.38,119.37 -142.38,119.37 -147.25,119.36 		"/>
		<polygon class="st2" points="-161.45,119.34 -157.35,115.62 -154.31,112.87 -149.45,112.88 -151.89,115.09 -156.58,119.35 		"/>
	</g>
</g>
<pattern  id="SVGID_1_" xlink:href="#New_Pattern" patternTransform="matrix(2.0226 0 0 1.8543 7972.6616 6197.2725)">
</pattern>
<rect class="st5" width="792" height="612"/>
</svg>
