<?xml version="1.0" encoding="utf-8"?>
<!-- Generator: Adobe Illustrator 25.2.0, SVG Export Plug-In . SVG Version: 6.00 Build 0)  -->
<svg version="1.1" id="Layer_1" xmlns="http://www.w3.org/2000/svg" xmlns:xlink="http://www.w3.org/1999/xlink" x="0px" y="0px"
	 viewBox="0 0 792 612" style="enable-background:new 0 0 792 612;" xml:space="preserve">
<style type="text/css">
	.st0{fill:#85CFFF;}
	.st1{fill:#C49A6C;}
	.st2{fill:none;}
	.st3{fill:#FFF200;}
	.st4{fill:#ED1C24;}
	.st5{fill:#FFFFFF;}
</style>
<rect x="72.8" y="73.52" class="st0" width="672.84" height="424.44"/>
<path class="st1" d="M166.94,183.14c-5.33-5.72-22.29-12.32-30.78-9.36c-10.16,3.54-1.87,23.17-15.48,24.48
	c-20.52,1.98-20.66,13.39-19.08,23.76c4.14,27.18,52.38,43.02,69.84,15.48C190.72,207.1,171.8,188.36,166.94,183.14z M149.45,208.94
	c-5.22,0-9.45-4.23-9.45-9.45c0-5.22,4.23-9.45,9.45-9.45c5.22,0,9.45,4.23,9.45,9.45C158.9,204.71,154.67,208.94,149.45,208.94z"/>
<circle class="st2" cx="149.45" cy="199.49" r="9.45"/>
<circle class="st2" cx="149.45" cy="199.49" r="9.45"/>
<polygon class="st3" points="343.7,175.22 343.52,185.84 313.82,216.44 313.46,249.74 302.12,238.58 301.58,216.62 271.88,186.74 
	271.7,174.68 "/>
<path class="st4" d="M502.46,198.26c-5.04-20.88-28.75-35.4-32.9-37.67c-0.38-0.2-0.58-0.31-0.58-0.31s6.84,24.66,2.52,38.88
	c-2.49,8.21-12.6,21.42-19.8,27.54c-7.2,6.12-7.92,11.7-6.66,17.1c1.26,5.4,16.74,26.1,40.14,17.64
	C508.58,252.98,507.91,220.84,502.46,198.26z M481.13,257.3c-10.56,1.92-19.84-6.95-18.09-20.97c1.8-14.4,8.91-19.8,8.91-19.8
	s-0.72,13.05,3.78,18.18s10.52,4.13,13.41,8.19C492.02,246.95,491.78,255.36,481.13,257.3z"/>
<path class="st2" d="M481.13,257.3c-10.56,1.92-19.84-6.95-18.09-20.97c1.8-14.4,8.91-19.8,8.91-19.8s-0.72,13.05,3.78,18.18
	s10.52,4.13,13.41,8.19C492.02,246.95,491.78,255.36,481.13,257.3z"/>
<path class="st2" d="M481.13,257.3c-10.56,1.92-19.84-6.95-18.09-20.97c1.8-14.4,8.91-19.8,8.91-19.8s-0.72,13.05,3.78,18.18
	s10.52,4.13,13.41,8.19C492.02,246.95,491.78,255.36,481.13,257.3z"/>
<path class="st4" d="M659.96,190.16c0,5.31-2.4,10.06-6.17,13.22v0.01c-3,2.52-6.88,4.05-11.11,4.05c-4.49,0-8.58-1.72-11.66-4.52
	c-3.45-3.17-5.62-7.71-5.62-12.76c0-9.54,7.74-17.28,17.28-17.28S659.96,180.62,659.96,190.16z"/>
<path class="st3" d="M678.39,223.26l-0.61,19.46l-2.94,0.01l-63.96,0.16l-4.02,0.01l-0.04-19.58c0,0-0.41-1.84,1.44-3.73
	c2.13-2.19,5.58-1.8,5.58-1.8l17.32,0.09l-0.14-14.96c3.08,2.8,7.17,4.52,11.66,4.52c4.23,0,8.11-1.53,11.11-4.05l-0.13,15.03
	l19.28-0.2c0,0,1.86-0.15,3.94,1.64C678.5,221.26,678.39,223.26,678.39,223.26z"/>
<path class="st2" d="M702.08,194.12"/>
<path class="st2" d="M610.78,237.23"/>
<path class="st1" d="M674.84,242.73v3.29c0,3.41-2.77,6.18-6.18,6.18h-51.67c-3.37,0-6.11-2.74-6.11-6.11v-3.2L674.84,242.73z"/>
<polygon class="st1" points="342.98,406.88 340.46,436.94 314.36,422.18 "/>
<polygon class="st4" points="342.98,406.88 314.36,422.18 288.44,372.5 317.06,357.74 "/>
<path class="st5" d="M317.06,357.74l-28.62,14.76c-4.5-10.8-4.16-20.02,4.86-24.66C299.6,344.6,310.4,343.52,317.06,357.74z"/>
<path class="st3" d="M517.88,346.04c-2.16-1.56-6.24-0.48-9.24,0.6c-3,1.08-8.88,4.32-18.6,12.12c-9.72,7.8-17.76,20.76-17.76,20.76
	l-6.84-6.57c0,0-0.39-0.81-2.37-1.2s-3.72,1.77-3.72,1.77l-4.59,4.56l32.35,32.67c0,0,4.19-3.83,5.36-4.95
	c1.17-1.13,0.67-2.97,0.54-4.18c-0.14-1.22-1.8-2.93-1.8-2.93l-4.77-4.89c0,0,17.76-14.16,21.48-18.48
	c3.72-4.32,11.52-18.48,12.48-21.72C521.36,350.36,520.04,347.6,517.88,346.04z M506.52,362.62c-1.93,0-3.5-1.56-3.5-3.5
	c0-1.93,1.57-3.49,3.5-3.49s3.5,1.56,3.5,3.49C510.02,361.06,508.45,362.62,506.52,362.62z"/>
<path class="st2" d="M510.02,359.12c0,1.94-1.57,3.5-3.5,3.5s-3.5-1.56-3.5-3.5c0-1.93,1.57-3.49,3.5-3.49
	S510.02,357.19,510.02,359.12z"/>
<path class="st1" d="M480.8,416.84c0,0-7.27,7.16-9.72,10.56c-2.79,3.88-5.94,10.27-7.26,15.12c-1.37,5.02-17.82-10.08-23.7-16.2
	s-16.87-22.36-17.49-23.94c-0.63-1.62-1.21-2.63,2.73-3.18c4.08-0.57,11.01-3.7,13.92-6c6.84-5.4,9.6-8.76,9.6-8.76L480.8,416.84z"
	/>
<path class="st2" d="M510.02,359.12c0,1.94-1.57,3.5-3.5,3.5s-3.5-1.56-3.5-3.5c0-1.93,1.57-3.49,3.5-3.49
	S510.02,357.19,510.02,359.12z"/>
</svg>
