<?xml version="1.0" encoding="UTF-8" standalone="no"?>
<!-- Created with Inkscape (http://www.inkscape.org/) -->

<svg
   version="1.1"
   id="svg9"
   xml:space="preserve"
   width="1056"
   height="816"
   viewBox="0 0 1056 816"
   sodipodi:docname="PENG2.ai"
   inkscape:version="1.1 (c68e22c387, 2021-05-23)"
   xmlns:inkscape="http://www.inkscape.org/namespaces/inkscape"
   xmlns:sodipodi="http://sodipodi.sourceforge.net/DTD/sodipodi-0.dtd"
   xmlns="http://www.w3.org/2000/svg"
   xmlns:svg="http://www.w3.org/2000/svg"><defs
     id="defs13"><clipPath
       clipPathUnits="userSpaceOnUse"
       id="clipPath25"><path
         d="M 0,612 H 792 V 0 H 0 Z"
         id="path23" /></clipPath></defs><sodipodi:namedview
     id="namedview11"
     pagecolor="#ffffff"
     bordercolor="#999999"
     borderopacity="1"
     inkscape:pageshadow="0"
     inkscape:pageopacity="0"
     inkscape:pagecheckerboard="0"
     showgrid="false"
     inkscape:zoom="0.43067656"
     inkscape:cx="971.72691"
     inkscape:cy="326.2309"
     inkscape:window-width="1366"
     inkscape:window-height="705"
     inkscape:window-x="-8"
     inkscape:window-y="-8"
     inkscape:window-maximized="1"
     inkscape:current-layer="g15" /><g
     id="g15"
     inkscape:groupmode="layer"
     inkscape:label="PENG2"
     transform="matrix(1.3333333,0,0,-1.3333333,0,816)"><path
       d="M 0,0 H 792 V 612 H 0 Z"
       style="fill:#f1f2f2;fill-opacity:1;fill-rule:nonzero;stroke:none"
       id="path17" /><g
       id="g19"><g
         id="g21"
         clip-path="url(#clipPath25)"><g
           id="g27"
           transform="translate(381.125,255.9043)"><path
             d="m 0,0 h -22.25 v 20.346 h 8.288 C -6.251,20.346 0,14.095 0,6.384 Z"
             style="fill:#f15a29;fill-opacity:1;fill-rule:nonzero;stroke:none"
             id="path29" /></g><g
           id="g31"
           transform="translate(341.6646,435.2197)"><path
             d="M 0,0 C -6.244,2.864 -13.203,4.445 -20.533,4.399 -47.375,4.232 -68.794,-18.166 -68.794,-45.009 v -114.809 c 0,-1.113 -0.66,-2.119 -1.679,-2.565 l -30.042,-13.127 c -1.696,-0.744 -2.517,-2.177 -2.598,-3.665 -0.001,-0.019 -0.017,-0.035 -0.036,-0.035 l -3.506,0.01 c -4.699,0.011 -6.04,6.45 -1.729,8.341 l 28.09,12.273 c 2.205,0.964 3.629,3.142 3.629,5.547 v 112.695 c 0,27.268 22.102,49.825 49.367,49.388 C -17.118,8.88 -7.701,5.588 0.038,0.066 0.076,0.039 0.042,-0.02 0,0"
             style="fill:#58595b;fill-opacity:1;fill-rule:nonzero;stroke:none"
             id="path33" /></g><g
           id="g35"
           transform="translate(362.1299,395.7002)"><path
             d="m 0,0 v -102.73 c 0,-20.473 -16.597,-37.07 -37.07,-37.07 h -49.84 l -10.22,0.029 -26.45,0.081 c 0.07,1.5 0.89,2.95 2.6,3.7 l 26.708,11.67 c 3.044,1.33 5.012,4.337 5.012,7.659 V -5.452 c 0,26.823 21.403,49.184 48.225,49.37 7.487,0.053 14.587,-1.592 20.935,-4.568 2.09,-1.5 4.06,-3.18 5.88,-5 C -5.43,25.56 0,13.42 0,0"
             style="fill:#231f20;fill-opacity:1;fill-rule:nonzero;stroke:none"
             id="path37" /></g><g
           id="g39"
           transform="translate(275.2197,255.9004)"><path
             d="M 0,0 H -10.22 V 0.029 Z"
             style="fill:#231f20;fill-opacity:1;fill-rule:nonzero;stroke:none"
             id="path41" /></g><g
           id="g43"
           transform="translate(362.1299,380.0498)"><path
             d="m 0,0 v -124.149 h -58.63 v 86.719 c 0,8.049 2.54,15.489 6.856,21.591 0.882,1.247 0.274,2.996 -1.177,3.476 -13.664,4.523 -23.296,17.884 -22.111,33.326 1.218,15.857 14.106,28.646 29.97,29.756 18.955,1.325 34.742,-13.658 34.742,-32.319 0,-5.366 -1.309,-10.43 -3.621,-14.891 C -14.799,1.91 -13.688,0 -11.887,0 Z"
             style="fill:#ffffff;fill-opacity:1;fill-rule:nonzero;stroke:none"
             id="path45" /></g><g
           id="g47"
           transform="translate(374.1401,378.71)"><path
             d="m 0,0 -20.27,1.56 c -1.71,0.13 -2.83,1.85 -2.27,3.47 l 3.94,11.3 c 0.56,1.62 2.51,2.27 3.93,1.31 l 6.99,-4.72 z"
             style="fill:#231f20;fill-opacity:1;fill-rule:nonzero;stroke:none"
             id="path49" /></g><g
           id="g51"
           transform="translate(365.75,255.9043)"><path
             d="m 0,0 h -22.25 v 20.346 h 8.288 C -6.251,20.346 0,14.095 0,6.384 Z"
             style="fill:#f7941d;fill-opacity:1;fill-rule:nonzero;stroke:none"
             id="path53" /></g><g
           id="g55"
           transform="translate(275.25,409.75)"><path
             d="M 0,0 -22,10.75"
             style="fill:none;stroke:#231f20;stroke-width:4;stroke-linecap:round;stroke-linejoin:miter;stroke-miterlimit:10;stroke-dasharray:none;stroke-opacity:1"
             id="path57" /></g><g
           id="g59"
           transform="translate(277.5,417.25)"><path
             d="M 0,0 -18.75,13.6"
             style="fill:none;stroke:#231f20;stroke-width:4;stroke-linecap:round;stroke-linejoin:miter;stroke-miterlimit:10;stroke-dasharray:none;stroke-opacity:1"
             id="path61" /></g><g
           id="g63"
           transform="translate(338.3452,354.5503)"><path
             d="m 0,0 -11.481,-8.341 4.385,-13.497 H 7.096 l 4.385,13.497 z"
             style="fill:#231f20;fill-opacity:1;fill-rule:nonzero;stroke:none"
             id="path65" /></g><g
           id="g67"
           transform="translate(338.3452,351.4634)"><path
             d="m 0,0 2.545,-5.156 5.69,-0.827 -4.117,-4.014 0.971,-5.668 -5.089,2.676 -5.09,-2.676 0.972,5.668 -4.117,4.014 5.69,0.827 z"
             style="fill:#ffffff;fill-opacity:1;fill-rule:nonzero;stroke:none"
             id="path69" /></g><path
           d="M 0,0 H 399.762 V 255.904 H 0 Z"
           style="fill:#bcbec0;fill-opacity:1;fill-rule:nonzero;stroke:none"
           id="path71" /><g
           id="g73"
           transform="translate(460.5195)"><path
             d="m 0,0 h -60.76 v 230.99 h 18.281 z"
             style="fill:#27c3e1;fill-opacity:1;fill-rule:nonzero;stroke:none"
             id="path75" /></g><g
           id="g77"
           transform="translate(792,230.9902)"><path
             d="M 0,0 V -230.99 H -331.48 L -373.96,0 Z"
             style="fill:#4ae3ff;fill-opacity:1;fill-rule:nonzero;stroke:none"
             id="path79" /></g><g
           id="g81"
           transform="translate(482.874,186.7812)"><path
             d="m 0,0 c 0,-5.395 -4.373,-9.768 -9.768,-9.768 -5.395,0 -9.768,4.373 -9.768,9.768 0,5.396 4.373,9.769 9.768,9.769 C -4.373,9.769 0,5.396 0,0"
             style="fill:#ffffff;fill-opacity:1;fill-rule:nonzero;stroke:none"
             id="path83" /></g><g
           id="g85"
           transform="translate(511.123,178.3428)"><path
             d="m 0,0 c 0,-4.084 -3.312,-7.396 -7.396,-7.396 -4.084,0 -7.396,3.312 -7.396,7.396 0,4.085 3.312,7.396 7.396,7.396 C -3.312,7.396 0,4.085 0,0"
             style="fill:#ffffff;fill-opacity:1;fill-rule:nonzero;stroke:none"
             id="path87" /></g><g
           id="g89"
           transform="translate(487,161.25)"><path
             d="m 0,0 c 0,-2.762 -2.238,-5 -5,-5 -2.762,0 -5,2.238 -5,5 0,2.762 2.238,5 5,5 2.762,0 5,-2.238 5,-5"
             style="fill:#ffffff;fill-opacity:1;fill-rule:nonzero;stroke:none"
             id="path91" /></g><g
           id="g93"
           transform="translate(507.75,152.625)"><path
             d="m 0,0 c 0,-2.002 -1.623,-3.625 -3.625,-3.625 -2.002,0 -3.625,1.623 -3.625,3.625 0,2.002 1.623,3.625 3.625,3.625 C -1.623,3.625 0,2.002 0,0"
             style="fill:#ffffff;fill-opacity:1;fill-rule:nonzero;stroke:none"
             id="path95" /></g><g
           id="g97"
           transform="translate(498.5,124.2021)"><path
             d="m 0,0 c 0,-2.071 -1.679,-3.75 -3.75,-3.75 -2.071,0 -3.75,1.679 -3.75,3.75 0,2.071 1.679,3.75 3.75,3.75 C -1.679,3.75 0,2.071 0,0"
             style="fill:#ffffff;fill-opacity:1;fill-rule:nonzero;stroke:none"
             id="path99" /></g><g
           id="g101"
           transform="translate(481.125,140.1875)"><path
             d="m 0,0 c 0,-1.139 -0.924,-2.063 -2.063,-2.063 -1.138,0 -2.062,0.924 -2.062,2.063 0,1.139 0.924,2.063 2.062,2.063 C -0.924,2.063 0,1.139 0,0"
             style="fill:#ffffff;fill-opacity:1;fill-rule:nonzero;stroke:none"
             id="path103" /></g><g
           id="g105"
           transform="translate(488.5,107.1875)"><path
             d="m 0,0 c 0,-1.554 -1.26,-2.813 -2.813,-2.813 -1.553,0 -2.813,1.259 -2.813,2.813 0,1.553 1.26,2.813 2.813,2.813 C -1.26,2.813 0,1.553 0,0"
             style="fill:#ffffff;fill-opacity:1;fill-rule:nonzero;stroke:none"
             id="path107" /></g><g
           id="g109"
           transform="translate(173.3335,255.9043)"><path
             d="M 0,0 C 0,13.134 -15.207,23.763 -34,23.763"
             style="fill:none;stroke:#231f20;stroke-width:0.751;stroke-linecap:round;stroke-linejoin:miter;stroke-miterlimit:10;stroke-dasharray:none;stroke-opacity:1"
             id="path111" /></g><g
           id="g113"
           transform="translate(173.3335,255.9043)"><path
             d="M 0,0 C 0,30.524 -8.2,55.224 -18.333,55.224"
             style="fill:none;stroke:#231f20;stroke-width:0.959;stroke-linecap:round;stroke-linejoin:miter;stroke-miterlimit:10;stroke-dasharray:none;stroke-opacity:1"
             id="path115" /></g><g
           id="g117"
           transform="translate(173.3335,255.9043)"><path
             d="M 0,0 C 0,19.767 5.218,35.763 11.667,35.763"
             style="fill:none;stroke:#231f20;stroke-width:0.751;stroke-linecap:round;stroke-linejoin:miter;stroke-miterlimit:10;stroke-dasharray:none;stroke-opacity:1"
             id="path119" /></g><g
           id="g121"
           transform="translate(322.7803,296.6201)"><path
             d="M 0,0 -2.271,0.939 -9.561,20.22 4.15,6.12 C 7,3.18 3.79,-1.561 0,0"
             style="fill:#58595b;fill-opacity:1;fill-rule:nonzero;stroke:none"
             id="path123" /></g><g
           id="g125"
           transform="translate(320.5098,297.5596)"><path
             d="m 0,0 -30.13,12.391 c -2.22,0.909 -3.03,3.63 -1.69,5.609 l 7.97,11.791 c 1.34,1.98 4.17,2.23 5.84,0.509 L -7.29,19.28 Z"
             style="fill:#231f20;fill-opacity:1;fill-rule:nonzero;stroke:none"
             id="path127" /></g><g
           id="g129"
           transform="translate(343.5,390.2046)"><path
             d="m 0,0 c 0,-5.942 -4.589,-10.755 -10.255,-10.755 -4.123,0 -7.672,2.545 -9.3,6.219 0.812,-0.301 1.687,-0.461 2.597,-0.461 4.37,0 7.914,3.717 7.914,8.3 0,3.011 -1.53,5.651 -3.818,7.099 0.835,0.231 1.705,0.353 2.607,0.353 C -4.589,10.755 0,5.942 0,0"
             style="fill:#231f20;fill-opacity:1;fill-rule:nonzero;stroke:none"
             id="path131" /></g><g
           id="g133"
           transform="translate(377.2197,378.4702)"><path
             d="M 0,0 -3.08,0.24 -10.76,13.16 1.67,4.78 C 3.89,3.28 2.68,-0.2 0,0"
             style="fill:#58595b;fill-opacity:1;fill-rule:nonzero;stroke:none"
             id="path135" /></g></g></g></g></svg>
