<?xml version="1.0" encoding="UTF-8" standalone="no"?>
<svg
   width="100%"
   height="100%"
   viewBox="0 0 3508 2481"
   version="1.1"
   xml:space="preserve"
   style="fill-rule:evenodd;clip-rule:evenodd;stroke-linejoin:round;stroke-miterlimit:2;"
   id="svg247"
   sodipodi:docname="Ribbon.svg"
   inkscape:version="1.1 (c68e22c387, 2021-05-23)"
   xmlns:inkscape="http://www.inkscape.org/namespaces/inkscape"
   xmlns:sodipodi="http://sodipodi.sourceforge.net/DTD/sodipodi-0.dtd"
   xmlns="http://www.w3.org/2000/svg"
   xmlns:svg="http://www.w3.org/2000/svg"><defs
   id="defs251" /><sodipodi:namedview
   id="namedview249"
   pagecolor="#ffffff"
   bordercolor="#999999"
   borderopacity="1"
   inkscape:pageshadow="0"
   inkscape:pageopacity="0"
   inkscape:pagecheckerboard="0"
   showgrid="false"
   inkscape:zoom="0.18339379"
   inkscape:cx="1753.0582"
   inkscape:cy="804.28022"
   inkscape:window-width="1366"
   inkscape:window-height="705"
   inkscape:window-x="-8"
   inkscape:window-y="-8"
   inkscape:window-maximized="1"
   inkscape:current-layer="svg247" />
    
    
    
    
    
    
    
    
    
    
    
    
    
    
    
    
    
    
    
    
    
    
    
    
    
    
    
    
    <g
   id="g391"
   transform="matrix(1.5337292,0,0,1.4845438,-949.47118,-416.32782)"><g
     transform="matrix(1.01184,-0.0392425,-0.248558,0.962635,309.344,-171.931)"
     id="g133">
        <path
   d="m 2315.86,1026.81 v 334.35 c 90.43,-12.45 185.54,-39.65 286.26,-86.87 l -49.65,-142.82 49.65,-191.448 c -100.7,47.176 -195.81,74.348 -286.26,86.788 z"
   style="fill:#ff003b"
   id="path131" />
    </g><g
     transform="matrix(1.01184,-0.0392425,-0.248558,0.962635,275.043,-39.0878)"
     id="g137">
        <path
   d="m 1149.54,768.214 c -94.23,3.521 -188.787,32.518 -286.255,101.772 l 44.121,132.314 -44.121,201.83 c 97.454,-69.1 192.005,-98.04 286.255,-101.55 z"
   style="fill:#ff003b"
   id="path135" />
    </g><g
     transform="matrix(1.01184,-0.0392425,-0.248558,0.962635,250.188,57.1756)"
     id="g141">
        <path
   d="M 1149.54,1002.58 V 878.091 l -90.23,68.964 z"
   style="fill:#6c000b"
   id="path139" />
    </g><g
     transform="matrix(1.01184,-0.0392425,-0.248558,0.962635,250.188,57.1756)"
     id="g145">
        <path
   d="m 2315.86,788.813 v 131.858 l 90.23,-78.062 z"
   style="fill:#6c000b"
   id="path143" />
    </g><g
     transform="matrix(1.01184,-0.0392425,-0.248558,0.962635,250.188,57.1756)"
     id="g149">
        <path
   d="M 1059.31,947.055 V 679.812 c -17.02,3.818 -34.07,8.611 -51.17,14.464 z"
   style="fill:#6c000b"
   id="path147" />
    </g><g
     transform="matrix(1.01184,-0.0392425,-0.248558,0.962635,250.188,57.1756)"
     id="g153">
        <path
   d="m 2473.3,1087.14 -67.21,-244.531 v 263.421 c 22.12,-5.35 44.52,-11.63 67.21,-18.89 z"
   style="fill:#6c000b"
   id="path151" />
    </g><g
     transform="matrix(1.01184,-0.0392425,-0.248558,0.962635,250.188,57.1756)"
     id="g157">
        <path
   d="m 1059.31,612.718 v 334.337 c 189.19,-42.37 373.86,35.513 574.57,116.155 226.92,91.16 474.38,185.83 772.21,113.73 V 842.609 c -297.91,72.068 -545.52,-22.62 -772.58,-113.845 -200.59,-80.587 -385.13,-158.492 -574.2,-116.046 z"
   style="fill:#ff003b"
   id="path155" />
    </g><g
     transform="matrix(159.209,-2.52548,-43.218,152.523,1221.69,812.956)"
     id="g161">
        <path
   d="M 0.628,0 H 0.461 L 0.279,-0.294 C 0.255,-0.332 0.232,-0.378 0.208,-0.432 c 0.011,0.043 0.016,0.079 0.016,0.109 V 0 H 0.058 v -0.667 h 0.193 l 0.156,0.245 c 0.031,0.048 0.054,0.091 0.07,0.128 C 0.467,-0.351 0.461,-0.41 0.461,-0.469 v -0.198 h 0.167 z"
   style="fill:#6c000b;fill-rule:nonzero"
   id="path159" />
    </g><g
     transform="matrix(149.786,22.9153,-69.1335,150.813,1337.11,812.596)"
     id="g165">
        <path
   d="M 0.56,-0.159 V 0 H 0.058 V -0.667 H 0.56 v 0.154 H 0.259 v 0.097 h 0.243 v 0.148 H 0.259 v 0.109 z"
   style="fill:#6c000b;fill-rule:nonzero"
   id="path163" />
    </g><g
     transform="matrix(140.603,40.5162,-86.2919,147.065,1430.82,826.329)"
     id="g169">
        <path
   d="M 0.893,-0.667 0.716,0 H 0.544 L 0.451,-0.368 0.363,0 H 0.184 L 0.007,-0.667 h 0.192 l 0.094,0.384 0.091,-0.384 h 0.16 l 0.099,0.385 0.093,-0.385 z"
   style="fill:#6c000b;fill-rule:nonzero"
   id="path167" />
    </g><g
     transform="matrix(134.276,50.623,-95.8401,143.899,1601.52,879.912)"
     id="g173">
        <path
   d="M 0.611,-0.667 0.403,-0.282 V 0 H 0.204 V -0.282 L -0.02,-0.667 h 0.224 l 0.117,0.22 0.112,-0.22 z"
   style="fill:#6c000b;fill-rule:nonzero"
   id="path171" />
    </g><g
     transform="matrix(134.264,50.6413,-95.8571,143.892,1681.54,910.342)"
     id="g177">
        <path
   d="m 0.346,0.01 c -0.094,0 -0.17,-0.031 -0.229,-0.093 -0.059,-0.062 -0.089,-0.145 -0.089,-0.25 0,-0.099 0.029,-0.181 0.085,-0.246 0.057,-0.065 0.135,-0.098 0.235,-0.098 0.093,0 0.169,0.031 0.227,0.092 0.058,0.061 0.088,0.143 0.088,0.245 0,0.106 -0.03,0.191 -0.089,0.255 C 0.515,-0.022 0.439,0.01 0.346,0.01 Z M 0.345,-0.141 c 0.035,0 0.06,-0.015 0.075,-0.045 0.015,-0.03 0.022,-0.085 0.022,-0.166 0,-0.115 -0.031,-0.173 -0.093,-0.173 -0.067,0 -0.1,0.066 -0.1,0.198 0,0.124 0.032,0.186 0.096,0.186 z"
   style="fill:#6c000b;fill-rule:nonzero"
   id="path175" />
    </g><g
     transform="matrix(137.192,46.1231,-91.6176,145.404,1779.57,947.582)"
     id="g181">
        <path
   d="M 0.651,0 H 0.425 L 0.327,-0.255 H 0.263 V 0 H 0.058 v -0.667 h 0.348 c 0.077,0 0.137,0.018 0.179,0.054 0.043,0.036 0.064,0.084 0.064,0.143 0,0.038 -0.008,0.072 -0.024,0.102 -0.015,0.029 -0.047,0.055 -0.094,0.077 z M 0.263,-0.397 H 0.35 c 0.026,0 0.046,-0.006 0.062,-0.017 0.016,-0.01 0.024,-0.026 0.024,-0.047 0,-0.043 -0.027,-0.064 -0.079,-0.064 H 0.263 Z"
   style="fill:#6c000b;fill-rule:nonzero"
   id="path179" />
    </g><g
     transform="matrix(142.512,37.1906,-83.1004,147.941,1879.75,981.476)"
     id="g185">
        <path
   d="M 0.659,0 H 0.435 L 0.32,-0.252 0.251,-0.154 V 0 H 0.058 v -0.667 h 0.193 v 0.276 L 0.435,-0.667 H 0.619 L 0.45,-0.423 Z"
   style="fill:#6c000b;fill-rule:nonzero"
   id="path183" />
    </g><g
     transform="matrix(151.291,19.5453,-65.7749,151.286,2021.4,1015.92)"
     id="g189">
        <path
   d="m 0.425,-0.254 0.187,0.011 C 0.603,-0.161 0.573,-0.099 0.521,-0.055 0.47,-0.012 0.406,0.01 0.331,0.01 0.241,0.01 0.167,-0.02 0.112,-0.08 0.056,-0.139 0.028,-0.222 0.028,-0.328 c 0,-0.104 0.027,-0.188 0.079,-0.253 0.053,-0.064 0.127,-0.096 0.221,-0.096 0.088,0 0.156,0.025 0.203,0.073 0.048,0.049 0.075,0.114 0.081,0.195 l -0.191,0.01 c 0,-0.045 -0.009,-0.077 -0.026,-0.097 -0.017,-0.019 -0.037,-0.029 -0.06,-0.029 -0.064,0 -0.097,0.064 -0.097,0.194 0,0.073 0.009,0.122 0.025,0.148 0.017,0.026 0.041,0.039 0.071,0.039 0.054,0 0.084,-0.037 0.091,-0.11 z"
   style="fill:#6c000b;fill-rule:nonzero"
   id="path187" />
    </g><g
     transform="matrix(155.985,7.61577,-53.7025,152.354,2122.99,1027.93)"
     id="g193">
        <rect
   x="0.057999998"
   y="-0.667"
   width="0.205"
   height="0.667"
   style="fill:#6c000b;fill-rule:nonzero"
   id="rect191" />
    </g><g
     transform="matrix(159.495,-3.54527,-42.1525,152.503,2179.23,1030.89)"
     id="g197">
        <path
   d="M 0.332,-0.507 V 0 H 0.138 V -0.507 H 0 v -0.16 h 0.47 v 0.16 z"
   style="fill:#6c000b;fill-rule:nonzero"
   id="path195" />
    </g><g
     transform="matrix(163.084,-19.8082,-24.8818,151.252,2266.58,1028.84)"
     id="g201">
        <path
   d="M 0.611,-0.667 0.403,-0.282 V 0 H 0.204 V -0.282 L -0.02,-0.667 h 0.224 l 0.117,0.22 0.112,-0.22 z"
   style="fill:#6c000b;fill-rule:nonzero"
   id="path199" />
    </g><g
     transform="matrix(159.209,-2.52548,-43.218,152.523,1209.41,802.802)"
     id="g205">
        <path
   d="M 0.628,0 H 0.461 L 0.279,-0.294 C 0.255,-0.332 0.232,-0.378 0.208,-0.432 c 0.011,0.043 0.016,0.079 0.016,0.109 V 0 H 0.058 v -0.667 h 0.193 l 0.156,0.245 c 0.031,0.048 0.054,0.091 0.07,0.128 C 0.467,-0.351 0.461,-0.41 0.461,-0.469 v -0.198 h 0.167 z"
   style="fill:#ffffff;fill-rule:nonzero"
   id="path203" />
    </g><g
     transform="matrix(149.786,22.9153,-69.1335,150.813,1324.83,802.443)"
     id="g209">
        <path
   d="M 0.56,-0.159 V 0 H 0.058 V -0.667 H 0.56 v 0.154 H 0.259 v 0.097 h 0.243 v 0.148 H 0.259 v 0.109 z"
   style="fill:#ffffff;fill-rule:nonzero"
   id="path207" />
    </g><g
     transform="matrix(140.603,40.5162,-86.2919,147.065,1418.54,816.175)"
     id="g213">
        <path
   d="M 0.893,-0.667 0.716,0 H 0.544 L 0.451,-0.368 0.363,0 H 0.184 L 0.007,-0.667 h 0.192 l 0.094,0.384 0.091,-0.384 h 0.16 l 0.099,0.385 0.093,-0.385 z"
   style="fill:#ffffff;fill-rule:nonzero"
   id="path211" />
    </g><g
     transform="matrix(134.276,50.623,-95.8401,143.899,1589.25,869.758)"
     id="g217">
        <path
   d="M 0.611,-0.667 0.403,-0.282 V 0 H 0.204 V -0.282 L -0.02,-0.667 h 0.224 l 0.117,0.22 0.112,-0.22 z"
   style="fill:#ffffff;fill-rule:nonzero"
   id="path215" />
    </g><g
     transform="matrix(134.264,50.6413,-95.8571,143.892,1669.26,900.189)"
     id="g221">
        <path
   d="m 0.346,0.01 c -0.094,0 -0.17,-0.031 -0.229,-0.093 -0.059,-0.062 -0.089,-0.145 -0.089,-0.25 0,-0.099 0.029,-0.181 0.085,-0.246 0.057,-0.065 0.135,-0.098 0.235,-0.098 0.093,0 0.169,0.031 0.227,0.092 0.058,0.061 0.088,0.143 0.088,0.245 0,0.106 -0.03,0.191 -0.089,0.255 C 0.515,-0.022 0.439,0.01 0.346,0.01 Z M 0.345,-0.141 c 0.035,0 0.06,-0.015 0.075,-0.045 0.015,-0.03 0.022,-0.085 0.022,-0.166 0,-0.115 -0.031,-0.173 -0.093,-0.173 -0.067,0 -0.1,0.066 -0.1,0.198 0,0.124 0.032,0.186 0.096,0.186 z"
   style="fill:#ffffff;fill-rule:nonzero"
   id="path219" />
    </g><g
     transform="matrix(137.192,46.1231,-91.6176,145.404,1767.29,937.429)"
     id="g225">
        <path
   d="M 0.651,0 H 0.425 L 0.327,-0.255 H 0.263 V 0 H 0.058 v -0.667 h 0.348 c 0.077,0 0.137,0.018 0.179,0.054 0.043,0.036 0.064,0.084 0.064,0.143 0,0.038 -0.008,0.072 -0.024,0.102 -0.015,0.029 -0.047,0.055 -0.094,0.077 z M 0.263,-0.397 H 0.35 c 0.026,0 0.046,-0.006 0.062,-0.017 0.016,-0.01 0.024,-0.026 0.024,-0.047 0,-0.043 -0.027,-0.064 -0.079,-0.064 H 0.263 Z"
   style="fill:#ffffff;fill-rule:nonzero"
   id="path223" />
    </g><g
     transform="matrix(142.512,37.1906,-83.1004,147.941,1867.48,971.323)"
     id="g229">
        <path
   d="M 0.659,0 H 0.435 L 0.32,-0.252 0.251,-0.154 V 0 H 0.058 v -0.667 h 0.193 v 0.276 L 0.435,-0.667 H 0.619 L 0.45,-0.423 Z"
   style="fill:#ffffff;fill-rule:nonzero"
   id="path227" />
    </g><g
     transform="matrix(151.291,19.5453,-65.7749,151.286,2009.12,1005.77)"
     id="g233">
        <path
   d="m 0.425,-0.254 0.187,0.011 C 0.603,-0.161 0.573,-0.099 0.521,-0.055 0.47,-0.012 0.406,0.01 0.331,0.01 0.241,0.01 0.167,-0.02 0.112,-0.08 0.056,-0.139 0.028,-0.222 0.028,-0.328 c 0,-0.104 0.027,-0.188 0.079,-0.253 0.053,-0.064 0.127,-0.096 0.221,-0.096 0.088,0 0.156,0.025 0.203,0.073 0.048,0.049 0.075,0.114 0.081,0.195 l -0.191,0.01 c 0,-0.045 -0.009,-0.077 -0.026,-0.097 -0.017,-0.019 -0.037,-0.029 -0.06,-0.029 -0.064,0 -0.097,0.064 -0.097,0.194 0,0.073 0.009,0.122 0.025,0.148 0.017,0.026 0.041,0.039 0.071,0.039 0.054,0 0.084,-0.037 0.091,-0.11 z"
   style="fill:#ffffff;fill-rule:nonzero"
   id="path231" />
    </g><g
     transform="matrix(155.985,7.61577,-53.7025,152.354,2110.71,1017.78)"
     id="g237">
        <rect
   x="0.057999998"
   y="-0.667"
   width="0.205"
   height="0.667"
   style="fill:#ffffff;fill-rule:nonzero"
   id="rect235" />
    </g><g
     transform="matrix(159.495,-3.54527,-42.1525,152.503,2166.95,1020.74)"
     id="g241">
        <path
   d="M 0.332,-0.507 V 0 H 0.138 V -0.507 H 0 v -0.16 h 0.47 v 0.16 z"
   style="fill:#ffffff;fill-rule:nonzero"
   id="path239" />
    </g><g
     transform="matrix(163.084,-19.8082,-24.8818,151.252,2254.3,1018.69)"
     id="g245">
        <path
   d="M 0.611,-0.667 0.403,-0.282 V 0 H 0.204 V -0.282 L -0.02,-0.667 h 0.224 l 0.117,0.22 0.112,-0.22 z"
   style="fill:#ffffff;fill-rule:nonzero"
   id="path243" />
    </g></g>
</svg>
