<?xml version="1.0" encoding="UTF-8" standalone="no"?>
<!-- Created with Inkscape (http://www.inkscape.org/) -->

<svg
   width="1920"
   height="1080"
   viewBox="0 0 508 285.75"
   version="1.1"
   id="svg5"
   sodipodi:docname="RING LOGO.svg"
   inkscape:version="1.1 (c68e22c387, 2021-05-23)"
   xmlns:inkscape="http://www.inkscape.org/namespaces/inkscape"
   xmlns:sodipodi="http://sodipodi.sourceforge.net/DTD/sodipodi-0.dtd"
   xmlns="http://www.w3.org/2000/svg"
   xmlns:svg="http://www.w3.org/2000/svg">
  <sodipodi:namedview
     id="namedview7"
     pagecolor="#ffffff"
     bordercolor="#999999"
     borderopacity="1"
     inkscape:pageshadow="0"
     inkscape:pageopacity="0"
     inkscape:pagecheckerboard="0"
     inkscape:document-units="px"
     showgrid="false"
     inkscape:lockguides="true"
     showborder="false"
     inkscape:zoom="0.70710678"
     inkscape:cx="659.73063"
     inkscape:cy="596.09102"
     inkscape:window-width="1366"
     inkscape:window-height="705"
     inkscape:window-x="-8"
     inkscape:window-y="-8"
     inkscape:window-maximized="1"
     inkscape:current-layer="layer1"
     showguides="false" />
  <defs
     id="defs2" />
  <g
     inkscape:label="Layer 1"
     inkscape:groupmode="layer"
     id="layer1">
    <g
       id="g1941"
       transform="rotate(-30,196.63864,147.63346)">
      <path
         id="path1548"
         style="color:#000000;opacity:1;fill:#ff7b00;fill-opacity:1;stroke-width:1;-inkscape-stroke:none"
         d="m 196.63864,174.34317 c -2.60332,0 -4.95803,-0.60621 -6.65231,-1.57819 -1.69429,-0.97198 -2.71662,-2.29741 -2.71662,-3.74034 0,-1.44293 1.02233,-2.76785 2.71662,-3.73983 1.69428,-0.97198 4.04899,-1.5782 6.65231,-1.5782 2.60333,0 4.95802,0.60622 6.65231,1.5782 1.69428,0.97198 2.71663,2.2969 2.71663,3.73983 0,1.44293 -1.02235,2.76836 -2.71663,3.74034 -1.69429,0.97198 -4.04898,1.57819 -6.65231,1.57819 z m -14.7097,-3.2892 c -2.76572,-1.74102 -5.20066,-3.95823 -7.19077,-6.53707 -2.20549,-2.86229 -2.56747,-5.94319 -1.31258,-8.80824 1.25489,-2.86507 4.14516,-5.51532 8.47286,-7.45123 8.65542,-3.8718 20.82702,-3.8718 29.48244,0 4.32771,1.93591 7.21592,4.58616 8.4708,7.45123 1.25489,2.86505 0.89292,5.94595 -1.31258,8.80824 -1.99011,2.57884 -4.42505,4.79605 -7.19077,6.53707 0.91335,-0.74847 1.64887,-1.56208 2.19056,-2.41949 1.29757,-2.05384 1.47442,-4.36688 0.3204,-6.57066 -2.30803,-4.40757 -9.30382,-7.36699 -17.22066,-7.36699 -7.91683,0 -14.91056,2.95942 -17.21859,7.36699 -1.15401,2.20378 -0.97923,4.51682 0.31833,6.57066 0.5417,0.85741 1.27721,1.67102 2.19056,2.41949 z m -12.75167,-20.19721 c -0.12229,-1.05551 -0.18707,-2.12852 -0.18707,-3.21686 0,-2.01168 0.21692,-3.97212 0.62477,-5.86166 l 0.002,5.2e-4 c 0.84037,-3.87446 4.14259,-7.28892 8.96896,-9.7343 4.82636,-2.44535 11.16956,-3.9181 18.05264,-3.9181 6.88308,-1e-5 13.22628,1.47275 18.05265,3.9181 4.82636,2.44538 8.12858,5.85984 8.96896,9.7343 l 0.002,-5.2e-4 c 0.40785,1.88954 0.62477,3.84998 0.62477,5.86166 0,1.08834 -0.0648,2.16135 -0.18707,3.21686 -0.17072,-2.11848 -1.07538,-4.17512 -2.61741,-6.04873 -2.19168,-2.66296 -5.6647,-4.96411 -10.15235,-6.59547 -8.97531,-3.26271 -20.40585,-3.26271 -29.38115,0 -4.48765,1.63136 -7.96274,3.93251 -10.15442,6.59547 -1.54203,1.87361 -2.44669,3.93025 -2.61741,6.04873 z m 8.11888,-22.97173 c 2.70223,-2.64611 5.94509,-4.74164 9.54774,-6.1066 l 0.002,0.004 h 5.2e-4 c 5.9328,-2.24734 13.65308,-2.24734 19.58588,0 l 0.002,-0.004 c 3.59993,1.36386 6.84004,3.45724 9.54102,6.1004 -4.51158,-3.45758 -11.63338,-5.55108 -19.33577,-5.55108 -7.70717,0 -14.83185,2.09586 -19.34249,5.55728 z" />
      <path
         id="path1916"
         style="color:#000000;opacity:1;fill:#ff5600;fill-opacity:1;stroke-width:3.77953;-inkscape-stroke:none"
         d="m 743.20312,453.91016 c -8.75593,0 -17.51043,0.97911 -25.73828,2.93554 5.24062,1.56284 10.30768,3.52674 15.17188,5.84766 3.4804,-0.23161 7.00817,-0.35156 10.56836,-0.35156 29.11139,0 56.02844,7.91245 73.08008,20.98047 -10.20843,-9.9899 -22.45452,-17.9019 -36.06055,-23.05665 l -0.008,0.0137 c -11.21159,-4.24694 -24.11313,-6.36914 -37.01368,-6.36914 z m 20.70313,31.55859 c 2.44262,2.58148 4.76314,5.27995 6.9375,8.09766 l 0.008,-0.008 c 0.14242,0.18513 0.27731,0.37107 0.41602,0.55664 5.58192,7.33124 10.22369,15.41575 13.75195,24.07227 4.69874,1.18878 9.28476,2.58311 13.70899,4.19141 16.96119,6.16577 30.08757,14.863 38.37109,24.92773 5.82814,7.08136 9.24734,14.85448 9.89258,22.86133 0.46212,-3.98933 0.70703,-8.04479 0.70703,-12.1582 0,-7.6032 -0.81985,-15.01273 -2.36133,-22.1543 l -0.008,0.002 c -3.17624,-14.64363 -15.65708,-27.54863 -33.89844,-36.79101 -13.27656,-6.72676 -29.59866,-11.49427 -47.52539,-13.59766 z m 28.875,72.35937 c 5e-5,0.0437 0.002,0.0871 0.002,0.13086 0,12.53464 -2.19292,24.55473 -6.20703,35.70704 10.02861,4.78161 17.72433,11.24627 21.71094,18.85937 4.36165,8.32925 3.69326,17.07144 -1.21094,24.83399 -2.04733,3.2406 -4.82726,6.31566 -8.27929,9.14453 10.45311,-6.58024 19.65605,-14.96024 27.17773,-24.70703 8.33575,-10.81811 9.70383,-22.46249 4.96094,-33.29102 -4.74286,-10.82861 -15.65893,-20.84528 -32.01563,-28.16211 -1.99807,-0.89379 -4.0475,-1.73102 -6.13867,-2.51563 z m -24.00781,67.12891 c -11.37618,13.82064 -26.19924,24.69344 -43.15235,31.3125 5.17824,1.69014 11.17706,2.66602 17.58008,2.66602 9.83936,0 18.73896,-2.29122 25.14258,-5.96485 6.40358,-3.67362 10.26758,-8.68312 10.26758,-14.13672 0,-5.32846 -3.69579,-10.22826 -9.83789,-13.87695 z"
         transform="scale(0.26458333)" />
      <path
         id="path4536"
         style="color:#000000;opacity:1;fill:#ffcc00;stroke-width:3.77953;-inkscape-stroke:none"
         d="m 743.20117,457.03516 c -9.83932,0 -18.739,2.29121 -25.14258,5.96484 -6.40361,3.67363 -10.26757,8.68313 -10.26757,14.13672 0,5.45359 3.86396,10.46114 10.26757,14.13476 6.40358,3.67363 15.30326,5.96485 25.14258,5.96485 9.83936,0 18.73896,-2.29122 25.14258,-5.96485 6.40358,-3.67362 10.26758,-8.68117 10.26758,-14.13476 0,-5.45359 -3.864,-10.46309 -10.26758,-14.13672 -6.40362,-3.67363 -15.30322,-5.96484 -25.14258,-5.96484 z m -55.5957,12.43164 c -10.45312,6.58023 -19.65605,14.96022 -27.17774,24.70703 -8.33571,10.8181 -9.70382,22.46244 -4.96093,33.29101 4.74289,10.82858 15.66674,20.84529 32.02343,28.16211 32.71337,14.63358 78.71629,14.63358 111.42969,0 16.3567,-7.31682 27.27274,-17.33353 32.01563,-28.16211 4.74289,-10.82857 3.37481,-22.47291 -4.96094,-33.29101 -7.52168,-9.74681 -16.72462,-18.1268 -27.17773,-24.70703 3.45202,2.82886 6.23195,5.90392 8.27929,9.14453 4.9042,7.76254 5.57259,16.50474 1.21094,24.83398 -8.72323,16.65853 -35.16402,27.84375 -65.08594,27.84375 -29.92188,0 -56.35486,-11.18522 -65.07812,-27.84375 -4.36162,-8.32924 -3.70104,-17.07144 1.20312,-24.83398 2.04736,-3.24061 4.82726,-6.31567 8.2793,-9.14453 z m -48.19531,76.33593 c -0.46218,3.9893 -0.70704,8.0448 -0.70704,12.15821 0,7.60318 0.81987,15.01273 2.36133,22.15429 l 0.008,-0.002 c 3.1762,14.64363 15.65703,27.54867 33.89843,36.79102 18.24136,9.2423 42.21568,14.80859 68.23047,14.80859 26.01479,4e-5 49.98907,-5.56629 68.23047,-14.80859 18.24136,-9.24235 30.7222,-22.14739 33.89844,-36.79102 l 0.008,0.002 c 1.54146,-7.14156 2.36133,-14.55111 2.36133,-22.15429 0,-4.11341 -0.24485,-8.16891 -0.70703,-12.15821 -0.64527,8.00683 -4.06443,15.77997 -9.89258,22.86133 -8.28352,10.06473 -21.4099,18.76197 -38.37109,24.92774 -33.92244,12.3315 -77.12449,12.3315 -111.04688,0 -16.9612,-6.16577 -30.09539,-14.86301 -38.37891,-24.92774 -5.82815,-7.08136 -9.24731,-14.8545 -9.89257,-22.86133 z M 670.0957,632.625 c 10.21316,10.00106 22.46963,17.92116 36.08594,23.08008 l 0.006,-0.0156 h 0.002 c 22.42318,8.49389 51.60221,8.49389 74.02539,0 l 0.006,0.0156 c 13.60605,-5.15476 25.8521,-13.06676 36.06055,-23.05664 -17.05163,13.06801 -43.96867,20.98047 -73.08008,20.98047 -29.12947,0 -56.05737,-7.92139 -73.10547,-21.00391 z"
         transform="scale(0.26458333)" />
      <path
         id="path1820"
         style="color:#000000;opacity:1;fill:#fff700;fill-opacity:1;stroke-width:3.77953;-inkscape-stroke:none"
         d="m 741.13672,457.0957 c -9.01129,0.29741 -17.12821,2.49093 -23.07813,5.9043 -5.1537,2.95658 -8.62155,6.78556 -9.79492,11.00781 9.76352,-7.44163 20.86019,-13.22235 32.87305,-16.91211 z m -53.53125,12.3711 c -10.45312,6.58023 -19.65605,14.96022 -27.17774,24.70703 -8.33571,10.8181 -9.70382,22.46244 -4.96093,33.29101 2.44444,5.58095 6.55985,10.93696 12.18554,15.82813 1.83561,-13.18373 6.10738,-25.58673 12.34766,-36.74219 -0.69332,-1.01246 -1.32289,-2.04738 -1.87695,-3.10547 -4.36162,-8.32924 -3.70104,-17.07144 1.20312,-24.83398 2.04736,-3.24061 4.82726,-6.31567 8.2793,-9.14453 z m -48.19531,76.33593 c -0.46218,3.9893 -0.70703,8.0448 -0.70704,12.15821 0,7.60318 0.81987,15.01273 2.36133,22.15429 l 0.008,-0.002 c 3.1762,14.64363 15.65703,27.54867 33.89843,36.79102 4.34629,2.20212 9.03907,4.17832 13.98633,5.9375 -0.0955,-0.12229 -0.19601,-0.24057 -0.29101,-0.36328 -0.031,-0.0397 -0.0635,-0.0791 -0.0937,-0.11914 l 0.004,-0.002 c -8.3124,-10.7692 -14.5884,-23.18906 -18.25586,-36.68164 -8.73946,-4.94413 -15.83064,-10.70943 -21.01758,-17.01172 -5.82815,-7.08136 -9.24731,-14.8545 -9.89257,-22.86133 z M 670.0957,632.625 c 10.21316,10.00106 22.46963,17.92116 36.08594,23.08008 l 0.006,-0.0156 h 0.002 c 13.97697,5.29447 30.57879,7.28637 46.53321,5.98047 -9.5801,-1.78334 -18.7038,-4.85981 -27.18555,-9.04492 -22.14196,-2.5003 -41.9092,-9.61554 -55.44141,-20 z"
         transform="scale(0.26458333)" />
    </g>
  </g>
</svg>
