<?xml version="1.0" encoding="utf-8"?>
<!-- Generator: Adobe Illustrator 25.2.0, SVG Export Plug-In . SVG Version: 6.00 Build 0)  -->
<svg version="1.1" id="Layer_1" xmlns="http://www.w3.org/2000/svg" xmlns:xlink="http://www.w3.org/1999/xlink" x="0px" y="0px"
	 viewBox="0 0 792 612" style="enable-background:new 0 0 792 612;" xml:space="preserve">
<style type="text/css">
	.st0{fill:none;}
	.st1{fill:#58595B;}
	.st2{opacity:0.3;fill:#808285;}
	.st3{fill:#45D7FF;}
	.st4{fill:#00AEEF;}
</style>
<path class="st0" d="M389.3,166.3L389.3,166.3C389.3,166.3,389.3,166.3,389.3,166.3C389.3,166.3,389.3,166.3,389.3,166.3z"/>
<rect class="st1" width="792" height="612"/>
<path class="st2" d="M792,15.3V612H202c19-98.5,57.1-190.3,110.3-271.2c14.2-21.6,29.5-42.5,45.8-62.4
	C466.1,145.9,618.2,50.8,792,15.3z"/>
<path class="st0" d="M403.9,354.4c0,0-0.1,0-0.1,0.1"/>
<path class="st3" d="M414.4,327.5c-3.6,1.3-8.8,3.8-12.2,8.8c-4.3,6.4-3.1,12.7-2.3,19.5c0.5,4.4,0.9,9-0.6,14
	c-5.9,19.7-35.7,28-37.4,25.4c-1.4-2,14-9.5,15.1-24.3c0.3-3.9-0.3-7.6-1.2-10.8c-1-3.8-2.4-6.7-3-8c-4.4-9.6-9.1-10.7-8.6-15.3
	c0.7-7.7,14.3-13.2,23.8-14.6C400.4,320.5,410.3,325.2,414.4,327.5z"/>
<path class="st3" d="M303.6,223.4c1.7-2.9,6.5-10,14.4-11.3c6.6-1.1,12.7,2.3,19,5.8c6.2,3.5,6.9,5.4,12,7.4
	c5.9,2.4,11.5,2.3,15.1,1.9c-2.8,1.9-7.3,4.4-12.7,4.3c-5.2,0-7.1-2.3-17.8-6.5c-7.5-2.9-11.3-4.4-16.3-4.6
	C311.4,220.4,306.6,222,303.6,223.4z"/>
<path class="st4" d="M464.4,233.7L464.4,233.7c-5.1,4-11.6,10-17.8,18.5c-1.9,2.6-7.9,11-11.8,21.6c-2.7,7.4-3.4,13.6-3.4,19.1
	c-0.1,0-0.2,0-0.3,0c-3.5,0-6.2,2.8-6.2,6.2c0,3.5,2.8,6.2,6.2,6.2c0.4,0,0.9-0.1,1.3-0.1c0.8,7,1.4,13.7-1.4,21.6
	c-2.7,7.6-9.3,18.1-27,27.6c0,0,0,0,0,0c-1.3,0.5-2.7,0.9-4,1.4c-0.8-6.8-2-13.1,2.3-19.5c3.4-5.1,8.6-7.5,12.2-8.8
	c-4.2-2.3-14.1-7-26.5-5.2c-9.5,1.4-23.1,6.9-23.8,14.6c-0.4,4.6,4.2,5.7,8.6,15.3c0.6,1.3,2,4.2,3,8c-1.1,0.1-2.2,0.1-3.4,0.1
	c-25.3,0.4-48.5-8.8-66.1-24.2c-1.6-1.4-3.2-2.9-4.7-4.4c-6.6-6.6-12.2-14.1-16.7-22.3l0,0c-2.1-3.8-5.7-6.7-9.9-7.7
	c-2.5-0.6-5-0.9-7.7-0.9c-10.3,0-19.5,4.5-25.8,11.6c4.8-13.3,17.5-22.9,32.5-22.9c0.6,0,1.2,0,1.8,0.1c0.5,0,0.8-0.4,0.7-0.9
	c-2.3-8.3-3.5-17.1-3.5-26.2c0-5.9,0.5-11.7,1.5-17.4c0.8-4.6,5.9-20,5.9-20c0.3-0.8,0.6-2.5,0.6-3.4c-0.1-9.8-7.6-18.2-17.6-19.1
	c-11.7-1-21.5,8.2-21.4,19.6c0.2,0.1,0.3,0.1,0.5,0.3c1.6-1.3,3.6-2,5.7-2c5,0,9.1,4.1,9.1,9.2s-4.1,9.2-9.1,9.2
	c-3.7,0-6.8-2.2-8.3-5.3l0,0c-1.6-3.3-2.5-7-2.5-10.8c0-14.2,11.8-25.7,26.2-25.7c10.4,0,19.4,5.9,23.6,14.5
	c17.2-28.2,48-46.7,83.4-46.7c5.8,0,11.5,0.5,17.1,1.5c0,0,0,0,0,0c0.4,0.1,0.9,0.1,1.3,0.2c0,0,0,0,0.1,0c0,0,0,0,0.1,0
	c9.6,2.1,16.7,10.7,16.6,21c-0.1,11.1-9,20.5-20.1,21.1c-12.3,0.7-22.5-9.1-22.5-21.3c0-8,4.4-14.9,10.9-18.6
	c-48.5,0.5-87.8,38.9-89.8,87c6-11.2,17.7-18.8,31.3-18.8c11.7,0,22.2,5.7,28.6,14.5c-6.1-4.1-13.7-6.3-21.8-5.6
	c-16.5,1.4-29.7,14.7-31,31.1c0,0.2,0,0.3,0,0.5c-0.9,13.8,13.1,23.6,25.8,18.3l32.6-13.7l9.5-4l10.5-4.5c1,2.7,3.9,4.5,7.1,3.9
	c2.3-0.5,4.2-2.3,4.8-4.6c0.4-1.5,0.2-2.9-0.4-4.1l81.2-34.2l1.8-0.8C464.3,233.6,464.3,233.7,464.4,233.7z"/>
<path class="st3" d="M468.6,261.7c0.3,42.4-26.8,78.9-64.7,92.7c17.8-9.5,24.3-20,27-27.6c2.8-7.9,2.2-14.6,1.4-21.6
	c-0.4,0.1-0.9,0.1-1.3,0.1c-3.5,0-6.2-2.8-6.2-6.2c0-3.4,2.8-6.2,6.2-6.2c0.1,0,0.2,0,0.3,0c0-5.5,0.7-11.7,3.4-19.1
	c3.8-10.5,9.8-19,11.8-21.6c6.2-8.5,12.7-14.5,17.7-18.5l0.1,0C467.1,242.6,468.6,252,468.6,261.7z"/>
</svg>
