<?xml version="1.0" encoding="utf-8"?>
<!-- Generator: Adobe Illustrator 25.2.0, SVG Export Plug-In . SVG Version: 6.00 Build 0)  -->
<svg version="1.1" id="Layer_1" xmlns="http://www.w3.org/2000/svg" xmlns:xlink="http://www.w3.org/1999/xlink" x="0px" y="0px"
	 viewBox="0 0 1080 1080" style="enable-background:new 0 0 1080 1080;" xml:space="preserve">
<style type="text/css">
	.st0{fill:#87CEEB;stroke:#231F20;stroke-width:2.4452;stroke-miterlimit:10;}
	.st1{fill:none;stroke:#231F20;stroke-width:0.1284;stroke-miterlimit:10;}
	.st2{fill:#24211A;}
	.st3{fill:#0F0E0B;}
	.st4{fill:#211D19;}
	.st5{fill:#524A3E;}
	.st6{fill:#453D34;}
	.st7{fill:#C29474;}
	.st8{fill:#F0B790;}
	.st9{fill:#FFEF00;}
	.st10{fill:#231F20;}
	.st11{fill:#030087;}
	.st12{fill:#FFC6A1;}
	.st13{fill:#FFFFFF;}
	.st14{fill:none;stroke:#231F20;stroke-width:4.4131;stroke-miterlimit:10;}
	.st15{fill:none;stroke:#231F20;stroke-width:3.3687;stroke-miterlimit:10;}
	.st16{fill:none;stroke:#231F20;stroke-width:2.4309;stroke-miterlimit:10;}
	.st17{fill:none;stroke:#231F20;stroke-width:3.2878;stroke-miterlimit:10;}
	.st18{fill:#00119F;}
	.st19{fill:#FFF8E2;}
	.st20{fill:#949494;}
	.st21{fill:#EED800;}
	.st22{fill:#E0C400;}
	.st23{fill:#BABABA;}
	.st24{fill:none;stroke:#231F20;stroke-width:1.871;stroke-miterlimit:10;}
	.st25{fill:none;stroke:#231F20;stroke-width:0.2339;stroke-miterlimit:10;}
</style>
<g>
	<path class="st0" d="M1057.6,529.7c0,155-68.1,294.1-176.1,388.9c-13.6,12-27.9,23.2-42.7,33.7c-13.1,9.3-26.6,17.9-40.5,26
		c-4.8,2.8-9.7,5.5-14.6,8.1c-30.6,16.3-62.9,29.7-96.8,39.7c-41.9,12.4-86.1,19.6-131.7,20.9c-5,0.2-10.1,0.2-15.2,0.2
		c-2.5,0-5.1,0-7.6-0.1c-82.7-1.2-160.6-21.7-229.6-57.4c-4.9-2.5-9.8-5.1-14.6-7.8c-29.7-16.6-57.6-36-83.4-57.9
		C93.2,829.3,22.4,687.8,22.4,529.7C22.4,243.9,254.1,12.1,540,12.1C825.9,12.1,1057.6,243.9,1057.6,529.7z"/>
	<line class="st1" x1="803.2" y1="841" x2="819" y2="859.8"/>
	<path class="st2" d="M714.9,582.8c-1.3-1.3-3.3-3-5.9-4.4c-1.9-1-3.7-1.7-5.1-2.1c-4.7,2.6-10.9,6.6-17.1,12.7
		c-4.9,4.9-8.4,9.7-10.9,13.7l-6.9,0.7c-1.5-1.4-3.7-3.9-5.5-7.4c-1.9-4-2.4-7.6-2.5-9.7c4.6-4.2,9.2-8.4,13.8-12.6l0-0.7v0
		c8.1-7.6,47-43.9,54.6-50.7c8.5-7.6,43.6-76.8,43.6-76.8s7.6-4.9,50.7-27.4c5.5,45.4-35.5,95.6-68.8,128.6
		C734.5,566.9,716.9,580.7,714.9,582.8C714.9,582.9,714.9,582.9,714.9,582.8z"/>
	<path class="st3" d="M736.6,635.9L701,650.1c3.4-6.3,7-14.5,9.8-24.4l1.5,0.4L736.6,635.9z"/>
	<path class="st4" d="M713.7,612.6l1.1,0.2c3.7-3,55.6-38.1,58.6-49.5c-41.1,16.2-42.8,15.5-42.8,15.5l68.4-40.4l-0.1-0.3
		c2.2-0.7,4.3-1.4,6.5-2.1c-6.5,13.4-17.9,33-37.3,52.1c-20.7,20.4-41.9,31.9-55.9,38l-1.5-0.4c0.4-1.3,0.7-2.6,1.1-4
		C712.6,618.6,713.2,615.5,713.7,612.6z"/>
	<path class="st4" d="M714.7,352.8c18.4-55.3,4.1-153.1,2-166.1c2-6.9,3.7-13.6,5.2-19.8c11.5,21.6,16.5,39.9,18.9,52.5
		c3.4,17.6,5.6,44.5,6.1,44.5c0,0,0,0,0,0c0.9-2.6,16.8-19.7,16.8-19.7c4.4-4.8,10.8-13.8,19.5-32.1c11.3,30.9,25.8,84.6,16.5,149.6
		c-3.5,24.8-9.8,46.2-16.5,63.9c9.4-3.8,19.8-8.6,30.8-14.8c9.5-5.4,17.9-10.9,25.1-16.2c0.9,12.5,0.9,29-2.7,48
		c-4.6,24.2-13.2,43.1-20.2,55.7c-7.5,8.9-16.7,18.8-27.8,28.8c-9.7,8.7-19.1,15.9-27.8,22l-5.6-2.4c33.3-33.1,74.3-83.3,68.8-128.6
		c-43.1,22.5-50.7,27.4-50.7,27.4s-35,69.1-43.6,76.8c-7.6,6.8-46.5,43.1-54.6,50.7l2.1-37c-0.9-4-1.9-8.5-3.4-13.4
		c45.5-69.7,83.3-229.8,83.3-229.8S747,312.4,714.7,352.8z"/>
	<path class="st5" d="M713.7,612.6c2-11.9,1.8-22.2,1.2-29.7c2-2.2,19.6-16,40.1-36.4l5.6,2.4c-1.2,0.9-2.5,1.7-3.7,2.5
		c14-4.5,28-8.9,42-13.4l0.1,0.3l-68.4,40.4c0,0,1.7,0.7,42.8-15.5c-3,11.4-54.9,46.5-58.6,49.5L713.7,612.6z"/>
	<path class="st6" d="M701.7,286.8c2.5-17.7,0.9-34.4-3.6-50c2.3-5,4.6-10.3,6.8-15.8c0.3-0.7,0.5-1.3,0.8-2
		c4.5-11.3,8.1-22.1,11-32.2c2,13,16.4,110.8-2,166.1l-5.5-0.1c0.6-22-2-37.6-2.8-42c-1.6-8.6-3.6-16.4-5.8-23.6L701.7,286.8z"/>
	<path class="st7" d="M702,622.7C702,622.8,702,622.8,702,622.7C702,622.8,702,622.8,702,622.7z"/>
	<path class="st7" d="M701.4,619.8c0,0.2,0,0.4,0.1,0.5C701.4,620.2,701.4,620,701.4,619.8z"/>
	<path class="st7" d="M701.2,618.4c0,0.3,0.1,0.7,0.1,1C701.3,619,701.2,618.7,701.2,618.4z"/>
	<path class="st7" d="M701,616.7c-0.1-0.9-0.3-1.8-0.4-2.8C700.7,614.9,700.9,615.8,701,616.7z"/>
	<path class="st8" d="M698.4,607.2c-0.1-0.1-0.2-0.3-0.3-0.4C698.3,607,698.4,607.1,698.4,607.2z"/>
	<path class="st6" d="M688.1,256.8c3.4-6.2,6.7-12.9,10-20.1c4.5,15.6,6.1,32.3,3.6,50l-1.1,0.3
		C696.7,274.8,692.1,264.6,688.1,256.8z"/>
	<path class="st8" d="M697.9,606.5c0.1,0.1,0.2,0.2,0.3,0.4C698.1,606.7,698,606.6,697.9,606.5z"/>
	<path class="st8" d="M697.7,606.3c0,0,0.1,0.1,0.2,0.2C697.8,606.4,697.8,606.3,697.7,606.3z"/>
	<path class="st7" d="M693.7,606.6c-0.1-0.3-0.3-0.7-0.5-1c-1-2.2-2.3-4-3.3-5.2h0c1.4-2.3,2.9-4.6,4.3-7c0.9-0.5,2.1-1,3.8-1.3
		c0.7-0.1,1.4-0.2,2-0.2c1.3,0,2.3,0.2,3,0.4c0,0,0.5,7.6,0.3,15.9c0,1.2-0.2,3.7-0.5,8.8c-0.3,4.5-0.4,5.8-0.7,5.8c0,0,0,0-0.1,0
		c0,0,0,0,0,0c0,0-0.1-0.1-0.1-0.2c-0.1-0.4-0.3-1.2-0.4-2.2c0-0.2,0-0.3-0.1-0.5c0-0.1,0-0.3-0.1-0.5c0-0.3-0.1-0.7-0.1-1
		c-0.1-0.5-0.1-1.1-0.2-1.6c-0.1-0.9-0.3-1.8-0.4-2.8c-0.5-2.6-1.1-5.1-2.1-6.7c-0.1-0.1-0.2-0.3-0.3-0.4c-0.1-0.1-0.2-0.2-0.3-0.4
		c0-0.1-0.1-0.1-0.2-0.2c-0.3-0.3-0.5-0.4-0.8-0.6c-0.1,0-0.2-0.1-0.3-0.1C695.7,605.4,694.7,605.8,693.7,606.6z"/>
	<path class="st9" d="M720.1,820.8c-12.9-6.9-26.4-12.4-38.4-14.3l1.6-5.1l1-5.1l1-5c0,0,9.3-0.7,25.7,6.7L720.1,820.8z"/>
	<path class="st7" d="M686.6,623.4c0,0.1-0.1,0.3-0.1,0.5C686.5,623.7,686.6,623.6,686.6,623.4z"/>
	<path class="st7" d="M686.4,624.5l-1.1,13.1c0-1.8,0-3.8,0.1-5.9c0-0.1,0-0.2,0-0.4c0.1-1.1,0.2-2.2,0.4-3.4
		C686,626.8,686.2,625.6,686.4,624.5z"/>
	<path class="st7" d="M684.6,619.1c-0.2,0.4-0.5,0.9-0.7,1.3C684.1,619.9,684.3,619.5,684.6,619.1z"/>
	<path class="st7" d="M680.8,615.2c3.1-4.9,6.1-9.9,9.2-14.8h0c1,1.2,2.3,2.9,3.3,5.2c0.2,0.4,0.3,0.7,0.5,1c-1,0.8-2.1,1.9-3.2,3.3
		l-0.3,0.4l-1.9,2.6c-1.2,1.8-2.2,3.6-3.1,5c-0.1-0.1-0.3-0.3-0.5-0.4C683.6,616.5,682,615.1,680.8,615.2z"/>
	<path class="st8" d="M680.8,615.2c-1.2,1.2-2.5,2.6-3.8,4.2C678.2,616.9,679.4,615.2,680.8,615.2z"/>
	<path class="st7" d="M673.4,628.4l3.6-9c1.3-1.6,2.6-3,3.8-4.2c1.3,0,2.9,1.3,4,2.3c0.2,0.1,0.3,0.3,0.5,0.4v0
		c-0.2,0.4-0.5,0.9-0.7,1.2c-0.2,0.4-0.5,0.9-0.7,1.3c-0.2,0.4-0.4,0.7-0.6,1c-3.2,6.2-5.5,12.1-6.7,11.8c-0.6-0.2-0.3-1.9-1.9-3.6
		C674.3,629.1,673.8,628.7,673.4,628.4z"/>
	<path class="st7" d="M661.3,656c-1.9-1.2-3-2.6-3.7-3.6c1-2.3,2.1-4.6,3.1-7c0.4-0.6,1.1-1.5,2-2.4c1.8-1.6,3.5-2.2,3.8-2.4
		c2.6-1.1,4.7-6.7,6.8-12.3c0.4,0.3,0.9,0.7,1.3,1.1c1.6,1.7,1.3,3.4,1.9,3.6c1.3,0.3,3.5-5.6,6.7-11.8c0.2-0.3,0.4-0.7,0.6-1
		c0.2-0.4,0.5-0.8,0.7-1.3c0.2-0.3,0.4-0.8,0.7-1.2c1,0.9,1.7,1.8,2.1,2.5c-0.2,0.7-0.4,1.5-0.6,2.2c-0.1,0.3-0.1,0.6-0.2,0.9
		c0,0.1-0.1,0.3-0.1,0.5c0,0.2-0.1,0.4-0.1,0.6c-0.2,1.1-0.4,2.3-0.6,3.5c-0.2,1.2-0.3,2.3-0.4,3.4c0,0.1,0,0.2,0,0.4
		c-0.2,2.1-0.2,4.1-0.1,5.9c-2.8,1.4-6.8,3.9-10.7,8c-4.4,4.6-6.8,9.4-8,12.4C665.4,657.9,663.4,657.4,661.3,656z"/>
	<path class="st7" d="M677,619.4l-3.6,9C674.6,625.2,675.8,621.9,677,619.4z"/>
	<path class="st8" d="M714.9,582.9v-0.1c-1.3-1.3-3.3-3-5.9-4.4c-1.9-1-3.7-1.7-5.1-2.1c-4.7,2.6-10.9,6.6-17.1,12.7
		c-4.9,4.9-8.4,9.7-10.9,13.7h0.1c-9.1,21.3-18.3,43.1-27.4,64.9c2.6,0.6,5.1,1.1,7.7,1.7c7.9-1.5,17.5-4.1,27.8-8.7
		c6-2.6,11.2-5.5,15.7-8.2c0.4-0.7,0.8-1.4,1.2-2.2c0,0,0,0,0,0h0c3.4-6.3,7-14.5,9.8-24.4c0.4-1.3,0.7-2.7,1.1-4
		c0.8-3.1,1.4-6.2,1.8-9.1C715.7,600.7,715.5,590.4,714.9,582.9z M703.3,608.2c0,1.2-0.2,3.7-0.5,8.8c-0.3,4.5-0.4,5.8-0.7,5.8
		c0,0,0,0-0.1,0c0,0,0,0,0,0c0,0-0.1-0.1-0.1-0.2c-0.2-0.4-0.3-1.2-0.4-2.2c0-0.2,0-0.3-0.1-0.5c0-0.1,0-0.3-0.1-0.5
		c0-0.3-0.1-0.7-0.1-1c-0.1-0.5-0.1-1.1-0.2-1.6c-0.1-0.9-0.3-1.8-0.4-2.8c-0.5-2.6-1.1-5.1-2.1-6.7c-0.1-0.2-0.2-0.3-0.3-0.4
		c-0.1-0.1-0.2-0.3-0.3-0.4c0,0-0.1-0.1-0.1-0.1c0,0,0-0.1-0.1-0.1c-0.3-0.3-0.5-0.4-0.8-0.6c-0.1,0-0.2-0.1-0.3-0.1
		c-0.9-0.2-1.8,0.2-2.8,0.9c-1,0.8-2.1,1.9-3.2,3.3l-0.3,0.4l-1.9,2.6c-1.2,1.8-2.2,3.6-3.1,5v0c1,0.9,1.7,1.8,2.1,2.5
		c-0.2,0.7-0.4,1.5-0.6,2.2c-0.1,0.3-0.1,0.6-0.2,0.9c0,0.1-0.1,0.3-0.1,0.5c0,0.2-0.1,0.4-0.1,0.6l-1.1,13.1
		c-2.8,1.4-6.8,3.9-10.7,8c-4.4,4.6-6.8,9.4-8,12.4c-1.2-0.2-3.2-0.7-5.3-2c-1.9-1.2-3.1-2.6-3.7-3.6c1-2.3,2.1-4.6,3.1-7
		c0.4-0.6,1.1-1.5,2-2.4c1.7-1.6,3.5-2.2,3.8-2.4c2.6-1.1,4.7-6.7,6.8-12.4c1.2-3.3,2.4-6.6,3.6-9c1.2-2.5,2.4-4.1,3.8-4.2
		c3.1-4.9,6.1-9.9,9.2-14.8c1.4-2.3,2.9-4.6,4.3-7c0.8-0.5,2.1-1.1,3.8-1.3c0.7-0.1,1.4-0.2,2-0.2c1.3,0,2.3,0.2,3,0.4
		C703,592.3,703.5,599.9,703.3,608.2z"/>
	<path class="st7" d="M652.7,564.1c-1.3-3.2-4.6-12-4.9-13.6c-0.3-1.7,2.4-32,3.2-40.5l0.2,0c2.6,10.6,5.1,21.1,7.6,31.7
		c-1.7,7.4-3.5,14.8-5.2,22.2L652.7,564.1z"/>
	<path class="st6" d="M630.3,287.2c0.4-14-0.4-37.3-9-64.2c10.5-29.6,21.1-61.9,21.1-70.2c22.7,21.3,46,49.9,55.7,84
		c-3.3,7.2-6.7,13.9-10,20.1c-0.2,0.3-0.4,0.7-0.5,1c-2.5-5.1-5.4-10.6-9-16.4c-4.4-7.1-8.9-13.3-13.2-18.6c-4.2,9.3-8.8,19-14.1,29
		c-6.9,13-13.9,24.9-20.9,35.7C630.3,287.4,630.3,287.3,630.3,287.2z"/>
	<path class="st10" d="M593.7,626.4c-1.9-2.2-4.4-3.7-7.4-4.2c2.6-1.8,5.3-3.7,8-5.5c16.5-11.2,32.4-20.6,47.2-28.5
		c1.6,2,3.2,4.2,4.8,6.6c2.1,3.1,3.9,6.1,5.4,8.9c0.1,2.8,0.1,5.6,0.2,8.4c-3.7,0.1-7.5,0.4-11.4,0.7c-1.9,0.1-3.8,0.3-5.7,0.5
		c0.2-0.7,0.4-1.5,0.6-2.2C637.1,603.7,615.2,614.4,593.7,626.4z"/>
	<path class="st4" d="M618.4,214.4c2-12,3.6-25,4.5-38.8c1.7-25.2,0.7-47.7-1.3-66.7c13.5,6.9,35.7,20.7,54.6,45.8
		c17.3,23,25.2,47,28.8,66.2c-2.2,5.5-4.5,10.7-6.8,15.8c-9.7-34.1-33-62.7-55.7-84c0,8.3-10.6,40.6-21.1,70.2
		C620.4,220.2,619.5,217.3,618.4,214.4L618.4,214.4z"/>
	<path class="st6" d="M597,283.1l3.7-6.2c0.6,0,10.6-25.8,20.7-54c8.6,26.9,9.4,50.2,9,64.2c-13.7,21.8-27.7,43.9-42.2,66.1
		C583.1,342.3,597,283.1,597,283.1z"/>
	<path class="st11" d="M596.3,765.4c9.7-4.1,17.7-8.5,23.8-12.3c0.4,2.6,0.8,5.4,1.2,8.4c0.3,2.4,0.6,4.8,0.9,7.4
		c1,10.1,1.6,21.5,1.1,33.5c-6-5.4-12.7-9-18.6-9.3c-2.9-0.1-7.1,1.1-12.1,3.1c5-14.7,8.1-26.7,8.1-26.7L596.3,765.4z"/>
	<path class="st12" d="M562.4,775.7c7.9-7.1,16.1-14.4,24.6-21.6c9.2-7.8,19.3-15.1,28.7-22c0,0,0.1,0,0.1,0
		c0.4,0.9,2.2,7.9,4.2,21.1c-6.1,3.8-14.1,8.2-23.8,12.3C586.6,769.5,575.2,773.3,562.4,775.7z"/>
	<path class="st10" d="M595.2,628.5c-0.4-0.7-0.9-1.4-1.4-2c21.4-12,43.4-22.8,41.6-15.3c-0.2,0.8-0.4,1.5-0.6,2.2
		c-2.6,0.2-5.2,0.5-7.7,0.8c-9.8,3.7-20.2,8.3-31.2,13.9C595.6,628.2,595.4,628.3,595.2,628.5z"/>
	<path class="st10" d="M584.8,647.6c-5.1,0.3-9.7-2.4-12-6.6c6.9-4.2,14.3-8.4,22.3-12.5c0.9,1.7,1.5,3.5,1.7,5.6
		C597.2,641.1,591.9,647.2,584.8,647.6z"/>
	<path class="st10" d="M586.3,622.3l-13.7,10C577,628.9,581.5,625.6,586.3,622.3z"/>
	<path class="st10" d="M571.3,635.6c0-0.9,0-1.7,0.1-2.5v0l1.2-0.9l13.7-10l0.1,0c2.9,0.5,5.5,2.1,7.4,4.2
		c-7.7,4.3-15.3,8.8-21.7,12.7C571.6,638,571.3,636.8,571.3,635.6z"/>
	<path class="st10" d="M572,639.1c6.4-3.9,14.1-8.3,21.7-12.7c0.5,0.6,1,1.3,1.4,2c-8,4.1-15.5,8.3-22.3,12.5
		C572.5,640.4,572.2,639.8,572,639.1z"/>
	<path class="st13" d="M622.3,644.1c-7.2-0.5-60.4,15.2-60.4,15.2l-5.7-7.4c5.2-3.6,10.7-7.3,16.7-10.9c2.3,4.2,6.9,6.9,12,6.6
		c7-0.4,12.4-6.5,12-13.5c-0.1-2-0.7-3.9-1.7-5.6c0.2-0.1,0.5-0.3,0.7-0.4c11-5.6,21.4-10.1,31.2-13.9c2.5-0.3,5.1-0.6,7.7-0.8
		C631.2,626.9,623.8,638.5,622.3,644.1z"/>
	<path class="st10" d="M572.8,641c-6,3.6-11.5,7.3-16.7,10.9l-1.6-2.1c0,0,7.3-4.6,17.5-10.7C572.2,639.8,572.5,640.4,572.8,641z"/>
	<path class="st10" d="M552.4,654.5c-0.9-1.4-1.7-2.8-2.6-4.2c0,0,0,0,0-0.1c6.7-5.6,13.9-11.3,21.5-17.1c-0.1,0.8-0.1,1.6-0.1,2.5
		c0.1,1.2,0.3,2.4,0.7,3.5c-10.2,6.1-17.5,10.7-17.5,10.7l1.6,2.1C554.9,652.7,553.7,653.6,552.4,654.5z"/>
	<path class="st5" d="M548.2,413.4c-1.8-7.8-4.3-18.1-7.3-29.9l0.5-0.1c3-4,55.6-100.3,55.6-100.3s-13.9,59.2-8.9,70.2
		c-2.3,3.5-4.6,7.1-6.9,10.6C570.1,380.7,559.2,397.2,548.2,413.4z"/>
	<path class="st6" d="M532,327.2c0,0,59.7-90.7,61.5-100.1c1.8-9.4,5.9,49.8,7.2,49.8l-3.7,6.2c0,0-52.6,96.3-55.6,100.3l-0.5,0.1
		c-0.4-1.6-0.8-3.2-1.2-4.8c0,0,0-0.1,0-0.1c-3.3-15.8-6.4-32.2-9-49.4c-0.1-0.6-0.2-1.2-0.3-1.8L532,327.2z"/>
	<path class="st7" d="M536,715.6l-9.9-9h10.3l-0.2-24.2l11.9,21.1c0,0-9.7,10.3-9.7,11C538.5,715.2,536,715.6,536,715.6z"/>
	<path class="st7" d="M533.1,660.7c2.1,1.3,4.2,1.1,4.9,1c0-0.6,0-1.3,0.1-1.9h0c0,0.9,0.1,1.7,0.2,1.9c0.8,0,2.9,0.1,4.9-1.3
		c0.9-0.6,1.4-1.3,1.8-1.8c0,0,0,0,0,0c3.1,0.2,5.5,0.8,7.2,1.3c3.6,1,4,1.8,4,2.2c0.2,0.8-0.4,1.6-3.4,4.1c-3.7,3-5.5,4.5-7,4.9
		c-0.5,0.1-6.1,1.6-10.3-2.3c-3.1-2.9-3.4-6.8-3.4-7.6l0.3-0.8C532.7,660.4,532.9,660.5,533.1,660.7z"/>
	<path class="st7" d="M524.4,752.8c-2.9-1.6-8.3-5.3-7.5-7.9c0.2-0.7,1-1.8,9.2-2.9s12.3-1.7,16.4-0.7c8.8,2.2,16.9,8.9,16,11.4
		c-0.3,0.7-1.4,1.1-2.1,1.2c-1.9,0.2-3-1.5-4.3-2.4c-4.3-2.8-10.2,4.5-19.4,3.9C528.9,755.2,526.1,753.7,524.4,752.8z"/>
	<path class="st7" d="M532.4,636.8l-22.3-23.5l17.9,12.3c0,0,3.5-34-0.7-55.1c-0.5-2.3-1.3-4.6-2.5-7l4.3-2.2
		c2.8,5.4,5.4,10.6,7.9,15.8c4.9-10.5,9.1-21.3,15.2-32.5c0.7-1.2,1.4-2.5,2.1-3.7c3-5.2,6.1-10.3,9.3-15.3v0
		c15-23.8,31.5-45.3,46.1-62.5c3.8-1.2,9.4-2.4,16.2-2.4c6.6,0,12,1.2,15.8,2.4c6.3,7.5,13.4,17.4,19.9,29.6c0.4,0.7,0.7,1.4,1,2.1
		c-12.6-5.6-29.7-5.3-40.3-5.3c-15,0-18.4,11.4-43.6,36.1c-25.1,24.7-25.1,71.6-25.1,71.6s-3.5,25.9-6.6,36.7
		c-0.7,2.4-1.3,4-1.9,4.4c-0.8,0.6-1.9,0.8-3.1,0.8C537.8,639.2,532.4,636.8,532.4,636.8z"/>
	<path class="st6" d="M494.3,504c-7.4-10.6-14.9-20.5-22.3-29.7l6.4-83.1l19.5,27.3l-4.7-99l30.6,180.2l-6.4-107.8l44.8,129.6
		l1.2,4.1v0c-3.2,5-6.3,10.1-9.3,15.3c-0.7,1.2-1.4,2.5-2.1,3.7L533.3,502c0,0-7.4,50.5-7.1,53.6l-0.2,0.1c-1.2-2.3-2.5-4.6-3.8-7
		l0.3-0.2c2-28.3-21.6-101-21.6-101s-2.4,43.1-5.7,55.9L494.3,504z"/>
	<path class="st5" d="M526.2,555.5c-0.3-3,7.1-53.6,7.1-53.6l18.8,42.7c-6.1,11.1-10.3,22-15.2,32.5c-2.5-5.2-5.1-10.5-7.9-15.8
		c-0.2-0.3-0.3-0.7-0.5-1v0c-0.8-1.5-1.6-3.1-2.5-4.6L526.2,555.5z"/>
	<path class="st11" d="M492.3,774c6.6,1.6,13.8,2.9,21.5,3.7c3.2,2.9,6.4,5.9,9.5,8.8h27.5c3.8-3.6,7.7-7.2,11.7-10.8
		c12.8-2.5,24.2-6.2,33.9-10.3l4.4,4.1c0,0-3.2,12-8.1,26.7c-20.5,7.9-54.9,27.9-71.3,18.5C507.4,806.9,497.3,786.4,492.3,774z"/>
	<path class="st4" d="M451.4,462.7c-2.6-13.3-23.7-147.1,39.3-199.2c3.1,29.2,2.2,36.4,2.7,31.4c0.5-4.9,9.4-34.6,14.8-36.8
		c5,22.1,20.6,78.7,31.5,120.6c0,0,0,0.1,0,0.1c2.6,12.2,5.3,23.9,8.2,35.1c0.7,2.6,1.3,5.3,2,7.9c-0.4-2.3-1-5.1-1.7-8.3
		c11-16.3,22-32.8,33-49.5c2.3-3.5,4.6-7.1,6.9-10.6c14.5-22.2,28.6-44.3,42.2-66.1c0,0.1,0,0.2,0,0.3c7-10.8,14-22.7,20.9-35.7
		c5.3-10,10-19.7,14.1-29c4.3,5.3,8.8,11.5,13.2,18.6c3.5,5.7,6.5,11.3,9,16.4c0.2-0.3,0.4-0.7,0.5-1c4,7.8,8.6,18,12.5,30.3
		c2.3,7.1,4.3,15,5.8,23.6c0.8,4.4,3.4,19.9,2.8,42l5.5,0.1c32.3-40.4,42.2-60.2,42.2-60.2s-37.8,160.1-83.3,229.8
		c-2.5-8.4-6-17.7-11-27.7v0c-0.3-0.7-0.7-1.4-1-2.1c-6.5-12.3-13.6-22.1-19.9-29.6c-3.8-1.1-9.2-2.3-15.8-2.4
		c-6.8,0-12.3,1.2-16.2,2.4c-14.6,17.3-31.1,38.7-46.1,62.5l-1.2-4.1l-44.8-129.6l6.4,107.8l-30.6-180.2l4.7,99l-19.5-27.3
		l-6.4,83.1c-2.6-3.2-5.2-6.3-7.8-9.4C461.1,464,456.7,463,451.4,462.7L451.4,462.7z"/>
	<path class="st10" d="M502.4,643.1c0.3-0.6,0.5-1.2,0.7-1.9v0c10.6,5.5,18.1,9.6,18.1,9.6l-1.5,2.2
		C514.4,649.7,508.6,646.4,502.4,643.1z"/>
	<path class="st10" d="M503.4,635.2c8,5.3,15.5,10.6,22.5,15.7c0,0,0,0,0,0c-0.8,1.5-1.6,2.9-2.3,4.4c-1.2-0.8-2.5-1.6-3.8-2.4
		l1.5-2.2c0,0-7.5-4.1-18.1-9.6c0.3-1.1,0.5-2.3,0.5-3.5C503.6,636.8,503.5,636,503.4,635.2z"/>
	<path class="st10" d="M503.4,635.2C503.4,635.2,503.4,635.2,503.4,635.2L503.4,635.2L503.4,635.2z"/>
	<path class="st5" d="M501,447.4c0,0,23.6,72.7,21.6,101l-0.3,0.2c-1.4-2.6-2.9-5.1-4.4-7.7c-7.7-13.2-15.6-25.5-23.5-36.9l1-0.7
		C498.6,490.5,501,447.4,501,447.4z"/>
	<path class="st10" d="M502.2,634.5l-14.4-9.2C492.8,628.3,497.6,631.4,502.2,634.5z"/>
	<path class="st10" d="M480.6,629.9c1.8-2.3,4.2-4,7.1-4.7l0.1,0.1l14.4,9.2l0.2,0.2l0.9,0.6c0,0,0,0,0,0c0.1,0.8,0.2,1.6,0.2,2.4
		c0,1.2-0.2,2.4-0.5,3.5C496.4,637.7,488.6,633.7,480.6,629.9z"/>
	<path class="st10" d="M430.6,594.6c15.2,7,31.7,15.4,48.8,25.6c2.8,1.7,5.6,3.4,8.3,5c-2.9,0.7-5.4,2.4-7.1,4.7
		c-22.1-10.7-44.7-20.1-42.5-12.7c0.2,0.7,0.4,1.5,0.7,2.2c-1.9-0.1-3.8-0.1-5.8-0.1c-3.9-0.1-7.8-0.1-11.4,0
		c-0.1-2.8-0.2-5.6-0.3-8.4c1.4-2.9,3-6.1,4.9-9.3C427.7,599,429.1,596.7,430.6,594.6z"/>
	<path class="st10" d="M480.6,629.9c7.9,3.8,15.8,7.8,22.5,11.3v0c-0.2,0.7-0.4,1.3-0.7,1.9c-7.1-3.8-14.8-7.6-23-11.1v0
		C479.7,631.2,480.1,630.5,480.6,629.9z"/>
	<path class="st10" d="M479.3,632c8.2,3.6,15.9,7.3,23,11.1c-2,4.3-6.5,7.3-11.6,7.3c-7.1,0-12.8-5.7-12.8-12.8
		C478,635.6,478.5,633.7,479.3,632z"/>
	<path class="st7" d="M477.4,664.1c2.3,0.1,4.6,0.3,7,0.6c13.8,1.5,25.5,4.3,34.9,7.3l-0.1,0.3c-0.3,1.5-1,3.8-2.7,6.1
		c-4,5.4-10.1,6.3-11.4,6.5c-6.4,0.8-11.3-2.4-16.2-5.6c-3-2-9.7-6.9-13.9-13.2v0c0.8,0,1.6,0.1,2.3,0.1L477.4,664.1z"/>
	<path class="st8" d="M468.5,758.4c0.1,0.1,0-0.4,0.1-0.3c0.5-3.4,1.1-6.6,1.6-9.4c0.5-2.6,1-5.1,1.5-7.2c2.1,1.7,4.1,3.4,6.2,5.1
		c3,2.5,6,4.9,9,7.5c9.4,7.9,18.4,15.8,26.9,23.7c-7.7-0.8-14.9-2.1-21.5-3.7c-9.5-2.3-17.8-5.2-24.7-8c0.2-2,0.5-3.9,0.8-5.8v0
		C468.3,759.6,468.3,759,468.5,758.4z"/>
	<path class="st7" d="M432.3,464.9c3.8-1.1,9.2-2.3,15.8-2.4c1.1,0,2.2,0,3.3,0.1h0c5.3,0.3,9.7,1.3,12.9,2.3c2.6,3,5.2,6.2,7.8,9.4
		c7.4,9.1,14.9,19,22.3,29.7c8,11.4,15.8,23.7,23.5,36.9c1.5,2.6,3,5.2,4.4,7.7c1.3,2.4,2.6,4.7,3.8,7c0.9,1.6,1.7,3.1,2.5,4.6v0
		c0.2,0.3,0.3,0.7,0.5,1l-4.3,2.2c-9.8-19.1-41.7-39.3-55.5-53.5c-15.5-15.9-24.4-12-24.4-12s-31.3,7.8-38.7,9.9
		c1.8-4.3,3.9-8.8,6.2-13.3c1.1-2.1,2.2-4.1,3.4-6.1C421.3,479,427,471.2,432.3,464.9z"/>
	<path class="st4" d="M443.1,272c-6.6-12.4-13.5-27.4-19.5-44.9c-2-5.7-3.7-11.3-5.2-16.7c7.4-25.9,17.1-46.9,25.4-62.4
		c2.3,14,6.4,30.8,13.9,48.8C446.8,227.1,443.8,253.9,443.1,272z"/>
	<path class="st13" d="M438.9,619.3c2.6,0.1,5.2,0.2,7.7,0.4c10,3.1,20.7,7.1,32,12c0.3,0.1,0.5,0.2,0.8,0.3
		c-0.9,1.7-1.3,3.6-1.3,5.7c0,7,5.7,12.8,12.8,12.8c5.1,0,9.5-3,11.6-7.3c6.2,3.3,12,6.6,17.3,9.9l-5.3,7.8c0,0-54.1-12.5-61.2-11.5
		C451.4,643.7,443.3,632.6,438.9,619.3z"/>
	<path class="st10" d="M438.2,617.2c-2.2-7.4,20.3,2,42.5,12.7c-0.5,0.6-0.9,1.3-1.3,2.1v0c-0.3-0.1-0.5-0.2-0.8-0.3
		c-11.3-4.9-22-8.8-32-12c-2.5-0.1-5.1-0.3-7.7-0.4C438.6,618.6,438.4,617.9,438.2,617.2z"/>
	<path class="st4" d="M618.4,214.5L618.4,214.5c-1.5-4.1-3.3-8.3-5.2-12.6c-12.9-28.3-30-47.6-41.8-58.8c0.8,13.1,0.8,29.8-2.2,48.9
		c-3.1,19.3-8.2,35.3-13,47.6c-8.3-17.3-17.2-39.7-23.6-66.7c-7.1-30.2-8.9-56.8-8.8-77.4c-16.3,15.3-41.9,43.3-60.2,85.8
		c-2.3,5.3-4.3,10.4-6.1,15.5c-10.7,30.3-13.8,57.1-14.5,75.2c-6.6-12.4-13.5-27.4-19.5-44.9c-2-5.7-3.7-11.3-5.2-16.7
		c-3.5-12.4-5.9-23.9-7.6-34.1c-18.8,22.7-46.8,62.9-61,119.6c-7,27.9-8.9,53-8.9,73.3c0,0.8,0,1.7,0,2.5c-1.6-2.6-3.2-5.3-4.8-7.9
		c-0.2-0.4-0.5-0.8-0.7-1.2c-0.5-0.8-0.9-1.6-1.4-2.3c-17.2-28.2-34.4-56.5-51.7-84.7c1.4,41.4,4.7,85.8,10.6,132.8
		c3.4,27.2,7.4,53.3,11.9,78.2c2.1,4.6,4.2,9.3,6.3,13.9c-7.6-4.7-15.5-9.6-23.3-14.8c-14-9.3-27.1-18.6-39.3-27.8
		c8.9,24.9,17.2,44.2,23.4,57.5c6.2,13.5,10.7,22,14.1,28.1c3.4,6,30,46.5,42.9,58.8c9.5,9.1,28.3,21.3,35.4,28.4c0,0,0,0,0,0
		c1.7,0.4,1.8,1.2,1.8,1.2s0.3,0.6,0.7,1.4c-1-3.1-2-6.3-2.8-9.8c-3.9-15.8-3.8-29.5-3-38.8c1.3-1.3,3.3-3,5.9-4.4
		c1.9-1,3.7-1.7,5.1-2.1c4.8,2.6,11,6.6,17.1,12.7c4.9,4.9,8.4,9.7,10.9,13.7h0l6.8,0.7c1.5-1.4,3.7-3.9,5.5-7.4
		c0.3-0.5,0.5-1,0.7-1.5c1.4-3.4,1.8-6.4,1.9-8.3l-13.8-12.6l-4-37.7c1-4.6,2.2-9.7,4-15.2c0,0,0,0,0,0c-0.3-0.4-0.8-1.1-1.4-2.3
		c-0.3-0.5-0.7-1.2-1.2-1.8c-0.2-0.4-0.5-0.8-0.8-1.2c-0.1-0.2-0.3-0.4-0.4-0.7c-0.1-0.1-0.1-0.2-0.2-0.4c-0.2-0.4-0.5-0.7-0.7-1.1
		c-3.3-5.3-8.1-13.2-13.6-22.5c-0.6-0.9-1.2-1.9-1.8-2.9c-7.9-13.4-17-29.5-25.2-45.3c-0.8-1.6-1.7-3.2-2.5-4.8
		c-1.1-2.2-2.2-4.5-3.3-6.7c-0.9-1.9-1.8-3.7-2.7-5.6c-4.9-10.3-9-20.1-11.7-28.4c-0.3-0.8-0.5-1.5-0.7-2.2
		c-0.4-1.5-0.8-2.9-1.2-4.3c-0.3-1.3-0.6-2.5-0.8-3.6c-0.5-2.6-0.8-5-0.8-7.1c29.4,42.4,83.8,106.9,83.8,106.9l0.1,0.1
		c5.5-9.5,11.3-17.3,16.5-23.5c3.8-1.1,9.2-2.3,15.8-2.4c1.1,0,2.2,0,3.3,0.1c-2.6-13.3-23.7-147.1,39.3-199.2
		c3.1,29.2,2.2,36.4,2.7,31.4c0.5-4.9,9.4-34.6,14.8-36.8c5,22.1,20.6,78.7,31.5,120.6c-3.3-15.8-6.4-32.2-9-49.4
		c-0.1-0.6-0.2-1.2-0.3-1.8l1.6-0.3c0,0,59.7-90.7,61.5-100.1c1.8-9.4,5.9,49.8,7.2,49.8c0.6,0,10.6-25.8,20.7-54
		C620.4,220.2,619.5,217.3,618.4,214.5z M427.9,314.8c-4.1,8-8.2,16.4-12.3,25.4c0,0.1,0,0.1-0.1,0.2c-2.7-7.8-14.3-41.7-8.2-64.8
		C421.9,303.4,426.5,312.1,427.9,314.8C427.9,314.8,427.9,314.8,427.9,314.8z"/>
	<path class="st7" d="M425.8,563.3c-0.3,2-5.4,14.8-5.4,14.8l-0.1,0.2c-1.9-1.5-4.5-4.1-6.7-7.9c-2.9-5.2-3.5-10-3.6-12.6
		c4-12.4,8.1-24.8,12.1-37.3h0.3C422.5,520.5,426.2,561.2,425.8,563.3z"/>
	<path class="st12" d="M545.9,643.8l-0.3-0.5l-3.8-4.1c-4,0-9.5-2.4-9.5-2.4L510,613.3l17.9,12.3c0,0,3.5-34-0.7-55.1
		c-0.5-2.3-1.3-4.6-2.5-7c-9.8-19.1-41.7-39.3-55.5-53.5c-15.5-15.9-24.4-12-24.4-12s-31.3,7.8-38.7,9.9v0
		c-2.1,5.1-3.8,9.9-5.3,14.5c0,0,0,0,0,0c-1.7,5.6-3,10.7-4,15.2l4,37.7l13.8,12.6c-0.1,1.9-0.5,4.9-1.9,8.3c-0.2,0.5-0.4,1-0.7,1.5
		l6.8,2.6c-1,2.2-2,4.9-2.8,7.1l2.3,0.5c0,0.1-0.1,0.2-0.1,0.3c0,0.2-0.1,1.2-0.1,2.4l3,0.1c1.4-2.9,3-6.1,4.9-9.3
		c1.5-2.5,2.9-4.8,4.4-6.9c15.2,7,31.7,15.4,48.8,25.6c2.8,1.7,5.6,3.4,8.3,5l0.1,0.1c5,3.1,9.7,6.1,14.4,9.2l0.3,0.2l0.9,0.6h0v0
		c8,5.3,15.5,10.5,22.5,15.7l3.5-6.7l2.2,1.2c-0.1,4.5-0.2,9-0.3,13.5c0.3,0.4,0.7,0.8,1.2,1.3c0.2,0.1,0.4,0.3,0.6,0.4
		c2.1,1.3,4.2,1.1,4.9,1c0-0.6,0-1.3,0.1-1.9h0c0,0.9,0.1,1.7,0.2,1.9c0.8,0,2.9,0.1,4.9-1.3c0.8-0.6,1.4-1.3,1.7-1.8c0,0,0,0,0,0
		c-0.4-4.4-0.8-8.9-1.1-13.4L545.9,643.8z M425.8,563.3c-0.3,2-5.4,14.8-5.4,14.8l-0.1,0.2c-1.9-1.5-4.5-4.1-6.7-7.9
		c-2.9-5.1-3.5-10-3.6-12.6c4-12.4,8.1-24.8,12.1-37.3h0.3C422.5,520.5,426.2,561.2,425.8,563.3z"/>
	<path class="st5" d="M427.9,314.8C427.9,314.8,427.9,314.8,427.9,314.8c-4.1,8-8.2,16.5-12.3,25.4c0,0.1,0,0.1-0.1,0.2
		c-2.7-7.8-14.3-41.7-8.2-64.8C421.9,303.4,426.5,312.1,427.9,314.8z"/>
	<path class="st12" d="M669,603.3c-1.5-1.4-3.7-3.9-5.5-7.4c-1.9-4-2.4-7.6-2.5-9.8c4.6-4.2,9.2-8.4,13.8-12.6l0-0.7v0l2.1-37
		c-0.8-4-1.9-8.5-3.4-13.4c-2.5-8.4-6-17.7-11-27.7v0c-12.6-5.6-29.7-5.3-40.3-5.3c-15.1,0-18.4,11.5-43.6,36.2
		c-25.1,24.7-25.1,71.6-25.1,71.6s-3.5,25.9-6.6,36.7c-0.7,2.4-1.3,4-2,4.5c-0.8,0.6-1.9,0.8-3.1,0.8l3.8,4.1l0.3,0.5l-2.1,1.3
		c0.4,4.5,0.7,9,1.1,13.4c3.1,0.2,5.5,0.8,7.2,1.3c3.6,1,4,1.8,4,2.2c0.2,0.8-0.4,1.6-3.4,4.1c-3.7,3-5.5,4.5-7,4.9
		c-0.5,0.1-6.1,1.6-10.3-2.2c-3.1-2.9-3.4-6.8-3.4-7.6l0.3-0.8c-0.5-0.4-1-0.9-1.2-1.3c0.1-4.5,0.2-9,0.3-13.5l-2.2-1.2l-3.5,6.7
		c0,0,0,0.1,0,0.1c-0.8,1.5-1.6,2.9-2.3,4.4c-1.2-0.8-2.5-1.6-3.8-2.4l-5.3,7.8c0,0-54.1-12.5-61.2-11.5c-1.8-5.5-10-16.6-14.4-29.9
		c-1.9-0.1-3.8-0.1-5.8-0.1c-3.9-0.1-7.8-0.1-11.4,0c-0.1-2.8-0.2-5.6-0.3-8.4l-3-0.1c0-1.2,0.1-2.2,0.1-2.4c0,0,0-0.1,0.1-0.3
		l-2.3-0.5c0.8-2.3,1.9-4.9,2.8-7.1l-6.8-2.6c-1.7,3.6-3.9,6-5.5,7.4l-6.8-0.7h0l-0.1,0c9.2,21.6,18.5,43.2,27.8,64.8v0
		c8.1,18.9,16.2,37.7,24.3,56.6c6.5,5,13.1,10.2,19.8,15.6c2.1,1.7,4.1,3.4,6.2,5.1c3,2.5,5.9,4.9,9,7.5c9.4,8,18.4,15.9,26.9,23.7
		c3.2,2.9,6.4,5.9,9.5,8.8h27.5c3.8-3.6,7.7-7.2,11.7-10.8c7.9-7.1,16.1-14.4,24.7-21.6c9.2-7.7,19.3-15.1,28.7-22
		c0-0.2,0-0.2,0.1,0c2.8-2,5.5-4.1,8.1-6.1c8.2-19.2,16.4-38.8,24.6-58.4v0c9.1-21.8,18.3-43.6,27.4-64.9h-0.1L669,603.3z
		 M536.5,706.6l-0.3-24.2l11.9,21.1c0,0-9.7,10.3-9.7,11c0,0.7-2.5,1.1-2.5,1.1l-9.9-9H536.5z M505,684.8
		c-6.4,0.8-11.3-2.4-16.2-5.6c-3-2-9.7-6.9-13.9-13.2v0c0.8,0,1.5,0.1,2.3,0.1l0.2-2.1c2.3,0.1,4.6,0.3,7,0.6
		c13.8,1.5,25.5,4.3,34.9,7.3l-0.1,0.3c-0.3,1.5-1,3.8-2.7,6.1C512.5,683.7,506.4,684.7,505,684.8z M558.5,752.7
		c-0.3,0.7-1.4,1.1-2.1,1.2c-1.9,0.2-3-1.5-4.3-2.4c-4.3-2.8-10.2,4.5-19.4,3.9c-3.9-0.2-6.6-1.8-8.3-2.7c-2.9-1.6-8.3-5.3-7.5-7.9
		c0.2-0.7,1-1.9,9.2-2.9s12.3-1.7,16.4-0.7C551.3,743.5,559.4,750.2,558.5,752.7z M640.5,612.9c-1.9,0.1-3.8,0.3-5.7,0.5
		c-3.6,13.5-11,25.1-12.5,30.7c-7.2-0.5-60.4,15.2-60.4,15.2l-5.7-7.4c-1.3,0.9-2.5,1.7-3.7,2.6c-0.9-1.4-1.7-2.8-2.6-4.2
		c0,0,0,0,0-0.1c6.7-5.6,13.9-11.3,21.5-17.1v0l1.2-0.9c4.4-3.3,9-6.7,13.7-10l0.1,0c2.6-1.8,5.3-3.7,8-5.5
		c16.5-11.2,32.4-20.6,47.2-28.5c1.6,2,3.2,4.2,4.8,6.6c2.1,3.1,3.9,6.1,5.4,9c0.1,2.8,0.1,5.6,0.2,8.4
		C648.2,612.3,644.5,612.6,640.5,612.9z M653.6,563.8l-0.9,0.3c-1.3-3.2-4.7-12-4.9-13.6c-0.3-1.7,2.4-32,3.2-40.5l0.2,0
		c2.5,10.5,5.1,21.1,7.6,31.6C657.1,549,655.3,556.4,653.6,563.8z"/>
	<path class="st5" d="M399.4,520.2c-0.3-0.5-0.7-1.1-1.2-1.8C398.7,519,399.1,519.6,399.4,520.2z"/>
	<path class="st7" d="M391,619.3c1.5-1.3,3-1.9,4-2.3c0.2,0.2,0.4,0.4,0.7,0.7l0,0c1.7,2.5,6.4,9,6.8,9.5c0.2,0.3-0.1,1.8-0.6,3.4
		c-0.7,2.5-1.8,5.4-1.8,5.4c0.2,1.2,7.6,5,8.3,5.2c0.1,0,0.8,0.7,1.6,1.8h0c2.2,2.8,6.2,8.1,7.5,9.9c0.1,0.2,0.2,0.5,0.3,0.7
		l-6.9,5.5c0,0-7.5-9.3-8.6-10.5c-0.1-0.1-0.2-0.2-0.4-0.4c-0.2-0.3-0.4-0.5-0.7-0.8c-2.6-2.7-5.2-4.7-7.5-6.1
		c-1.7-1.4-3-2.5-3.2-2.6c0-2.6-0.1-5.6-0.6-8.9c-0.3-2.2-0.7-4.1-1.1-6L391,619.3C390.9,619.3,390.9,619.3,391,619.3z"/>
	<path class="st5" d="M331.9,381.5c29.4,42.4,83.7,106.9,83.7,106.9l0.1,0.1c-1.1,2-2.3,4-3.4,6.1c-2.4,4.6-4.5,9-6.2,13.3v0
		c-2.1,5.1-3.8,9.9-5.3,14.5c-0.3-0.4-0.8-1.1-1.4-2.3c-0.3-0.5-0.7-1.2-1.2-1.8c-0.2-0.4-0.5-0.8-0.8-1.2c-0.4-0.7-0.9-1.4-1.3-2.1
		c-3.3-5.3-8.1-13.2-13.6-22.5c-0.6-0.9-1.2-1.9-1.8-2.9c-7.9-13.4-17-29.5-25.2-45.3c-0.9-1.6-1.7-3.2-2.5-4.8
		c-1.1-2.2-2.2-4.4-3.3-6.7c-0.9-1.9-1.8-3.7-2.7-5.6c-4.9-10.3-9-20.1-11.7-28.4c-0.3-0.8-0.5-1.5-0.7-2.3
		c-0.4-1.5-0.8-2.9-1.2-4.3c-0.3-1.3-0.6-2.5-0.8-3.6C332.2,386,331.9,383.6,331.9,381.5z"/>
	<path class="st5" d="M382.6,492.5c-0.6-0.9-1.2-1.9-1.8-2.9C381.4,490.6,382,491.6,382.6,492.5z"/>
	<path class="st8" d="M399.8,604.5L399.8,604.5c-2.4-4-5.9-8.8-10.8-13.6c-6.2-6.1-12.4-10.1-17.1-12.7c-1.4,0.4-3.2,1.1-5.1,2.1
		c-2.6,1.4-4.6,3.1-5.9,4.4c-0.8,9.4-0.8,23,3,38.8c0.8,3.5,1.8,6.7,2.8,9.8c0.6,1.2,1.3,3.1,1.7,4.6c2.5,6.5,5.2,11.9,7.6,16.2
		l29.7,13.5l0,0h0c4.9,1.5,9.5,2.6,13.7,3.4c2.7-0.6,5.4-1.2,8.1-1.8C418.3,647.7,409,626.1,399.8,604.5z M414.4,657.9
		c-2.1,1.4-4.1,1.9-5.3,2c-1.1-2.9-3.3-7.3-7.3-11.7c-1.4-1.3-5.3-4.5-8.1-6.9c-1.2-0.8-2.3-1.4-3.2-1.8c0-0.3,0-0.5,0-0.8
		c0,0,0,0,0,0l-1.9-14.5l0.2-0.3c-0.1-0.6-0.3-1.1-0.4-1.7c0.2-0.3,0.4-0.6,0.7-0.9l-0.6-0.4c0,0,0,0-0.1-0.1c0,0,0,0-0.1-0.1
		c0,0-0.1-0.1-0.2-0.2c0,0,0-0.1-0.1-0.1l-0.4-0.4c-0.3-0.3-0.8-0.8-1.3-1.3l-0.5-0.5c-0.1-0.1-0.2-0.2-0.3-0.3l-0.3-0.3
		c-1.8-1.8-4.1-3.9-5.8-5.1c-0.1-0.1-0.3-0.2-0.4-0.3c-0.2-0.2-0.4-0.3-0.6-0.4c-0.7-0.4-1.2-0.6-1.6-0.4c-1.6,0.7-3.2,7.6-3.5,11
		c-0.6-5.1-0.8-9.3-0.9-12.3c-0.1-7.2,0.3-16.1,0.3-15.9c1-0.3,2.8-0.6,4.9-0.2c1.7,0.3,3,0.9,3.8,1.3c1.4,2.3,2.9,4.6,4.3,7
		c3,4.9,6,9.8,9.1,14.6l0.2,0c0,0,0.2,0.3,0.6,0.9l0,0c1.5,1.6,3.2,3.5,4.8,5.8c1.5,2.1,2.6,4.1,3.5,5.8c-0.5,0.2-1.3,0.6-2.1,1.3
		c-0.7,2.5-1.7,5.4-1.7,5.4c0.2,1.2,7.6,5,8.3,5.2c0.2,0.1,0.8,0.7,1.6,1.8h0c0.9,0.4,1.9,1.1,3,2c0.9,0.8,1.6,1.7,2,2.4
		c0.8,1.8,1.7,3.7,2.5,5.6c0.3,0.4,0.5,0.6,0.5,0.6l-0.1,0.1c0.1,0.2,0.2,0.5,0.3,0.7C417.5,655.3,416.3,656.7,414.4,657.9z"/>
	<path class="st7" d="M373.4,622.4c-0.6-5.1-0.8-9.2-0.9-12.3c-0.1-7.2,0.3-16.1,0.3-15.9c1-0.3,2.8-0.6,4.9-0.2
		c1.7,0.3,3,0.9,3.8,1.3c1.4,2.3,2.9,4.6,4.3,7c3,4.9,6,9.8,9.1,14.7l-3.5,1.5l-0.5,1.1c-0.8,0.6-1.4,1.3-1.8,1.9l-0.6-0.4
		c0,0-9.7-10.3-11.6-9.4C375.2,612.2,373.6,619,373.4,622.4z"/>
	<path class="st5" d="M355.6,444.3c-0.9-1.6-1.7-3.2-2.5-4.8C354,441.1,354.8,442.7,355.6,444.3z"/>
	<path class="st3" d="M338.1,630.8c4.9-0.1,11.3-0.2,16.3-0.3c0,0,0.1,0,0.2,0c3.3,0,6.6,0.1,9.7,0.2c0,0,0-0.1-0.1-0.1
		c1.7,0.4,1.8,1.2,1.8,1.2s0.3,0.6,0.7,1.5c0.5,1.6,1.1,3.2,1.7,4.6c0.3,1.3,0.2,2.4-0.5,2.6c-2,0.7-31.9-7.9-36.9-9.4
		c1.9-0.1,3.9-0.2,6-0.3c0.1,0,0.1,0,0.2,0C337.5,630.9,337.8,630.9,338.1,630.8z"/>
	<path class="st3" d="M372.1,655.2c-6.3-1.6-14.6-4.4-23.6-9.6c-8.2-4.7-14.4-10-18.9-14.2c0.4,0,0.9-0.1,1.3-0.1
		c5,1.5,34.9,10.1,36.9,9.4c0.8-0.2,0.8-1.3,0.5-2.6c2.5,6.4,5.2,11.9,7.6,16.2C374.7,654.5,373.4,654.8,372.1,655.2z"/>
	<path class="st14" d="M542.9,231.6c2.5,0,5,0,7.6,0"/>
	<path class="st15" d="M615.8,732c0.4,0.9,2.2,7.9,4.2,21.1c0.4,2.6,0.8,5.4,1.2,8.4c0.3,2.4,0.6,4.8,0.9,7.4
		c0.2,1.2,0.4,2.4,0.7,3.6c19.9,6.5,43.7,12.3,61.5,23.9"/>
	<path class="st16" d="M466.1,808.1c-0.7-12.1-0.3-23.6,0.6-34"/>
	<path class="st16" d="M616.6,736.3c-0.6-2.3-0.8-3.7-0.9-4.2"/>
	<path class="st16" d="M622.1,768.9c1,10.1,1.6,21.5,1.1,33.5c0,1.3-0.1,2.7-0.2,4"/>
	<line class="st17" x1="468.5" y1="758.4" x2="468.4" y2="758.4"/>
	<path class="st16" d="M489.9,786.5c1.1,6.7,9.7,35.2,19.4,51"/>
	<g id="XMLID_1_">
		<g>
			<path class="st18" d="M881.5,918.7c-13.6,12-27.9,23.2-42.7,33.7c-14.1-35.6-47.9-56-62.8-63.4c0.2-2.6,0.3-5.2,0.5-7.7
				c0.5-6.6,1.1-12.6,1.9-17.4c0.1,0.1,0.2,0.2,0.3,0.3c11.4-1.7,31.1,3.6,60.7,16C861.3,889.3,873.9,908.4,881.5,918.7z"/>
			<path class="st11" d="M838.8,952.4c-13.1,9.3-26.6,17.9-40.5,26c-9.5-18.7-23.1-42.5-26.1-44.7c1.5-7.6,2.3-17.8,2.9-28.3v0
				c0.3-5.4,0.6-11,1-16.4C790.9,896.5,824.8,916.9,838.8,952.4z"/>
			<path class="st19" d="M798.3,978.4c-4.8,2.8-9.7,5.5-14.6,8.1c-8.1-14.9-16.6-29.2-18.8-30.9c-9.6-6.9-26.1-21.4-39.7-27.9
				c-17-8.3-47.4-15.9-60.8-19.3c-0.8-0.2-6.6-0.3-7.4-0.4c-4.2-0.2-8.3,1.6-10.9,5c-7,8.9-21.2,25-28.1,33.9
				c-0.2,0.3-0.5,0.5-1.1,0.7c-0.3,0.1-0.6,0.2-1,0.4c-0.9,0.3-2,0.5-3.2,0.8c-0.6,0.1-1.3,0.2-2,0.3c-1.2,0.2-2.5,0.4-3.8,0.5
				c-0.9,0.1-1.8,0.2-2.8,0.3c-0.5,0-1,0.1-1.5,0.1c-0.5,0.1-1,0.1-1.6,0.2c-0.5,0-1.1,0.1-1.6,0.1c-1.1,0.1-2.2,0.2-3.4,0.3
				c-4.7,0.3-10,0.6-15.6,0.9c-2.1,0.1-4.3,0.2-6.5,0.2c-10.4,0.3-18.6,8.9-18.6,19.3v76.1c-5,0.2-10.1,0.2-15.2,0.2
				c-2.5,0-5.1,0-7.6-0.1v-76c0-10.5-8.4-19.1-18.8-19.3c-1.5,0-2.9-0.1-4.3-0.1c-5.7-0.2-11-0.4-15.8-0.7c-1.1,0-2.2-0.1-3.2-0.2
				c-0.1,0-0.2,0-0.2,0c-1.1-0.1-2.2-0.1-3.3-0.2c-0.5,0-1-0.1-1.6-0.1c-0.9-0.1-1.9-0.2-2.8-0.3c0,0-0.1,0-0.1,0
				c-0.9-0.1-1.8-0.2-2.7-0.3c-0.4,0-0.8-0.1-1.2-0.1c-0.8-0.1-1.5-0.2-2.2-0.3c-0.9-0.1-1.8-0.3-2.5-0.5c-0.3-0.1-0.6-0.1-0.9-0.2
				c-0.1,0-0.3-0.1-0.4-0.1c-0.2,0-0.3-0.1-0.5-0.1c-1.1-0.3-1.8-0.7-2-1.1c-6.9-8.9-21.1-25-28.1-33.9c-2.6-3.4-6.7-5.2-10.9-5
				c-0.8,0-6.6,0.2-7.4,0.4c-13.3,3.4-43.7,11.1-60.7,19.3c-13.5,6.6-30,21.1-39.7,27.9c-2.4,1.8-11.8,17.7-20.3,33.6
				c-4.9-2.5-9.8-5.1-14.6-7.8c1.1-2.2,2.2-4.4,3.4-6.7c0.4-0.9,0.9-1.7,1.4-2.6c0.8-1.4,1.5-2.9,2.3-4.4c0.5-0.9,1-1.9,1.5-2.8
				c1.3-2.4,2.5-4.7,3.8-7c0.5-0.8,0.9-1.7,1.4-2.5c6.3-11.2,12-20.4,13.8-21.7c8-5.6,25.6-16.5,39-23.8c2.9-1.5,5.5-2.9,7.9-4.1
				c17-8.3,47.4-15.9,60.8-19.3c0.8-0.2,6.6-0.3,7.4-0.4c4.2-0.2,8.3,1.6,10.9,5c7,8.9,21.2,25,28.1,33.9c2.4,3,31,4.5,62.5,4.7
				c7.5,0.1,15.2,0,22.8-0.1c3.6,0,7.1-0.1,10.6-0.2c27.3-0.6,50.2-2.4,52.3-5c4.4-5.6,11.7-14.2,18.2-21.9c2.1-2.6,4.2-5,6.1-7.3
				c1.4-1.7,2.7-3.3,3.8-4.8c2.6-3.4,6.7-5.2,10.9-5c0.8,0,6.6,0.2,7.4,0.4c6.8,1.7,18,4.6,29.6,8c5.9,1.8,12,3.7,17.6,5.7
				c5,1.8,9.6,3.7,13.6,5.6c13.5,6.6,37.3,21.1,46.9,27.9C775.2,935.9,788.8,959.7,798.3,978.4z"/>
			<path class="st20" d="M783.7,986.5c-30.6,16.3-62.9,29.7-96.8,39.7c-15.8-35-40-53.4-45.8-55.5c-7-2.5-64,0.2-86,1.3v-1
				c0-10.4,8.2-19,18.6-19.3c2.2-0.1,4.4-0.1,6.5-0.2c5.6-0.3,10.9-0.5,15.6-0.9c1.2-0.1,2.3-0.2,3.4-0.3c0.6,0,1.1-0.1,1.6-0.1
				c0.5,0,1.1-0.1,1.6-0.2c0.5,0,1-0.1,1.5-0.1c1-0.1,1.9-0.2,2.8-0.3c1.4-0.1,2.7-0.3,3.8-0.5c0.7-0.1,1.4-0.2,2-0.3
				c1.3-0.3,2.4-0.5,3.2-0.8c0.4-0.1,0.7-0.2,1-0.4c0.5-0.3,0.9-0.5,1.1-0.7c6.9-8.9,21.1-25,28.1-33.9c2.6-3.4,6.7-5.2,10.9-5
				c0.8,0,6.6,0.2,7.4,0.4c13.3,3.4,43.7,11.1,60.8,19.3c13.5,6.6,30,21.1,39.7,27.9C767.1,957.3,775.6,971.5,783.7,986.5z"/>
			<path class="st21" d="M778.5,863.8c-0.8,4.9-1.4,10.9-1.9,17.4l-1.1-0.1c0,0-25.5-17.9-58.4-31.3l-15.1-37.4l18.4,9l-0.3-0.7
				c30.6,16.3,58.5,40,58.5,40h0.1C778.7,861.8,778.6,862.8,778.5,863.8L778.5,863.8z"/>
			<path class="st21" d="M778.6,860.8L778.6,860.8c-0.1,0-28-23.7-58.6-40l-9.1-22.7c14.1,6.4,33.4,18.7,56.4,42.6
				c0,0,5.5,4.6,8.9,11.2C777.6,854.6,778.6,857.6,778.6,860.8z"/>
			<path class="st21" d="M775.5,881.2l1.1,0.1c-0.2,2.5-0.3,5.1-0.5,7.7c-0.3,5.4-0.6,10.9-1,16.4c-5.1-2.6-31.9-16.3-60.6-26.7
				l-16.2-35.3l19,7l-0.2-0.5C749.9,863.3,775.5,881.2,775.5,881.2z"/>
			<path class="st21" d="M775.1,905.4L775.1,905.4c-0.6,10.6-1.5,20.7-2.9,28.4c-9.7-6.9-33.4-21.3-46.9-27.9
				c-3.9-1.9-8.6-3.8-13.6-5.6l-18.2-28.4l21.2,7.2l-0.2-0.4C743.1,889.1,769.9,902.7,775.1,905.4z"/>
			<path class="st9" d="M720.1,820.8l0.3,0.7l-18.4-9l15.1,37.4c-14.1-5.7-29.5-10.6-44.8-12.9l0.2-0.7l9.2-29.8
				C693.7,808.4,707.1,813.9,720.1,820.8z"/>
			<path class="st9" d="M717.1,849.9l0.2,0.5l-19-7l16.2,35.3c-7-2.6-14.1-4.9-21.1-6.9c-10.9-3.1-21.4-5.2-30.2-5.5l9.1-29.3h0
				C687.6,839.3,703,844.2,717.1,849.9z"/>
			<path class="st22" d="M714.5,878.7l0.2,0.4l-21.2-7.2C700.3,873.8,707.5,876.1,714.5,878.7z"/>
			<path class="st9" d="M693.4,871.8l18.2,28.4c-5.6-2-11.6-3.9-17.6-5.7c-11.6-3.5-22.8-6.3-29.6-8c-0.9-0.2-6.6-0.3-7.4-0.4
				l6-19.5l0.1-0.3C672,866.6,682.5,868.7,693.4,871.8z"/>
			<path class="st23" d="M686.9,1026.2c-41.9,12.4-86.1,19.6-131.7,20.9V972c21.9-1.1,78.9-3.7,86-1.3
				C646.9,972.7,671.1,991.2,686.9,1026.2z"/>
			<path class="st11" d="M663.2,866.3l-0.1,0.3l-6,19.5c-4.2-0.2-8.3,1.6-10.9,5c-1.1,1.4-2.4,3-3.8,4.7
				c-0.8-13.2-3.3-45.8-3.3-61.8c0-11.5-7-23.6-15.8-31.6c0.5-12-0.1-23.4-1.1-33.5c0.2,1.2,0.4,2.4,0.7,3.6
				c19.9,6.5,43.7,12.3,61.5,23.9l-1,5.1l-1.6,5.1l-9.2,29.8l-0.2,0.7h0L663.2,866.3z"/>
			<path class="st18" d="M592.6,796.3c5-1.9,9.2-3.2,12.1-3.1c5.9,0.2,12.6,3.8,18.6,9.3c8.8,8,15.8,20.1,15.8,31.6
				c0,16,2.4,48.6,3.3,61.8c-1.8,2.3-3.9,4.7-6.1,7.3c-8.8,0.2-24.8-1.4-35.7,2.7c-9.6,3.5-24.6,14.9-34.8,24.2
				c-3.5,0.1-7,0.2-10.6,0.2c-7.5,0.1-15.2,0.1-22.8,0.1c-31.5-0.2-60.1-1.7-62.5-4.7c-6.9-8.9-21.1-25-28.1-33.9
				c-2.6-3.4-6.7-5.2-10.9-5l-6-19.5l-1.4-4.5l-8-25.8l-0.4-1.3l-6.6-21.2l-2.3-7.4l-1.6-5.1l-1-5.1c16.7-10.9,42.7-19.5,62.9-23
				c0.2-2.8,0.5-5.5,0.9-8.1c6.9,2.8,15.2,5.7,24.7,8c5.1,12.4,15.1,32.9,29,40.8C537.6,824.2,572.1,804.2,592.6,796.3z"/>
			<path class="st11" d="M600.6,905.8c10.9-4.1,26.9-2.5,35.7-2.7c-6.6,7.8-13.9,16.3-18.2,21.9c-2.1,2.6-25,4.4-52.3,5
				C576,920.7,591,909.4,600.6,905.8z"/>
			<path class="st20" d="M532.4,971.3v76c-82.7-1.2-160.6-21.7-229.6-57.4c8.5-15.9,17.9-31.8,20.3-33.6
				c9.6-6.9,26.1-21.4,39.7-27.9c17-8.3,47.4-15.9,60.7-19.3c0.9-0.2,6.6-0.3,7.4-0.4c4.2-0.2,8.3,1.6,10.9,5
				c7,8.9,21.2,25,28.1,33.9c0.3,0.4,1,0.7,2,1.1c0.2,0,0.3,0.1,0.5,0.1c0.1,0,0.3,0.1,0.4,0.1c0.3,0.1,0.6,0.1,0.9,0.2
				c0.8,0.1,1.6,0.3,2.5,0.5c0.7,0.1,1.4,0.2,2.2,0.3c0.4,0,0.8,0.1,1.2,0.1c0.8,0.1,1.7,0.2,2.7,0.3c0,0,0.1,0,0.1,0
				c0.9,0.1,1.8,0.2,2.8,0.3c0.5,0,1,0.1,1.6,0.1c1,0.1,2.1,0.2,3.3,0.2c0.1,0,0.2,0,0.2,0c1.1,0.1,2.1,0.1,3.2,0.2
				c4.8,0.3,10.1,0.5,15.8,0.7c1.4,0,2.8,0.1,4.3,0.1C524.1,952.2,532.4,960.8,532.4,971.3z"/>
			<path class="st9" d="M424.9,867.3l6,19.5c-0.9,0-6.6,0.2-7.4,0.4c-13.3,3.4-43.7,11.1-60.7,19.3c-2.4,1.1-5,2.5-7.9,4.1l-0.4-0.7
				c-3.5-7.7-5.7-14.8-7.1-21.4c23.8-11.2,54.5-23.8,76.1-25.7h0L424.9,867.3z"/>
			<path class="st9" d="M415.6,837l8,25.8h0c-21.6,2-52.3,14.6-76.1,25.7c-2.3-10.8-2.1-19.9-0.9-27.1
				c19.3-10.2,44.3-21.3,68.6-25.7h0L415.6,837z"/>
			<path class="st9" d="M408.6,814.6l6.6,21.2h0c-24.3,4.3-49.3,15.4-68.6,25.7c1.6-9.9,5.1-16,6.7-17.6
				c3.5-3.5,54.3-28.9,54.3-28.9L408.6,814.6z"/>
			<path class="st21" d="M406.3,807.2l2.3,7.4l-1.1,0.4c0,0-50.8,25.4-54.3,28.9c-1.6,1.6-5.1,7.8-6.7,17.6
				c-20.2,10.7-34,20.4-34,20.4l-1.1,0.1c-0.4-5.5-0.9-10.7-1.5-15.1c14.2-12.9,61.6-54,95.8-59.4L406.3,807.2z"/>
			<path class="st21" d="M404.8,802.2l1.6,5.1l-0.6,0.2c-34.3,5.4-81.7,46.5-95.8,59.4c-0.1-0.8-0.2-1.6-0.4-2.3
				c-0.7-4.3,0.4-8.4,2.2-11.9c3.3-6.6,8.9-11.2,8.9-11.2c49.9-51.6,82.1-49.3,82.1-49.3l1,5L404.8,802.2z"/>
			<path class="st21" d="M354.5,909.9l0.4,0.7c-13.5,7.3-31.1,18.2-39,23.8c-1.5-7.7-2.3-17.8-2.9-28.4v0c3.5-2,17.1-9.4,34.5-17.5
				C348.8,895.1,351,902.2,354.5,909.9z"/>
			<path class="st21" d="M346.5,861.4c-1.2,7.2-1.4,16.3,0.9,27.1c-17.3,8.1-30.9,15.5-34.5,17.5c-0.5-8.1-0.9-16.5-1.5-24.1
				l1.1-0.1C312.5,881.9,326.4,872.1,346.5,861.4z"/>
			<path class="st18" d="M315.9,934.4c-1.8,1.3-7.5,10.5-13.8,21.7c-0.5,0.8-0.9,1.6-1.4,2.5c-1.3,2.3-2.5,4.6-3.8,7
				c-0.5,0.9-1,1.9-1.5,2.8c-0.8,1.5-1.6,2.9-2.3,4.4c-0.5,0.9-0.9,1.7-1.4,2.6c-1.2,2.3-2.3,4.6-3.4,6.7
				c-29.7-16.6-57.6-36-83.4-57.9c-0.4-0.5-0.7-1-1.1-1.4c7.3-8.7,20.1-31.7,44.8-42c29.5-12.4,49.2-17.7,60.7-16
				c0.1-0.1,0.2-0.2,0.3-0.3c0.1,0.7,0.2,1.5,0.4,2.3c0.6,4.4,1.1,9.6,1.5,15.1c0.6,7.6,1,16,1.5,24.1v0
				C313.6,916.6,314.4,926.8,315.9,934.4z"/>
		</g>
		<g>
			<path class="st16" d="M309.6,864.5c-0.1,0.1-0.2,0.2-0.3,0.3c-11.4-1.7-31.1,3.6-60.7,16c-24.7,10.3-37.5,33.3-44.8,42
				c0.3,0.5,0.7,0.9,1.1,1.4"/>
			<path class="st16" d="M482.4,950.3c0.9,0.1,1.8,0.2,2.8,0.3"/>
			<path class="st16" d="M479.6,950c0.8,0.1,1.7,0.2,2.6,0.3"/>
			<path class="st16" d="M772.2,933.7c3,2.2,16.6,26,26.1,44.7"/>
			<path class="st16" d="M532.4,1047.3v-76c0-10.5-8.4-19.1-18.8-19.3c-1.5,0-2.9-0.1-4.3-0.1c-5.7-0.2-11-0.4-15.8-0.7
				c-1.1,0-2.2-0.1-3.2-0.2c-0.1,0-0.2,0-0.2,0c-1.1-0.1-2.2-0.1-3.3-0.2c-0.5,0-1-0.1-1.6-0.1c-0.9-0.1-1.9-0.2-2.8-0.3
				c0,0-0.1,0-0.1,0c-0.9-0.1-1.8-0.2-2.7-0.3c-0.4,0-0.8-0.1-1.2-0.1c-0.8-0.1-1.5-0.2-2.2-0.3c-0.9-0.1-1.8-0.3-2.5-0.5
				c-0.3-0.1-0.6-0.1-0.9-0.2c-0.1,0-0.3-0.1-0.4-0.1c-0.2,0-0.3-0.1-0.5-0.1c-1.1-0.3-1.8-0.7-2-1.1c-6.9-8.9-21.1-25-28.1-33.9
				c-2.6-3.4-6.7-5.2-10.9-5c-0.8,0-6.6,0.2-7.4,0.4c-13.3,3.4-43.7,11.1-60.7,19.3c-13.5,6.6-30,21.1-39.7,27.9
				c-2.4,1.8-11.8,17.7-20.3,33.6"/>
			<path class="st16" d="M288.2,982.1c1.1-2.2,2.2-4.4,3.4-6.7c0.4-0.9,0.9-1.7,1.4-2.6c0.8-1.4,1.5-2.9,2.3-4.4
				c0.5-0.9,1-1.9,1.5-2.8c1.3-2.4,2.5-4.7,3.8-7c0.5-0.8,0.9-1.7,1.4-2.5c6.3-11.2,12-20.4,13.8-21.7"/>
			<line class="st16" x1="555.2" y1="1067.9" x2="555.2" y2="1067.8"/>
			<path class="st16" d="M599.4,950.3c-1.1,0.1-2.2,0.2-3.4,0.3"/>
			<path class="st16" d="M783.7,986.5c-30.6,16.3-62.9,29.7-96.8,39.7c-41.9,12.4-86.1,19.6-131.7,20.9V971c0-10.4,8.2-19,18.6-19.3
				c2.2-0.1,4.4-0.1,6.5-0.2c5.6-0.3,10.9-0.5,15.6-0.9c1.2-0.1,2.3-0.2,3.4-0.3c0.6,0,1.1-0.1,1.6-0.1c0.5,0,1.1-0.1,1.6-0.2
				c0.5,0,1-0.1,1.5-0.1c1-0.1,1.9-0.2,2.8-0.3c1.4-0.1,2.7-0.3,3.8-0.5c0.7-0.1,1.4-0.2,2-0.3c1.3-0.3,2.4-0.5,3.2-0.8
				c0.4-0.1,0.7-0.2,1-0.4c0.5-0.3,0.9-0.5,1.1-0.7c6.9-8.9,21.1-25,28.1-33.9c2.6-3.4,6.7-5.2,10.9-5c0.8,0,6.6,0.2,7.4,0.4
				c13.3,3.4,43.7,11.1,60.8,19.3c13.5,6.6,30,21.1,39.7,27.9C767.1,957.3,775.6,971.5,783.7,986.5z"/>
			<path class="st16" d="M312.9,906c-0.5-8.1-0.9-16.5-1.5-24.1c-0.4-5.5-0.9-10.7-1.5-15.1c-0.1-0.8-0.2-1.6-0.4-2.3
				c-0.7-4.3,0.4-8.4,2.2-11.9c3.3-6.6,8.9-11.2,8.9-11.2c49.9-51.6,82.1-49.3,82.1-49.3l1,5"/>
			<path class="st16" d="M431,886.8c-0.9,0-6.6,0.2-7.4,0.4c-13.3,3.4-43.7,11.1-60.7,19.3c-2.4,1.1-5,2.5-7.9,4.1
				c-13.5,7.3-31.1,18.2-39,23.8c-1.5-7.7-2.3-17.8-2.9-28.4"/>
			<path class="st16" d="M423.5,862.8c-21.6,2-52.3,14.6-76.1,25.7c-17.3,8.1-30.9,15.5-34.5,17.5v0h0c-0.6,0.3-0.9,0.5-0.9,0.5"/>
			<path class="st16" d="M415.1,835.8c-24.3,4.3-49.3,15.4-68.6,25.7c-20.2,10.7-34,20.4-34,20.4"/>
			<path class="st16" d="M405.8,807.4c-34.3,5.4-81.7,46.5-95.8,59.4"/>
			<path class="st16" d="M449.4,868.3c0.4-0.7,51.7,0,51.7,0s12-0.7,15.1,3.5s8.3,11.4,8.3,11.4"/>
			<path class="st15" d="M657,886.1c-4.2-0.2-8.3,1.6-10.9,5c-1.1,1.4-2.4,3-3.8,4.7c-1.8,2.3-3.9,4.7-6.1,7.3
				c-6.6,7.8-13.9,16.3-18.2,21.9c-2.1,2.6-25,4.4-52.3,5c-3.5,0.1-7,0.2-10.6,0.2c-7.5,0.1-15.2,0.1-22.8,0.1
				c-31.5-0.2-60.1-1.7-62.5-4.7c-6.9-8.9-21.1-25-28.1-33.9c-2.6-3.4-6.7-5.2-10.9-5l-6-19.5l-1.4-4.5l-8-25.8l-0.4-1.3l-6.6-21.2
				l-2.3-7.4l-1.6-5.1l-1-5.1c16.7-10.9,42.7-19.5,62.9-23c0.2-2.8,0.5-5.5,0.9-8.1c0.2-2,0.5-3.9,0.8-5.8v0c0-0.6,0-1.1,0.2-1.7
				c0.1,0.1,0-0.4,0.1-0.3c0.5-3.4,1.1-6.6,1.6-9.4c0.5-2.6,1-5.1,1.5-7.2"/>
			<path class="st16" d="M778.4,863.8L778.4,863.8L778.4,863.8c0.1,0.1,0.2,0.2,0.3,0.3c11.4-1.7,31.1,3.6,60.7,16
				c21.9,9.2,34.5,28.4,42.1,38.6"/>
			<path class="st16" d="M775.1,905.4c-0.6,10.6-1.5,20.7-2.9,28.3c-9.7-6.9-33.4-21.3-46.9-27.9c-3.9-1.9-8.6-3.8-13.6-5.6
				c-5.6-2-11.6-3.9-17.6-5.7c-11.6-3.5-22.8-6.3-29.6-8c-0.9-0.2-6.6-0.3-7.4-0.4l6-19.5l0.1-0.3l9.1-29.3h0l0.2-0.7l9.2-29.8
				l1.6-5.1l1-5.1l1-5c0,0,9.3-0.7,25.7,6.7c14.1,6.4,33.4,18.7,56.4,42.6c0,0,5.5,4.6,8.9,11.2c1.4,2.7,2.4,5.8,2.4,9
				c0,1,0,2-0.2,3v0c-0.8,4.9-1.4,10.9-1.9,17.4c-0.2,2.5-0.3,5.1-0.5,7.7C775.7,894.4,775.4,899.9,775.1,905.4"/>
			<path class="st16" d="M775.9,905.8c0,0-0.3-0.1-0.9-0.4v0c-5.1-2.6-31.9-16.3-60.6-26.7c-7-2.6-14.1-4.9-21.1-6.9
				c-10.9-3.1-21.4-5.2-30.2-5.5c-0.7,0-1.3,0-1.9,0"/>
			<path class="st16" d="M672.3,837c15.3,2.3,30.8,7.2,44.8,12.9c32.9,13.4,58.4,31.3,58.4,31.3"/>
			<path class="st16" d="M778.5,860.8c0,0-27.9-23.7-58.5-40c-12.9-6.9-26.4-12.4-38.4-14.3h0"/>
			<path class="st16" d="M638.6,867.6c-0.4-0.7-51.7,0-51.7,0s-12-0.7-15.1,3.5c-3.1,4.2-8.3,11.4-8.3,11.4"/>
			<path class="st16" d="M600.7,769.5c0,0-3.2,12-8.1,26.7c-6.2,18.5-15.2,41.2-24.3,49.9"/>
		</g>
	</g>
	<path class="st24" d="M615.8,732c2.8-2,5.5-4.1,8.1-6.1c8.2-19.2,16.4-38.7,24.6-58.4v0c9.1-21.8,18.3-43.6,27.4-64.9h-0.1
		l-6.9,0.7c-1.5-1.4-3.7-3.9-5.5-7.4c-1.9-4-2.4-7.6-2.5-9.7c4.6-4.2,9.2-8.4,13.8-12.6l0-0.7v0l2.1-37c-0.9-4-1.9-8.5-3.4-13.4
		c-2.5-8.4-6-17.7-11-27.7"/>
	<path class="st24" d="M451.4,462.7c-1.1-0.1-2.1-0.1-3.3-0.1c-6.6,0-12,1.2-15.8,2.4c-5.2,6.2-11,14.1-16.5,23.5
		c-1.1,2-2.3,4-3.4,6.1c-2.4,4.6-4.5,9-6.2,13.3v0c-2.1,5.1-3.8,9.9-5.3,14.5c0,0,0,0,0,0c-1.7,5.6-3,10.7-4,15.2l4,37.7l13.8,12.6
		c-0.1,1.9-0.5,4.9-1.9,8.3c-0.2,0.5-0.4,1-0.7,1.5c-1.7,3.6-3.9,6-5.5,7.4l-6.9-0.7h0l-0.1,0c9.2,21.6,18.5,43.2,27.8,64.8v0
		c8.1,18.9,16.2,37.7,24.3,56.6c6.5,5,13.1,10.2,19.8,15.6c2.1,1.7,4.1,3.4,6.2,5.1c3,2.5,6,4.9,9,7.5c9.4,7.9,18.4,15.8,26.9,23.7
		c3.2,2.9,6.4,5.9,9.5,8.8h27.5c3.8-3.6,7.7-7.2,11.7-10.8c7.9-7.1,16.1-14.4,24.6-21.6c9.2-7.8,19.3-15.1,28.7-22"/>
	<path class="st24" d="M563.5,525.6c-3.2,5-6.3,10.1-9.3,15.3c-0.7,1.2-1.4,2.5-2.1,3.7c-6.1,11.1-10.3,22-15.2,32.5
		c-2.5-5.2-5.1-10.5-7.9-15.8c-0.2-0.3-0.3-0.7-0.5-1v0c-0.8-1.5-1.6-3.1-2.5-4.6c-1.2-2.3-2.5-4.6-3.8-7c-1.4-2.6-2.9-5.1-4.4-7.7
		c-7.7-13.2-15.6-25.5-23.5-36.9c-7.4-10.6-14.9-20.5-22.3-29.7c-2.6-3.2-5.2-6.3-7.8-9.4c-3.2-1-7.6-2-12.9-2.3"/>
	<path class="st24" d="M662.5,494.8c-0.3-0.7-0.7-1.4-1-2.1c-6.5-12.3-13.6-22.1-19.9-29.6c-3.8-1.1-9.2-2.3-15.8-2.4
		c-6.8,0-12.3,1.2-16.2,2.4c-14.6,17.3-31.1,38.7-46.1,62.5"/>
	<path class="st24" d="M615.8,732C615.8,732,615.8,732.1,615.8,732C615.7,731.9,615.8,731.9,615.8,732z"/>
	<path class="st24" d="M405.8,667.7c4.9,1.5,9.5,2.6,13.7,3.4c2.7-0.6,5.4-1.2,8.1-1.8"/>
	<path class="st24" d="M399.9,604.5c-2.5-4-6-8.8-10.9-13.7c-6.2-6.1-12.4-10.1-17.1-12.7c-1.5,0.4-3.2,1.1-5.1,2.1
		c-2.6,1.4-4.6,3.1-5.9,4.4c-0.8,9.4-0.8,23,3,38.8c0.9,3.5,1.8,6.7,2.8,9.8c0.5,1.6,1.1,3.2,1.7,4.6c2.5,6.4,5.2,11.9,7.6,16.2
		c4.5,2.8,9.7,5.6,15.7,8.2c4.9,2.2,9.6,3.9,14.1,5.3"/>
	<path class="st24" d="M395.7,617.7c1.5,1.6,3.2,3.5,4.8,5.8c1.5,2.1,2.6,4.1,3.5,5.8c-0.5,0.2-1.3,0.6-2.1,1.3
		c-0.3,0.2-0.5,0.5-0.8,0.8c-1.3,1.4-1.7,2.9-1.9,3.6"/>
	<path class="st24" d="M373.7,624.7c-0.1-0.8-0.2-1.6-0.3-2.3c-0.6-5.1-0.8-9.2-0.9-12.3c-0.1-7.2,0.3-16.1,0.3-15.9
		c1-0.3,2.8-0.6,4.9-0.2c1.7,0.3,3,0.9,3.8,1.3c1.4,2.3,2.9,4.6,4.3,7c3,4.9,6,9.8,9.1,14.7c0,0,0.1,0.1,0.1,0.2
		c0.2,0.2,0.4,0.4,0.7,0.7"/>
	<path class="st24" d="M410,643c0.9,0.4,1.9,1,3,2c0.9,0.8,1.6,1.7,2,2.4c0.8,1.8,1.7,3.7,2.5,5.6c0.1,0.2,0.2,0.5,0.3,0.7
		c0.1,0.2,0.2,0.5,0.3,0.7c-0.6,0.9-1.8,2.4-3.7,3.6c-2.1,1.4-4.1,1.8-5.3,2c-1.1-2.9-3.3-7.3-7.3-11.7c-0.2-0.3-0.4-0.5-0.7-0.8
		c-2.6-2.7-5.2-4.7-7.5-6.1c-1.2-0.8-2.3-1.4-3.2-1.8c0-0.2,0-0.5,0-0.8c0-2.6-0.1-5.6-0.6-8.9c-0.3-2.2-0.7-4.1-1.1-6
		c-0.1-0.6-0.3-1.1-0.4-1.7c0.2-0.3,0.4-0.6,0.7-0.9c0.5-0.6,1-1.3,1.8-1.9c0,0,0.1-0.1,0.1-0.1c1.5-1.3,3-1.9,4-2.3"/>
	<path class="st24" d="M409.1,642.6c0.2,0.1,0.5,0.2,0.8,0.4"/>
	<path class="st24" d="M380.8,612.3c0.3-1.4,0.8-3.1,1.7-4.9c1-2.2,2.3-4,3.3-5.2"/>
	<path class="st24" d="M648.2,667.5c0.1,0,0.3,0.1,0.4,0.1c2.6,0.6,5.1,1.1,7.7,1.7c7.9-1.5,17.5-4.1,27.8-8.7
		c6-2.6,11.2-5.5,15.7-8.2c0.4-0.7,0.8-1.4,1.2-2.2c0,0,0,0,0,0c3.4-6.3,7-14.5,9.8-24.4c0.4-1.3,0.7-2.6,1.1-4
		c0.8-3.1,1.4-6.2,1.8-9.1c2-11.9,1.8-22.2,1.2-29.7c0,0,0-0.1,0-0.1c-1.3-1.3-3.3-3-5.9-4.4c-1.9-1-3.7-1.7-5.1-2.1
		c-4.7,2.6-10.9,6.6-17.1,12.7c-4.9,4.9-8.4,9.7-10.9,13.7"/>
	<path class="st24" d="M701.9,622.5c0,0.1,0.1,0.1,0.1,0.2c0,0,0,0,0,0c0,0,0,0,0.1,0c0.3,0,0.4-1.3,0.7-5.8c0.3-5,0.5-7.6,0.5-8.8
		c0.2-8.4-0.3-15.9-0.3-15.9c-0.7-0.2-1.7-0.4-3-0.4c-0.6,0-1.3,0-2,0.2c-1.7,0.3-3,0.9-3.8,1.3c-1.4,2.3-2.9,4.6-4.3,7
		c-3,5-6.1,9.9-9.2,14.8c-1.2,1.2-2.5,2.6-3.8,4.2"/>
	<path class="st24" d="M693.7,606.6c1-0.8,2-1.1,2.8-0.9c0.1,0,0.2,0,0.3,0.1"/>
	<path class="st24" d="M676.6,633.1c-0.6-0.2-0.3-1.9-1.9-3.6c-0.4-0.5-0.9-0.8-1.3-1.1"/>
	<path class="st24" d="M685.3,617.9c-0.2,0.4-0.5,0.9-0.7,1.2c-0.2,0.4-0.5,0.9-0.7,1.3c-0.2,0.4-0.4,0.7-0.6,1"/>
	<path class="st24" d="M685.2,637.6c-2.8,1.4-6.8,3.9-10.7,8c-4.4,4.6-6.8,9.4-8,12.4c-1.2-0.2-3.2-0.7-5.3-2
		c-1.9-1.2-3-2.6-3.7-3.6c1-2.3,2.1-4.6,3.1-7c0.4-0.6,1.1-1.5,2-2.4c1.8-1.6,3.5-2.2,3.8-2.4c2.6-1.1,4.7-6.7,6.8-12.3
		c1.2-3.3,2.4-6.6,3.6-9c1.2-2.5,2.4-4.1,3.8-4.2c1.3,0,2.9,1.3,4,2.3c0.2,0.1,0.3,0.3,0.5,0.4v0c1,0.9,1.7,1.8,2.1,2.5
		c-0.2,0.7-0.4,1.5-0.6,2.2"/>
	<path class="st24" d="M686.8,622.6c-0.1,0.3-0.1,0.6-0.2,0.9c0,0.1-0.1,0.3-0.1,0.5c0,0.2-0.1,0.4-0.1,0.6
		c-0.2,1.1-0.4,2.3-0.6,3.5c-0.2,1.2-0.3,2.3-0.4,3.4"/>
	<path class="st24" d="M694.9,610.5c-0.2-1.1-0.6-2.4-1.2-3.9c-0.1-0.3-0.3-0.7-0.5-1c-1-2.2-2.3-4-3.3-5.2"/>
	<path class="st24" d="M336.9,630.9c-2,0.1-4,0.2-6,0.3c-0.5,0-0.9,0.1-1.3,0.1c4.4,4.3,10.6,9.5,18.9,14.2c9,5.2,17.3,8,23.6,9.6
		c1.3-0.3,2.6-0.6,3.9-0.9l29.7,13.5l0,0h0"/>
	<path class="st24" d="M354.4,630.5c-1.4,0-2.9,0-4.3,0c-4.1,0-8.1,0.1-12,0.3c-0.3,0-0.6,0-0.9,0"/>
	<path class="st24" d="M364.2,630.6c0,0,0.1,0.1,0.1,0.1c-3.2-0.1-6.4-0.2-9.7-0.2"/>
	<path class="st24" d="M618.4,214.4c-1.5-4.1-3.3-8.3-5.2-12.5c-12.9-28.3-30-47.6-41.8-58.8c0.9,13.1,0.8,29.8-2.2,48.9
		c-3,19.3-8.1,35.3-13,47.6c-8.3-17.3-17.2-39.7-23.6-66.7c-7.1-30.2-8.9-56.8-8.8-77.4c-16.3,15.3-41.9,43.3-60.2,85.8
		c-2.3,5.3-4.3,10.5-6.1,15.5c-10.7,30.3-13.8,57.1-14.5,75.2c-6.6-12.4-13.5-27.4-19.5-44.9c-2-5.7-3.7-11.3-5.2-16.7
		c-3.5-12.4-5.9-23.9-7.6-34.1c-18.8,22.7-46.8,62.9-61,119.6c-7,27.9-8.9,53-8.9,73.3c0,0.9,0,1.7,0,2.5c-1.6-2.6-3.2-5.3-4.8-7.9
		c-0.2-0.4-0.5-0.8-0.7-1.2c-0.5-0.8-0.9-1.6-1.4-2.3c-17.2-28.2-34.4-56.5-51.7-84.7c1.4,41.4,4.7,85.8,10.6,132.8
		c3.4,27.2,7.4,53.3,11.9,78.2c2.1,4.6,4.2,9.3,6.3,13.9c-7.7-4.7-15.5-9.6-23.4-14.8c-14-9.3-27.1-18.6-39.3-27.8
		c8.9,24.9,17.2,44.2,23.4,57.5c6.2,13.5,10.7,22,14.1,28.1c3.4,6,30,46.5,42.9,58.8c9.5,9.1,28.3,21.3,35.4,28.4"/>
	<path class="st24" d="M651.2,507.7c0,0-0.1,0.8-0.2,2.2c-0.8,8.6-3.5,38.8-3.2,40.5c0.3,1.6,3.6,10.4,4.9,13.6
		c0.3,0.7,0.5,1.2,0.5,1.2"/>
	<path class="st24" d="M422.5,520.5c0,0,3.7,40.7,3.4,42.8c-0.3,2-5.4,14.8-5.4,14.8"/>
	<path class="st24" d="M537.8,587.6c0,0,1.8,48.1,0.9,50.8"/>
	<path class="st24" d="M536.5,706.6h-10.3l9.9,9c0,0,2.5-0.5,2.5-1.1c0-0.7,9.7-11,9.7-11l-11.9-21.1L536.5,706.6z"/>
	<path class="st24" d="M508.6,716.3c0,0-10.3,4.3-3.4,13.9"/>
	<path class="st24" d="M568.3,703.9c0,0,18.2-2,8.5,13.2"/>
	<path class="st24" d="M512.7,719.4c1.9,3.1,3.9,6.3,5.8,9.4c4.5,0.9,10.7,1.5,18,0.9c5.7-0.5,10.6-1.7,14.4-2.9
		c6.3-2.7,12.7-5.5,19.1-8.3"/>
	<path class="st24" d="M418.3,210.4c7.4-25.9,17.1-46.9,25.4-62.4c2.3,14,6.4,30.8,13.9,48.8l0,0"/>
	<path class="st24" d="M539.6,378.8c2.6,12.2,5.3,23.9,8.2,35.1c0.7,2.6,1.3,5.3,2,7.9c2.7,10.2,5.5,20,8.3,29.4"/>
	<path class="st24" d="M427.9,314.8c23.2-45.2,46.1-74.2,51.9-81.5c9.6-12,23-27.5,40.6-44.2c-0.3,40,2,86.7,9.8,138.3
		c0.1,0.6,0.2,1.2,0.3,1.8c2.6,17.2,5.7,33.7,9,49.4"/>
	<path class="st24" d="M412.5,452c-2.2-29.5-4.5-59-6.7-88.5c2.2-5.6,5.5-13.7,9.8-23.1c0-0.1,0.1-0.1,0.1-0.2
		c4-8.9,8.1-17.4,12.3-25.4"/>
	<path class="st24" d="M687.5,255.8c0.2,0.3,0.3,0.7,0.5,1c4,7.8,8.6,18,12.5,30.3c2.3,7.1,4.3,15,5.8,23.6c0.8,4.4,3.4,19.9,2.8,42
		c0,1.1-0.1,2.3-0.1,3.5c-0.9,20.1-4.8,53-21.9,91.9"/>
	<path class="st24" d="M530,752.3c2.9-0.9,5.9-1.9,8.8-2.8c3.5,0.1,7.1,0.1,10.6,0.2"/>
	<path class="st25" d="M336.9,630.9c-3.9,0.1-6.7,0.1-6.7,0.1s0.2,0.1,0.7,0.2c5,1.5,34.9,10.1,36.9,9.4c0.8-0.2,0.8-1.3,0.5-2.6
		c-0.3-1.5-1.1-3.4-1.7-4.6c-0.4-0.9-0.7-1.5-0.7-1.5s-0.1-0.8-1.8-1.2c0,0,0,0,0,0c-0.5-0.1-1.2-0.2-2.1-0.2c-1,0-3.9,0-7.6,0.1
		c-0.1,0-0.1,0-0.2,0c-5,0.1-11.4,0.2-16.3,0.3c-0.3,0-0.6,0-0.9,0C337.1,630.9,337,630.9,336.9,630.9z"/>
	<path class="st25" d="M416.1,342c0-0.2-0.2-0.7-0.5-1.6c-2.7-7.8-14.3-41.7-8.2-64.8c14.6,27.7,19.1,36.4,20.6,39.2c0,0,0,0,0,0
		c0.7,1.2,0.7,1.2,0.7,1.2"/>
	<path class="st25" d="M716.5,185.3c0,0,0.1,0.5,0.2,1.4c2,13,16.4,110.8-2,166.1c32.3-40.4,42.2-60.2,42.2-60.2
		s-37.8,160.1-83.3,229.8c-0.2,0.3-0.4,0.7-0.6,1"/>
	<path class="st25" d="M714.8,612.8c3.7-3,55.6-38.1,58.6-49.5c-41.1,16.2-42.8,15.5-42.8,15.5l68.4-40.4"/>
	<path class="st25" d="M714.7,583.2c0,0,0.1-0.1,0.2-0.2c2-2.2,19.6-16,40.1-36.4c33.3-33.1,74.3-83.3,68.8-128.6
		c-43.1,22.5-50.7,27.4-50.7,27.4s-35,69.1-43.6,76.8c-7.6,6.8-46.5,43.1-54.6,50.7c-0.9,0.9-1.5,1.4-1.5,1.4"/>
	<path class="st25" d="M451.6,463.7c0-0.1-0.1-0.5-0.2-1h0c-2.6-13.3-23.7-147.1,39.3-199.2c3.1,29.2,2.2,36.4,2.7,31.4
		c0.5-4.9,9.4-34.6,14.8-36.8c5,22.1,20.6,78.7,31.5,120.6c0,0,0,0.1,0,0.1c0.4,1.6,0.8,3.2,1.2,4.8c3,11.7,5.5,22.1,7.3,29.9
		c0.7,3.2,1.3,6.1,1.7,8.3c0.9,4.9,1,7.4,0,6.5"/>
	<path class="st24" d="M538.1,659.8c0,0.6,0,1.3-0.1,1.9c-0.7,0.1-2.9,0.3-4.9-1c-0.2-0.1-0.4-0.3-0.6-0.4c-0.5-0.4-0.9-0.9-1.2-1.3
		c0.1-4.5,0.2-9,0.3-13.5"/>
	<path class="st24" d="M519.7,653l-5.3,7.8c0,0-54.1-12.5-61.2-11.5c-1.8-5.5-10-16.6-14.4-29.9"/>
	<path class="st24" d="M503.4,635.2c8,5.3,15.5,10.6,22.5,15.7"/>
	<path class="st24" d="M487.9,625.3c5,3,9.7,6.1,14.4,9.2"/>
	<path class="st24" d="M479.3,632c-0.3-0.1-0.5-0.2-0.8-0.3c-11.3-4.9-22-8.8-32-12c-2.5-0.1-5.1-0.3-7.7-0.4
		c-1.9-0.1-3.8-0.1-5.8-0.1c-3.9-0.1-7.8-0.1-11.4,0c-0.1-2.8-0.2-5.6-0.3-8.4c1.4-2.9,3-6.1,4.9-9.3c1.5-2.5,2.9-4.8,4.4-6.9
		c15.2,7,31.7,15.4,48.8,25.6c2.8,1.7,5.6,3.4,8.3,5"/>
	<path class="st24" d="M525.9,651C525.9,651,525.9,651,525.9,651c-0.8,1.5-1.6,3-2.3,4.4c-1.2-0.8-2.5-1.6-3.8-2.4
		c-5.4-3.3-11.2-6.6-17.3-9.9"/>
	<polyline class="st24" points="529.7,643.8 529.4,644.3 525.9,651 	"/>
	<path class="st24" d="M425.7,594.6c0,0-6.3,11.5-7.2,13.4c0,0.1-0.1,0.2-0.1,0.3c0,0.2-0.1,1.2-0.1,2.4c-0.1,2.4-0.2,5.8-0.2,5.8"
		/>
	<path class="st24" d="M421.3,595.3c0,0-1,2.2-2.3,5.1c-0.9,2.2-2,4.9-2.8,7.1c-0.7,2.1-1.3,3.8-1.3,4.8"/>
	<path class="st24" d="M487.8,625.2c-2.9,0.7-5.4,2.4-7.1,4.7c-0.5,0.6-0.9,1.3-1.3,2.1v0c-0.9,1.7-1.3,3.6-1.3,5.7
		c0,7,5.7,12.8,12.8,12.8c5.1,0,9.5-3,11.6-7.3c0.3-0.6,0.5-1.2,0.7-1.9v0c0.3-1.1,0.5-2.3,0.5-3.5c0-0.9-0.1-1.7-0.2-2.4v0"/>
	<path class="st24" d="M445.5,664.9c8.8-1,19.6-1.6,31.9-0.8c2.3,0.1,4.6,0.3,7,0.6c13.8,1.5,25.5,4.3,34.9,7.3
		c0.4,0.1,0.7,0.2,1,0.3"/>
	<path class="st24" d="M443.1,669.6c6.2-1.7,14.5-3.3,24.2-3.6c2.6-0.1,5.2,0,7.6,0.1c0.8,0,1.6,0.1,2.3,0.1
		c6.8,0.5,12.6,1.6,17.2,2.7"/>
	<path class="st24" d="M483.5,592.1c7.9,5.4,16.9,12.5,26,21.6c7.9,7.8,14.3,15.4,19.4,22.3"/>
	<path class="st24" d="M543.8,645c0.4,4.5,0.8,8.9,1.1,13.4c0,0,0,0,0,0c-0.3,0.5-0.9,1.2-1.8,1.8c-2,1.4-4.1,1.4-4.9,1.3
		c-0.1-0.2-0.1-0.9-0.2-1.9c-0.1-2.4-0.2-6.3-0.1-6.7"/>
	<path class="st24" d="M556.1,651.9l5.7,7.4c0,0,53.2-15.7,60.4-15.2c1.5-5.6,8.9-17.2,12.5-30.7"/>
	<path class="st24" d="M572.8,641c-6,3.6-11.5,7.3-16.7,10.9c-1.3,0.9-2.5,1.7-3.7,2.6c-0.9-1.4-1.7-2.8-2.6-4.2c0,0,0,0,0-0.1"/>
	<path class="st24" d="M586.4,622.2c2.6-1.8,5.3-3.7,8-5.5c16.5-11.2,32.4-20.6,47.2-28.5c1.6,2,3.2,4.2,4.8,6.6
		c2.1,3.1,3.9,6.1,5.4,8.9c0.1,2.8,0.1,5.6,0.2,8.4c-3.7,0.1-7.5,0.4-11.4,0.7c-1.9,0.1-3.8,0.3-5.7,0.5c-2.6,0.2-5.2,0.5-7.7,0.8
		c-9.8,3.7-20.2,8.3-31.2,13.9c-0.2,0.1-0.5,0.2-0.7,0.4"/>
	<path class="st24" d="M572.6,632.2c4.4-3.3,9-6.7,13.7-10"/>
	<path class="st24" d="M549.8,650.2c6.7-5.6,13.9-11.3,21.5-17.1"/>
	<polyline class="st24" points="549.8,650.2 545.9,643.8 545.6,643.3 	"/>
	<path class="st24" d="M646.4,587.9c0,0,8,12.6,8.1,13.2c0.1,0.6,0.8,8.2,0.8,8.2"/>
	<path class="st24" d="M650.9,588.3c0,0,7.1,13.2,7.4,16.7"/>
	<path class="st24" d="M571.4,633.1L571.4,633.1c-0.1,0.8-0.1,1.6-0.1,2.5c0.1,1.2,0.3,2.4,0.7,3.5c0.2,0.7,0.5,1.3,0.8,1.8
		c2.3,4.2,6.9,6.9,12,6.6c7-0.4,12.4-6.5,12-13.5c-0.1-2-0.7-3.9-1.7-5.6c-0.4-0.7-0.9-1.4-1.4-2c-1.9-2.2-4.4-3.7-7.4-4.2"/>
	<path class="st24" d="M631.2,661.9c-10.4-1.4-23.6-2.2-38.8-0.8c-14.3,1.3-26.5,4.2-36,7.1"/>
	<path class="st24" d="M633.6,666.7c-6.2-1.8-14.4-3.5-24.2-4c-11.1-0.4-20.4,1-27.2,2.5"/>
	<path class="st24" d="M588.6,588.9c-7.6,5.9-16.1,13.5-24.7,23.1c-6.9,7.7-12.5,15.1-17,21.9c-0.3,0.5-0.7,1-1,1.6"/>
	<path class="st24" d="M620.1,753.1c-6.1,3.8-14.1,8.2-23.8,12.3c-9.7,4.1-21,7.9-33.9,10.3"/>
	<path class="st24" d="M513.7,777.8c-7.7-0.8-14.9-2.1-21.5-3.7c-9.5-2.3-17.8-5.2-24.7-8"/>
</g>
</svg>
