<?xml version="1.0" encoding="utf-8"?>
<!-- Generator: Adobe Illustrator 25.2.0, SVG Export Plug-In . SVG Version: 6.00 Build 0)  -->
<svg version="1.1" xmlns="http://www.w3.org/2000/svg" xmlns:xlink="http://www.w3.org/1999/xlink" x="0px" y="0px"
	 viewBox="0 0 841.9 1190.6" style="enable-background:new 0 0 841.9 1190.6;" xml:space="preserve">
<style type="text/css">
	.st0{fill:none;stroke:#231F20;stroke-width:2;stroke-miterlimit:10;}
	.st1{fill:none;stroke:#231F20;stroke-width:0.25;stroke-miterlimit:10;}
	.st2{fill:#FFFFFF;stroke:#231F20;stroke-width:2;stroke-miterlimit:10;}
	.st3{fill:#231F20;stroke:#231F20;stroke-width:2;stroke-miterlimit:10;}
</style>
<g id="Head">
	<g>
		<path class="st0" d="M557.3,592.5l0.1,0c-9.8,22.8-19.5,46.1-29.3,69.4c-8.8,21-17.6,41.9-26.4,62.4
			c-12.2,9.3-26.7,19.3-39.4,30.1c-13.9,11.7-26.8,23.3-38.9,34.7h-29.4c-12.1-11.4-25-23-38.9-34.7c-12.7-10.8-25.2-20.8-37.4-30.1
			c-8.6-20.2-17.3-40.3-25.9-60.5c-9.9-23.1-19.8-46.2-29.7-69.3l0.1,0l7.3,0.7c1.6-1.5,4-4.1,5.9-7.9c2.1-4.2,2.6-8.1,2.7-10.4
			l-14.8-13.5l-4.3-40.3c2.6-12.3,7.4-28.5,16.6-46.1c6.9-13.1,14.5-23.7,21.2-31.7c4-1.2,9.9-2.5,16.9-2.5c7.2,0,13.2,1.3,17.3,2.5
			c18.8,22.3,38.7,49.3,57.2,81.2c7.7,13.3,14.5,26.2,20.5,38.7c5.8-12.5,10.8-25.4,18.5-38.7c18.5-32,40.4-60.9,59.2-83.2
			c4.1-1.2,10-2.5,17.3-2.5c7.1,0,12.9,1.3,16.9,2.5c6.7,8,14.3,18.5,21.2,31.7c9.2,17.5,14,33.8,16.6,46.1l-2.3,40.3
			c-4.9,4.5-9.8,9-14.8,13.5c0.1,2.3,0.6,6.2,2.7,10.4c1.8,3.8,4.2,6.4,5.8,7.9L557.3,592.5z"/>
		<path class="st0" d="M262.3,594.5c-2.6-4.2-6.4-9.4-11.6-14.6c-6.6-6.5-13.2-10.8-18.3-13.6c-1.6,0.4-3.4,1.1-5.5,2.2
			c-2.8,1.5-4.9,3.3-6.3,4.7c-0.8,10-0.9,24.6,3.2,41.5c3.4,13.9,8.5,24.9,13,32.8c4.8,3,10.4,6,16.7,8.8c11,4.9,21.2,7.7,29.7,9.3
			c2.9-0.6,5.8-1.3,8.6-1.9"/>
		<path class="st0" d="M234.2,616.1c-0.9-6.5-1.2-11.9-1.3-15.6c-0.2-7.7,0.3-17.2,0.3-17c1.1-0.3,3-0.6,5.3-0.2
			c1.8,0.3,3.2,0.9,4.1,1.4c4.8,7.8,9.6,15.5,14.4,23.3c1.8,1.8,3.9,4.1,5.9,7c1.5,2.2,2.8,4.3,3.7,6.2c-0.7,0.3-2,0.9-3.1,2.2
			c-1.4,1.5-1.9,3.1-2,3.8"/>
		<path class="st0" d="M272.2,635.3c1.1,0.4,2.6,1.2,4.1,2.5c1,0.9,1.7,1.8,2.2,2.5c1.1,2.5,2.2,5,3.4,7.4c-0.7,1-1.9,2.5-4,3.8
			c-2.2,1.5-4.4,2-5.6,2.2c-1.3-3.3-3.8-8.3-8.5-13.3c-4.1-4.4-8.4-7-11.4-8.5c0.1-3-0.1-6.5-0.6-10.3c-0.4-3-1-5.8-1.7-8.2
			c0.6-0.9,1.4-2,2.8-3.1c1.6-1.4,3.3-2,4.3-2.4"/>
		<path class="st0" d="M241.9,602.9c0.3-1.5,0.8-3.3,1.8-5.3c1.1-2.4,2.4-4.2,3.5-5.5"/>
	</g>
	<g>
		<path class="st0" d="M527.7,661.8c2.9,0.6,5.8,1.3,8.6,1.9c8.5-1.6,18.7-4.4,29.7-9.3c6.3-2.8,11.9-5.8,16.7-8.8
			c4.4-7.9,9.6-18.9,13-32.8c4.1-16.9,4.1-31.5,3.2-41.5c-1.4-1.4-3.5-3.2-6.3-4.7c-2-1.1-3.9-1.8-5.5-2.2
			c-5.1,2.7-11.7,7-18.3,13.6c-5.2,5.2-9,10.3-11.7,14.6"/>
		<path class="st0" d="M585.3,614.1c0.9-6.5,1.2-11.9,1.3-15.6c0.2-7.7-0.3-17.2-0.3-17c-1.1-0.3-3-0.6-5.3-0.2
			c-1.8,0.3-3.2,0.9-4.1,1.4c-4.8,7.8-9.6,15.5-14.4,23.3c-1.8,1.8-3.9,4.1-5.9,7c-1.5,2.2-2.8,4.3-3.7,6.2c0.7,0.3,2,0.9,3.1,2.2
			c1.4,1.5,1.9,3.1,2,3.8"/>
		<path class="st0" d="M547.4,633.3c-1.1,0.4-2.6,1.2-4.1,2.5c-1,0.9-1.7,1.8-2.2,2.5c-1.1,2.5-2.2,5-3.4,7.4c0.7,1,1.9,2.5,4,3.8
			c2.2,1.5,4.4,2,5.6,2.2c1.3-3.3,3.8-8.3,8.5-13.3c4.1-4.4,8.4-7,11.4-8.5c-0.1-3,0.1-6.5,0.6-10.3c0.4-3,1-5.8,1.7-8.2
			c-0.6-0.9-1.4-2-2.8-3.1c-1.6-1.4-3.3-2-4.3-2.4"/>
		<path class="st0" d="M577.6,600.9c-0.3-1.5-0.8-3.3-1.8-5.3c-1.1-2.4-2.4-4.2-3.5-5.5"/>
	</g>
	<path class="st0" d="M584.1,643.3C584.1,643.3,584.1,643.2,584.1,643.3C584.1,643.2,584.1,643.2,584.1,643.3L584.1,643.3l38.1-15.2
		l-26-10.4c14.9-6.6,37.6-18.8,59.8-40.7c20.7-20.5,32.9-41.4,39.8-55.7c-17.3,5.5-34.6,11-51.8,16.6c10.3-6.9,21.8-15.6,33.6-26.2
		c11.9-10.6,21.7-21.2,29.8-30.7c7.5-13.4,16.7-33.6,21.6-59.5c3.8-20.3,3.9-38,2.9-51.4c-7.8,5.7-16.7,11.5-26.9,17.3
		c-11.7,6.6-22.8,11.8-32.9,15.8c7.2-18.9,13.9-41.9,17.7-68.3c9.9-69.4-5.6-126.8-17.7-159.9c-9.3,19.6-16.1,29.2-20.9,34.3
		c0,0-17,18.3-18,21.1c0,0,0,0,0,0c-0.5,0.1-2.9-28.7-6.5-47.6c-2.6-13.5-7.9-33-20.2-56.2c-3.8,16.6-9.2,35.4-17.3,55.7
		c-6.2,15.6-12.9,29.4-19.4,41.5c-2.6-5.5-5.8-11.4-9.6-17.5c-4.7-7.6-9.6-14.3-14.2-19.9c-4.4,9.9-9.5,20.3-15.1,31
		c-7.4,13.9-14.9,26.6-22.3,38.2c0.6-18.7-0.9-53.3-18.2-91.4c-13.8-30.2-32.1-50.9-44.6-62.9c0.9,14,0.8,31.9-2.4,52.3
		c-3.2,20.6-8.7,37.8-13.9,50.9c-8.9-18.5-18.4-42.4-25.2-71.3c-7.6-32.3-9.5-60.8-9.4-82.8c-17.4,16.3-44.8,46.4-64.3,91.7
		c-16.9,39.2-21.1,74.4-22.1,97c-7.1-13.3-14.5-29.3-20.9-48c-6.9-20.1-11.1-38.5-13.7-54.2c-20.1,24.3-50,67.2-65.2,127.8
		c-7.8,31-9.7,58.9-9.5,81c-1.7-2.8-3.4-5.6-5.1-8.4c-0.8-1.3-1.5-2.5-2.3-3.8c-18.4-30.2-36.8-60.4-55.2-90.5
		c1.5,44.3,5,91.8,11.3,142c3.6,29.1,7.9,57,12.7,83.6c2.2,5,4.5,9.9,6.7,14.9c-8.2-5-16.5-10.3-25-15.8c-15-9.9-29-19.9-42-29.8
		c9.5,26.6,18.4,47.2,25,61.4c6.6,14.4,11.5,23.5,15.1,30c3.6,6.4,32.1,49.7,45.8,62.9c10.2,9.8,30.3,22.8,37.9,30.4
		c0,0,0.1,0.1,0.1,0.1c-4.9-0.2-10-0.3-15.2-0.2c-7.6,0-14.9,0.4-21.8,0.8c4.7,4.6,11.4,10.2,20.2,15.2c9.6,5.5,18.5,8.5,25.2,10.3
		c1.4-0.3,2.8-0.7,4.2-1l31.8,14.4l0,0h0"/>
	<path class="st0" d="M530.9,491c0,0-4,43.6-3.6,45.7c0.4,2.2,5.8,15.8,5.8,15.8"/>
	<path class="st0" d="M286.4,504.7c0,0,4,43.6,3.6,45.7c-0.4,2.2-5.8,15.8-5.8,15.8"/>
	<path class="st0" d="M505.7,521.3"/>
	<path class="st0" d="M409.7,576.5c0,0,1.9,51.4,1,54.2"/>
	<path class="st0" d="M408,677.8l0.2,25.9h-11l10.6,9.6c0,0,2.6-0.5,2.6-1.2c0-0.7,10.3-11.8,10.3-11.8L408,677.8z"/>
	<path class="st0" d="M378.5,714c0,0-11,4.6-3.6,14.9"/>
	<path class="st0" d="M442.3,700.8c0,0,19.4-2.2,9.1,14.2"/>
	<path class="st0" d="M382.8,717.4c2.1,3.4,4.2,6.7,6.2,10.1c4.8,0.9,11.4,1.6,19.2,1c6.1-0.5,11.3-1.8,15.4-3.1
		c6.8-3,13.6-5.9,20.4-8.9"/>
	<path class="st0" d="M282,173.3c7.9-27.7,18.2-50.1,27.2-66.7c2.5,15,6.9,32.9,14.9,52.2"/>
	<path class="st0" d="M591.4,220.3c0.1-7.1-0.1-19.9-3-35.7c-3.8-20.6-12.3-46.2-30.8-70.8c-20.1-26.8-43.9-41.6-58.3-49
		c2.1,20.3,3.2,44.3,1.4,71.3c-1,14.8-2.7,28.6-4.8,41.5"/>
	<path class="st0" d="M275.8,431.5c-2.4-31.5-4.8-63-7.2-94.6c2.4-6.1,5.9-14.7,10.6-25c28.8-63.8,61.3-105.1,68.6-114.2
		c10.3-12.8,24.6-29.4,43.4-47.3c-0.3,43.2,2.2,93.8,10.8,149.8c7.5,49.2,18.2,92.8,29.5,130.3"/>
	<path class="st0" d="M262.3,418.3c-23.5-28.1-47-56.2-70.6-84.2"/>
	<path class="st0" d="M512.9,248.4c-1.4,2.3-2.9,4.6-4.3,6.9c-16.9,27.1-34.5,54.4-52.6,82c-11.9,18.1-23.7,35.9-35.6,53.4"/>
	<path class="st0" d="M569.8,221.8c6.9,13.2,15.6,33.2,20.2,58.7c0.9,4.9,4,23,2.9,48.6c-0.9,21.5-5.2,56.7-23.4,98.3"/>
	<g>
		<path class="st0" d="M316.8,722c-1.4,3.1-3,7-4.2,11.5c-1,3.5-1.9,6.7-2.4,9.5c-0.8,4.2-0.7,7.8,1.2,10.7
			c2.9,4.5,8.6,5.6,12.6,6.3c15.3,2.6,30.9,4.1,43.7,4.9"/>
		<path class="st0" d="M336.8,851c-6.1-2.5-30.6-22.3-33.1-24.8c-2.4-2.4-11-23.5-12.1-26.3c-0.1-0.2-0.1-0.3-0.1-0.3l3.7-12.8
			l3.9-13.4"/>
		<path class="st0" d="M174.8,939.6c-0.4-0.9-0.7-1.7-1.1-2.6"/>
		<path class="st0" d="M183.5,818.8L183.5,818.8c24.2-12.2,54.6-15.9,71.8-17"/>
		<path class="st0" d="M173.8,937c-3.1,3.7-5.4,7.5-6.5,11.2c-0.8,2.7-1.6,6.1-2.4,10.2v0c-0.8,4-1.6,8.5-2.4,13.5
			c-1.5-2.4-3-5-4.6-7.9c-0.5-0.8-0.9-1.7-1.4-2.5c-5.3-10-9.4-19.4-12.5-28.3v0c-13.3-39.1-6.5-68.8,1.8-92
			c1.4-3.9,2.8-7.6,4.2-11.2c2.4-6.1,4.7-11.7,6.4-16.9c10.5-0.8,20.2,2.4,27,5.6c-3.9,2-7.7,4.2-11.2,6.6
			C166,870.7,161.1,905,173.8,937z"/>
		<line class="st0" x1="183.5" y1="818.8" x2="183.5" y2="818.8"/>
		<path class="st0" d="M89.5,852.1c22-16.2,44.6-22.7,44.6-22.7l15.9,0.7"/>
		<path class="st0" d="M145.9,841.2c-11.3,3.8-30.2,13.9-57.8,40"/>
		<path class="st0" d="M116.9,967c4.4-15.9,16.9-27,27.2-33.7"/>
		<path class="st0" d="M156.6,961.6c-12.6,5.4-26.2,13.8-37.8,21.9"/>
		<path class="st0" d="M152.9,1165c-6.1-29.1,1.1-138.9,9.6-193"/>
		<path class="st0" d="M173.8,937c19.4-23.1,72.3-45,95.5-53.8"/>
	</g>
	<g>
		<path class="st0" d="M448.3,768.1c12.8-0.8,28.3-2.3,43.7-4.9c3.9-0.7,9.8-1.8,12.6-6.3c1.9-3,1.9-6.5,1.2-10.7
			c-0.5-2.9-1.4-6.1-2.4-9.5c-1.3-4.5-2.8-8.4-4.2-11.5"/>
		<path class="st0" d="M505.7,746.1l7.3,0.7c0,0,12.8,10.3,11.9,12.1c-0.9,1.8-4.1,15.7-6.8,16.9c-0.2,0.1-1.7,0-1.3,0.6
			c4.1,6.9-93.4,28.6-108,27.1c-40.2-0.5-100.3-24.9-109.7-29.2c-0.7-0.3-1.1-0.5-1.3-0.6c-2.7-1.3-5.9-15.1-6.8-16.9
			s11.9-12.1,11.9-12.1l7.3-0.7"/>
		<path class="st0" d="M516.7,776.4l3.9,13.5l3.7,12.8c0,0,0,0.1-0.1,0.3c-1.1,2.8-9.8,24-12.1,26.3c-2.5,2.5-27,22.3-33.1,24.8"/>
		<path class="st0" d="M524.2,802.9l4.6,1.1c0,0,22.5,0.2,0,57.2c-17.5,44.4-86.1,63.5-115.7,69.8h0h0
			c-18.1-3.1-106-20.7-126.2-71.8c-22.5-57.1,0-57.2,0-57.2l4.6-1.1"/>
		<path class="st0" d="M520.6,789.8l16-6c0,0,16.8,15.6,23.9,33c1.9,4.7,3.1,10.3,3.1,17.2c0,32.4-2,31.7-3.1,33.1
			c-0.3,0.4-3.9,7.4-13.9,19c-23,26.9-69.1,70.6-128.1,72.6l-21.2-2c-58.9-2-105.1-45.8-128.1-72.6c-10-11.7-15.6-20.2-15.9-20.6
			c-1.1-1.4-1.1-11.2-1.1-43.6c0-6.8,1.2-12.5,3.1-17.2c7.1-17.4,23.9-21,23.9-21l16,5.9"/>
		<path class="st0" d="M642,952c-0.3,0.9-0.7,1.7-1.1,2.6"/>
		<path class="st0" d="M560.5,816.9c17.2,1.1,47.6,4.8,71.8,17h0"/>
		<path class="st0" d="M671.7,948.3L671.7,948.3c-2.1,6.1-4.6,12.4-7.7,19c-1.4,3-3,6.2-4.7,9.3c-0.5,0.8-0.9,1.7-1.4,2.5
			c-1.6,2.8-3.1,5.4-4.6,7.9c-0.8-5-1.6-9.6-2.4-13.5v0c-0.8-4.1-1.6-7.5-2.4-10.2c-1.1-3.7-3.4-7.5-6.5-11.2
			c12.7-32,7.8-66.3,1.5-111.5c-3.5-2.5-7.3-4.7-11.2-6.6c6.8-3.2,16.5-6.4,27-5.6c1.7,5.2,4,10.8,6.4,16.9
			c1.4,3.5,2.8,7.3,4.2,11.1C678.2,879.5,685,909.2,671.7,948.3z"/>
		<line class="st0" x1="632.3" y1="833.9" x2="632.3" y2="833.9"/>
		<path class="st0" d="M665.7,845.1l15.9-0.7c0,0,22.7,6.5,44.6,22.7"/>
		<path class="st0" d="M727.7,896.3c-27.6-26.2-46.5-36.2-57.8-40"/>
		<path class="st0" d="M671.7,948.3c10.3,6.7,22.8,17.8,27.2,33.7"/>
		<path class="st0" d="M682.7,989c21.8,13.4,41,29.8,41.4,32.6"/>
		<path class="st0" d="M653.3,987c8.5,54.1,15.7,163.9,9.6,193"/>
		<path class="st0" d="M546.6,886.2c23.1,8.8,76.1,42.7,95.5,65.8"/>
	</g>
	<path class="st0" d="M500.4,1048.8c-16.1-23.7-12.9-54.4,5.3-71.5c23.9-22.5,66.5-14.7,82.1,12c14.3,24.4,4.9,62.5-19.7,71.5
		c-16.5,6.1-41.1-0.5-49.4-19.2c-9.8-22,8.3-49,25.9-52.8c3.5-0.7,6.7-0.6,9.6,0c8.2-15.7,16.3-31.4,24.5-47"/>
</g>
<g id="SHADOW">
	<path class="st0" d="M274.9,883.1"/>
	<path class="st0" d="M274.4,885.9c-18.3,12.2-52.9,35.9-58.1,44.3c-7.2,11.5-20.5,18-8.6,66.2c11.9,48.2,25.2,65.5,25.2,65.5
		s2.9,11.5,23.8,2.2s103.3-42.1,103.3-42.1l18-6.5c0,0,13.7-5.4,19.8-1.1c8.3,3.2,38.5,13.7,38.5,13.7l54.4,18c0,0,3.8,0,9.8-2
		c4.8-1.6,11-4.6,17.8-9.9c3.7-2.8,7.5-6.4,11.3-10.8c11-12.6,26.3-36.8,37.1-56.8c5.3-9.8,9.5-18.6,11.5-24.5c0,0,0,0,0,0
		c1.3-3.6,1.7-6.2,1.1-7.2c-3.6-6.1-20.5-17.6-41.4-24.5c-5.3-1.7-9.3-3-12.2-4"/>
	<path class="st0" d="M315.6,927L315.6,927c-22.1,4.1-68.6,16.2-63.4,47c6.7,39.6,14.4,56.4,14.4,56.4s84.2-71.3,203-19.4
		c19.4-45.4,23.8-51.1,20.9-55.4c-1.4-2-10.7-5.8-20.2-9.3"/>
	<path class="st0" d="M100.1,1089.6c32.2-71.1,52.5-103.8,62.4-117.7v0c0,0,0,0,0,0"/>
	<path class="st0" d="M102.5,1023.4c0-9.9,7.2-25,16.3-39.9c9.7-16.1,21.5-32,28.7-41.2"/>
	<path class="st0" d="M114,958.1c0.3-14.1,14.7-36,23.9-48.5c0.1-0.1,0.2-0.3,0.3-0.4"/>
	<path class="st0" d="M138.3,910.1c-0.1-0.2-0.3-0.3-0.4-0.5c-7.7-9.1-12.6-22.4-13.8-36c-4.8,0-24.5,14.9-24.5,14.9"/>
	<path class="st0" d="M224.6,805.7l0.3,15.4c0,0,15.4,27.3,28,41.1l0,0"/>
	<path class="st1" d="M377,786.2c-2.1-1.6-5.1-3.8-8.9-6.2c-11.5-7.4-20.9-10.7-24.7-12c-7.2-2.4-11-3.6-16.3-2.9
		c-5.1,0.7-8.9,2.8-11.3,4.3c-4.5,13.1-7.7,28.6-7.4,45.8c0,2,0.1,4,0.2,6c9.2,10,18.4,20,27.6,30c-9-3.4-16.4-3.6-20.9-3.4
		c-4.9,0.3-9,0.5-12.5,3.6c-4.1,3.6-4.9,8.8-5,10.8c1.9,4.4,5.3,10.8,11.3,17c7.7,8.1,16,12.2,20.9,14.2
		c5.8-6.8,13.3-16.4,21.1-28.8c7.9-12.5,15.5-24.6,20.6-42C374.2,814.4,377,802,377,786.2z"/>
	<path class="st0" d="M727.1,895c4,4.1,4.6,5.4,4.3,5.8c-0.6,0.8-4.8-2.1-11.9-4.3c-6.5-2.1-10.6-3.4-13-1.4
		c-4.2,3.5,0,15.6,0.7,17.6c1.9,5.5,3.3,5.5,3.2,8.3c0,6.6-7.4,7.7-9.7,15.8c-1.4,4.8,0,9.2,1.4,14c2.3,7.4,5.6,10.7,7.6,14.4
		c3,5.6,4.6,15.1-2.9,32c6.5-1.5,14.8-4.4,23-10.1c25.3-17.3,30.3-46.4,31.3-53.3"/>
	<path class="st0" d="M682.7,989c1.1-0.6,2.2-1.1,3.4-1.6c6.5-2.7,12.3-2.8,15.6-2.6c-0.8-0.8-1.8-1.7-2.9-2.7
		c-3.4-3-8.2-6.5-14.4-9.3c-8.1-3.7-15.4-4.9-20.2-5.3l-0.3-0.2c-1.4,3-3,6.1-4.7,9.3"/>
	<path class="st0" d="M682.7,989c-6.8,3.7-10.7,8.7-12.4,11.1c9.1,14.2,18.2,29.4,27.1,45.6c17.7,32,32,62.8,43.7,91.4"/>
	<path class="st0" d="M343.3,906.8c7.5-6.9,15.3-13.9,23.4-20.9c3.2-2.8,6.5-5.6,9.7-8.3c-2.8-7-5.5-13.9-8.3-20.9
		c6.4-11.4,12.7-22.8,19.1-34.2c-4.9-17.9-9.8-35.8-14.8-53.6"/>
	<path class="st0" d="M483,904c-11.7-0.3-25.8-1-40.7-2.5c-4-0.4-9.4-1-14-5c-5.6-4.9-6.9-12.2-7.2-15.8c9.4-4.1,18.7-8.2,28.1-12.2
		c-14.8-1.2-22.3-2.7-22.3-4.3c0-1.5,6.2-3.2,18.7-5c-8.4-3.7-16.8-7.4-25.2-11.2c-0.2-10.6-0.5-21.1-0.7-31.7
		c10.1-16,20.2-31.9,30.2-47.9"/>
	<path class="st0" d="M353.6,860.7c4.6,3.7,11.7,8.6,21,12.4c6.8,2.8,14.7,5.1,23.8,6c21.1,2,38.3-4.5,49.7-10.9"/>
	<path class="st1" d="M342.5,660.4c4.5,6.7,11.7,11.9,14.9,14c5.2,3.4,10.4,6.9,17.3,6c1.4-0.2,8-1.2,12.2-7
		c1.8-2.4,2.5-4.9,2.9-6.5"/>
	<path class="st1" d="M403.7,655c0,0.9,0.3,5.1,3.6,8.2c4.5,4.1,10.6,2.5,11,2.4c1.6-0.4,3.5-2.1,7.4-5.3c3.2-2.6,3.8-3.5,3.6-4.3
		c-0.1-0.5-0.5-1.3-4.3-2.4c-2.1-0.6-5.2-1.3-9.1-1.4"/>
	<path class="st0" d="M401.4,752.5c3.1-1,6.2-2,9.4-3c3.8,0.1,7.6,0.2,11.4,0.2"/>
	<path class="st1" d="M425,751.7c1.4,0.9,2.6,2.7,4.6,2.5c0.8-0.1,2-0.5,2.3-1.3c0.9-2.6-7.8-9.8-17.2-12.1
		c-4.4-1.1-8.8-0.4-17.5,0.7c-8.7,1.1-9.6,2.4-9.8,3.1c-0.8,2.7,5,6.7,8,8.4c1.8,1,4.8,2.6,8.9,2.9
		C414.2,756.5,420.4,748.7,425,751.7z"/>
	<path class="st1" d="M286.1,504.7c-4.3,13.3-8.6,26.6-13,39.8c0.1,2.7,0.7,7.9,3.8,13.4c2.5,4.4,5.6,7.3,7.7,8.9"/>
	<path class="st1" d="M530.9,493.4c2.7,11.3,5.4,22.6,8.2,33.8c-1.8,7.9-3.7,15.8-5.5,23.8"/>
	<path class="st1" d="M267.4,491.8c1.3-0.7,43-11,43-11s9.5-4.2,26,12.8c16.6,17,57.5,42.1,62,64.6s0.7,58.9,0.7,58.9L380,603.9
		l23.9,25.1c0,0,9.8,4.3,13.4,1.7c3.6-2.6,9.1-43.9,9.1-43.9s0-50.2,26.9-76.6c26.9-26.4,30.5-38.6,46.6-38.6
		c16.1,0,45.8-0.7,56.4,16.6"/>
	<path class="st1" d="M233.9,614.9c-0.2-2.7,1.8-12.1,3.8-13c2-0.9,12.4,10.1,12.4,10.1"/>
	<path class="st1" d="M262.5,628.2c0.2,1.3,8.1,5.4,8.8,5.6c0.7,0.2,10.3,13.1,10.3,13.1l-7.6,5.9c0,0-8-9.9-9.2-11.2
		s-12.6-10.6-12.6-10.6l-2-15.5l2.9-6.3l4-1.6c0,0,7.4,10.4,7.9,11.2C265.6,619.6,262.5,628.2,262.5,628.2z"/>
	<path class="st1" d="M187.9,622.9c0,0,37.8,11,40.2,10.3c2.4-0.8-2-9.4-2-9.4s-0.2-1.6-4.1-1.6C218,622.2,187.9,622.9,187.9,622.9z
		"/>
	<path class="st1" d="M193.9,813.6c0,0-3.6,46.8,2.9,60.1c6.5,13.3,23,32.4,23,32.4"/>
	<path class="st1" d="M506.6,788.6c0,0-23-7.7-25-7.7c-1.9,0-25.9,0-31.2,9.6s-20.6,80.6,22.1,110.4c28.8-22.1,28.3-25.9,28.3-25.9
		l-16.3-19.7C484.6,855.4,507.6,861.1,506.6,788.6z"/>
	<polyline class="st1" points="339.4,455.4 346.2,366.5 367.1,395.6 362,289.8 394.8,482.4 388,367.2 435.8,505.8 437.3,510.5 	"/>
	<path class="st1" d="M364.2,486.4c3.6-13.7,6.1-59.8,6.1-59.8s25.2,77.8,23,108"/>
	<path class="st1" d="M397.3,542.2c-0.4-3.2,7.6-57.2,7.6-57.2l21.2,48.2"/>
	<path class="st1" d="M263.5,507.1c0,0-73.9-115.7-73.9-151c31.4,45.4,89.5,114.2,89.5,114.2"/>
	<path class="st1" d="M279.6,313.9c-0.5-1.9-16.6-43.6-9.4-70.9c22.7,43.2,22.7,43.2,22.7,43.2"/>
	<path class="st1" d="M413.5,358.2c3.2-4.3,59.4-107.3,59.4-107.3s-16.2,69.1-8.6,76.3"/>
	<path class="st1" d="M403.4,298.1c0,0,63.8-97,65.8-107c1.9-10.1,6.2,53.3,7.7,53.3s44.6-115.4,44.6-132.7
		c35.3,33.1,72,82.8,63.4,143.3"/>
	<path class="st1" d="M600.7,146.4c0,0,19.2,115.7-1.9,179c34.6-43.2,45.1-64.3,45.1-64.3s-40.8,172.8-89.8,246.7"/>
	<path class="st1" d="M598.9,603.4c4-3.2,59.4-40.7,62.6-52.9c-43.9,17.3-45.7,16.6-45.7,16.6l73.1-43.2"/>
	<path class="st1" d="M598.8,571.7c1.9-3.4,126.2-97,116.6-176.6c-46.1,24-54.2,29.3-54.2,29.3s-37.4,73.9-46.6,82.1
		s-60,55.7-60,55.7"/>
	<path class="st1" d="M317.5,444c-1-3.4-28.3-156,41.8-214.1c3.4,31.2,2.4,38.9,2.9,33.6s10.1-37,15.8-39.4
		c9.2,40.3,51.4,188.2,44.6,181.9"/>
	<line class="st1" x1="730.5" y1="899.6" x2="761.3" y2="936.4"/>
</g>
<g id="face">
	<g>
		<path class="st0" d="M410,653.6c0,0.7-0.1,1.3-0.1,2c-0.8,0.1-3.1,0.3-5.3-1.1c-0.9-0.6-1.6-1.3-2-1.9c0.1-4.8,0.2-9.6,0.4-14.4"
			/>
		<path class="st2" d="M391.9,644l-7.2,10.6c0,0-57.8-13.3-65.4-12.3c-2.1-6.2-11.6-19.1-16.1-34.3C298.7,592.8,391.9,644,391.9,644
			z"/>
		<path class="st3" d="M396.9,644.2C396.9,644.2,396.9,644.2,396.9,644.2c-0.9,1.6-1.7,3.2-2.5,4.7c-13.5-8.5-29.5-17.3-48.1-25.4
			c-12-5.2-23.5-9.4-34.2-12.8c-4.6-0.3-9.4-0.5-14.4-0.5c-4.2-0.1-8.3-0.1-12.2,0c-0.1-3-0.2-6-0.4-9c1.5-3.1,3.2-6.5,5.2-9.9
			c1.6-2.6,3.1-5.1,4.7-7.4c16.3,7.5,33.9,16.5,52.2,27.4C365.8,622.2,382.4,633.4,396.9,644.2c1.4-2.6,2.7-5.1,4.1-7.7"/>
		<path class="st0" d="M289.9,583.9c0,0-7.7,14-7.8,14.6s-0.4,8.8-0.4,8.8"/>
		<path class="st0" d="M285.2,584.6c0,0-6.7,14.5-6.8,18.2"/>
		<path class="st3" d="M356.2,616.7c-3.1,0.8-5.7,2.6-7.6,5c-0.5,0.7-1,1.4-1.4,2.2c-0.9,1.8-1.4,3.9-1.4,6.1
			c0,7.5,6.1,13.7,13.7,13.7c5.5,0,10.2-3.2,12.4-7.8c0.3-0.6,0.6-1.3,0.8-2c0.4-1.2,0.5-2.5,0.5-3.8c0-0.9-0.1-1.8-0.2-2.6"/>
		<path class="st0" d="M311,659c11.1-1.3,25.2-2,41.5-0.2c15.3,1.6,28.2,4.9,38.4,8.2"/>
		<path class="st0" d="M308.4,664.1c6.7-1.8,15.5-3.6,25.9-3.8c11.8-0.3,21.8,1.3,29,3.1"/>
		<path class="st0" d="M351.6,581.3c8.4,5.8,18,13.4,27.8,23c8.4,8.3,15.3,16.5,20.8,23.9"/>
	</g>
	<path class="st0" d="M416.1,637.9c0.4,4.8,0.8,9.6,1.2,14.4c-0.4,0.6-1,1.3-1.9,2c-2.1,1.5-4.4,1.5-5.2,1.4
		c-0.3-0.8-0.4-8.6-0.3-9.1"/>
	<path class="st2" d="M427.6,642.9l7.8,10.2c0,0,56.9-16.8,64.6-16.3c1.7-6.3,10.4-19.7,14-35.2
		C517.6,586.2,427.6,642.9,427.6,642.9z"/>
	<path class="st3" d="M418,635.9c1.5,2.5,3,5,4.5,7.4c13.9-11.6,29.7-23.8,47.6-35.8c17.7-11.9,34.7-22,50.5-30.5
		c1.7,2.2,3.4,4.5,5.1,7.1c2.2,3.3,4.2,6.5,5.8,9.6c0.1,3,0.1,6,0.2,9c-4,0.2-8,0.4-12.2,0.7c-4.9,0.4-9.7,0.9-14.3,1.4
		c-10.5,4-21.7,8.9-33.4,14.8c-18,9.1-33.5,18.9-46.4,28.2c-0.9-1.5-1.8-3-2.7-4.5c0,0,0,0,0-0.1"/>
	<path class="st0" d="M525.8,576.8c0,0,8.5,13.5,8.7,14.1c0.2,0.7,0.9,8.7,0.9,8.7"/>
	<path class="st0" d="M530.5,577.2c0,0,7.6,14.1,7.9,17.8"/>
	<path class="st3" d="M445.6,625.1c-0.1,0.9-0.1,1.7-0.1,2.6c0.1,1.3,0.3,2.6,0.8,3.8c0.2,0.7,0.5,1.3,0.9,2
		c2.5,4.5,7.4,7.4,12.8,7.1c7.5-0.5,13.3-6.9,12.8-14.5c-0.1-2.2-0.8-4.2-1.8-6c-0.4-0.8-1-1.5-1.5-2.1c-2-2.3-4.8-3.9-7.9-4.5"/>
	<path class="st0" d="M509.5,655.9c-11.1-1.5-25.2-2.3-41.5-0.8c-15.3,1.4-28.3,4.5-38.5,7.6"/>
	<path class="st0" d="M512.1,661c-6.6-1.9-15.4-3.8-25.9-4.2c-11.8-0.5-21.8,1-29.1,2.7"/>
	<path class="st0" d="M464,577.9c-8.1,6.3-17.2,14.4-26.4,24.7c-7.9,8.8-14.3,17.4-19.3,25.1"/>
</g>
</svg>
