<?xml version="1.0" encoding="utf-8"?>
<!-- Generator: Adobe Illustrator 25.2.0, SVG Export Plug-In . SVG Version: 6.00 Build 0)  -->
<svg version="1.1" id="Layer_1" xmlns="http://www.w3.org/2000/svg" xmlns:xlink="http://www.w3.org/1999/xlink" x="0px" y="0px"
	 viewBox="0 0 792 612" style="enable-background:new 0 0 792 612;" xml:space="preserve">
<style type="text/css">
	.st0{fill:#27C1E1;}
	.st1{fill:url(#SVGID_1_);}
	.st2{fill:url(#SVGID_2_);}
	.st3{fill:url(#SVGID_3_);}
	.st4{fill:#00AEEF;}
	.st5{fill:none;}
	.st6{fill:#231F20;}
</style>
<path class="st0" d="M681.1,208.5c30.1,96.1,17.3,190.7-29.4,235.2c-10.1,9.6-28.9,23.7-59.5,27.6c-15.3-48.5-11.1-80.1-4.6-99.9
	c9.7-29.6,26.9-39.3,51.1-75.2C660.6,263.8,673.4,231.9,681.1,208.5z"/>
<linearGradient id="SVGID_1_" gradientUnits="userSpaceOnUse" x1="543.6144" y1="291.6423" x2="600.3251" y2="291.6423">
	<stop  offset="0" style="stop-color:#2484C6"/>
	<stop  offset="0.9086" style="stop-color:#2484C6;stop-opacity:0"/>
</linearGradient>
<path class="st1" d="M573.9,256.3c15.1,1.2,26.1,17.4,26.4,34.4c0.3,19-12.7,36.8-29.1,36.3c-16.8-0.5-29.3-20-27.5-39.5
	C545.5,270.2,558.4,255,573.9,256.3z"/>
<linearGradient id="SVGID_2_" gradientUnits="userSpaceOnUse" x1="583.8682" y1="228.2901" x2="619.895" y2="228.2901">
	<stop  offset="0" style="stop-color:#2484C6"/>
	<stop  offset="0.9086" style="stop-color:#2484C6;stop-opacity:0"/>
</linearGradient>
<path class="st2" d="M583.9,226.3c-0.9,11.1,5.7,21.7,14.8,23.6c10.4,2.2,20.5-7.8,21.1-20.4c0.6-10.9-6.1-21.3-15.3-22.9
	C594.4,204.8,584.9,214.2,583.9,226.3z"/>
<linearGradient id="SVGID_3_" gradientUnits="userSpaceOnUse" x1="549.2416" y1="204.7733" x2="571.6261" y2="204.7733">
	<stop  offset="0" style="stop-color:#2484C6"/>
	<stop  offset="0.9086" style="stop-color:#2484C6;stop-opacity:0"/>
</linearGradient>
<path class="st3" d="M561.2,217.8c5.3-0.4,10.2-5.7,10.4-12.5c0.2-7.2-4.8-13.1-10.4-13.6c-6.4-0.5-12.3,6-12,13.8
	C549.6,212.8,555.3,218.3,561.2,217.8z"/>
<path class="st0" d="M574.4,452.3c-2.1-11.5-4-26.2-4-43.3c0-14.9,1.4-27.8,3.2-38.2c-8.1-5-26.4-18-39.9-44.6
	c-12.9-25.5-14.6-49.9-14.8-60.9c-2.7,5.5-27.7,59.2-6.3,117.9C530.5,432.1,567.7,449.4,574.4,452.3z"/>
<path class="st4" d="M225.3,344.7c3.4,3.9,61,67,137.3,42.5c70.6-22.7,96.2-100.7,98.6-108.4c-31.3-1.9-75-0.6-125.4,14
	C288.9,306.4,251.7,327.1,225.3,344.7z"/>
<path class="st4" d="M185.1,359.1c2.8-9.1,7.6-21,16.6-31.4c13-15.2,28.5-20.4,27.8-22.5c-0.6-1.8-11,1.2-16.9,3.4
	c-3.9,1.4-7.1,3-9.5,4.2c-7.2-11.7-11.8-23.3-14.8-34c-6.8-24.3-2.6-35.1-11.5-54c-3-6.3-8.8-18.8-20.5-25.5
	c-11.8-6.8-18.5-1.4-29.9-7.4c-6.5-3.4-14.7-10.7-21.6-27.7c9.3,0.5,16.7-0.4,21.8-1.3c6.2-1.1,9.3-2.3,13.7-1.3
	c6.8,1.6,11.7,7.3,14.8,11.9c-0.8-5.2-1.3-12.4,2.1-17.8c3.7-6,8.8-4.5,17.3-10.2c11.1-7.5,12.6-16.9,16.2-15.7
	c5.1,1.6,7.5,22.2,2.1,39.1c-4.9,15.3-14.9,23.6-19.4,26.8c5.8,7.8,11.6,12,15.3,14.2c8.9,5.4,18.6,7,23.4,7.9l0,0
	c40.5,3.5,82.2,6.4,125,8.5c43.9,2.2,86.6,3.4,128.2,3.8c0.4,5.7,0.5,13-0.4,21.2c-0.8,7.9-2.4,14.7-3.9,20
	c-33.5-3.1-83.8-3-142.3,15.3C258.6,305.4,213.4,336.2,185.1,359.1z"/>
<path class="st5" d="M215.9,211.9"/>
<path class="st6" d="M370.2,250.4c2.9,0.8,4.7,4.8,4.3,8.4c-0.4,3.4-2.8,6.7-5.9,6.6c-3.3-0.1-5.8-3.9-5.7-7.6
	C363,253.3,366.8,249.4,370.2,250.4z"/>
<path class="st4" d="M361.9,153.2c0.7,7.7,1,21-4,35.3c-3.8,10.7-12.5,27.7-18.5,25.9c-6.1-1.8-9.9-23.2-3.5-39.1
	C342.9,157.7,359.6,153.8,361.9,153.2z"/>
<path class="st4" d="M338.8,153.9c-2.8,3.6-8,11.5-10.4,23.4c-3.1,15.4,0.6,28,2.1,32.5c-17.3-10.5-27.3-31.5-25.2-52.1
	c2.1-20.3,15.1-31.8,17.6-34c2.7,3.3,5.9,7.7,9,13.4C335.3,143.3,337.5,149.2,338.8,153.9z"/>
<path class="st4" d="M334.1,127.5c1.2-2,3.5-5.2,7-7.9c3.5-2.6,6.8-3.6,8.8-4c1.5,2.6,3.7,6.8,4.9,12.5c1.5,7.1,1,13,0.5,16.4
	c-1.4,0.1-3.3,0.5-5.3,1.3c-2.6,1-4.6,2.5-6,3.6c-0.2-2.7-0.9-7.6-3.3-12.7C338.6,132.1,335.8,129.1,334.1,127.5z"/>
</svg>
