<?xml version="1.0" encoding="utf-8"?>
<!-- Generator: Adobe Illustrator 25.2.0, SVG Export Plug-In . SVG Version: 6.00 Build 0)  -->
<svg version="1.1" id="Layer_1" xmlns="http://www.w3.org/2000/svg" xmlns:xlink="http://www.w3.org/1999/xlink" x="0px" y="0px"
	 viewBox="0 0 792 612" style="enable-background:new 0 0 792 612;" xml:space="preserve">
<style type="text/css">
	.st0{fill:#231F20;}
	.st1{fill:none;stroke:#231F20;stroke-miterlimit:10;}
</style>
<g>
	<path class="st0" d="M437.7,237.6c3.7,1.1,7.2,3,10.4,5.2c0.8,0.6,1.6,1.1,2.4,1.7l2.3,1.8c1.5,1.2,3,2.5,4.4,3.8
		c2.9,2.6,5.6,5.5,8.1,8.4c1.3,1.5,2.6,3,3.8,4.5l1.8,2.3l1.7,2.4c2.3,3.2,4.5,6.5,6.5,9.9c0.5,0.9,1,1.7,1.5,2.6l1.4,2.6
		c1,1.7,1.9,3.5,2.7,5.3l1.3,2.7l1.2,2.8l1.2,2.8l1.1,2.9c0.7,1.9,1.5,3.8,2,5.8c0.6,2,1.2,4,1.7,6c0.5,2,1.1,4.1,1.4,6.2
		c0.4,2.1,0.9,4.2,1.1,6.3c0.6,4.3,0.9,8.7,1,13.1c0.1,4.5-0.1,9.1-0.7,13.7l-0.5,3.5c-0.2,1.2-0.4,2.3-0.7,3.5l-0.8,3.5
		c-0.3,1.2-0.6,2.3-1,3.5l-1.1,3.5c-0.4,1.2-0.8,2.3-1.3,3.5l-1.5,3.4c-0.5,1.1-1,2.3-1.6,3.4c-0.6,1.1-1.2,2.2-1.8,3.3
		c-0.6,1.1-1.2,2.2-1.9,3.3c-1.4,2.1-2.8,4.2-4.4,6.2c-1.6,2-3.2,3.9-4.9,5.9c-1.9,2-3.9,3.9-5.9,5.8c-0.5,0.5-1,0.9-1.6,1.3
		l-1.6,1.2c-0.5,0.4-1.1,0.8-1.6,1.2l-0.8,0.6l-0.7,0.5c-1.9,1.3-3.9,2.7-6,3.9c-2,1.3-4.2,2.4-6.4,3.6c-2.3,1.1-4.5,2.2-6.9,3.1
		c-4.7,1.9-9.7,3.6-15,4.6c-5.3,1.1-10.7,1.7-16.3,1.7c-5.5,0-11.2-0.6-16.6-1.8c-5.5-1.2-10.8-3-15.8-5.3c-5-2.3-9.8-5-14.2-8.2
		c-4.4-3.2-8.4-6.7-12.1-10.6c-3.6-3.9-7-8.1-9.8-12.6c-0.7-1.1-1.4-2.3-2-3.4c-0.7-1.2-1.3-2.3-1.9-3.5c-0.6-1.2-1.2-2.4-1.7-3.7
		c-0.5-1.2-1.1-2.5-1.5-3.8c-1-2.5-1.8-5.1-2.5-7.8c-0.7-2.7-1.3-5.4-1.7-8.2c-0.8-5.6-1-11.4-0.3-17.3c0.6-5.9,2.2-11.9,4.7-17.7
		c1.2-2.9,2.8-5.6,4.4-8.2c0.8-1.3,1.8-2.6,2.7-3.8c1-1.2,2-2.4,3-3.5c1.1-1.1,2.1-2.2,3.2-3.2c1.1-1,2.3-2,3.4-2.9
		c1.2-0.9,2.4-1.8,3.6-2.5c1.2-0.7,2.4-1.5,3.7-2.2c4.9-2.7,10-4.5,14.9-5.5c1.2-0.3,2.4-0.5,3.6-0.7c1.2-0.2,2.4-0.3,3.6-0.4
		c1.2-0.1,2.4-0.2,3.5-0.3c1.2,0,2.3,0,3.5,0l3.5-0.4c5.6,1,10.8,3,15.2,5.9c2.2,1.4,4.2,3,6,4.7c1.8,1.7,3.4,3.6,4.8,5.5
		c2.8,3.9,4.7,8.1,5.8,12.3c1.1,4.2,1.4,8.5,0.8,12.6l-0.9,0.3c-3-2.7-6-4.9-9-6.5c-3-1.6-6-2.8-8.8-3.4c-1.4-0.3-2.8-0.5-4.1-0.6
		c-0.7-0.1-1.3,0-1.9,0c-0.6,0-1.2,0.1-1.8,0.1c-2.4,0.4-4.4,1-6,2l3.4-0.4c-1.2,0.8-2.4,1.5-3.5,2.4c-0.6,0.4-1.1,0.8-1.6,1.2
		c-0.5,0.4-1,0.8-1.4,1.2l-1.3,1.2l-1.1,1.2c-0.3,0.4-0.6,0.8-1,1.2c-0.3,0.4-0.5,0.8-0.8,1.2c-0.2,0.4-0.4,0.8-0.6,1.1
		c-0.2,0.4-0.3,0.7-0.5,1.1c-0.1,0.4-0.2,0.7-0.3,1c-0.1,0.4-0.1,0.7-0.2,1c0,0.3-0.1,0.6-0.1,0.9c0,0.3,0,0.6,0,0.9
		c0,0.6,0,1.1,0.1,1.7c0.1,1.1,0.3,2.4,0.6,3.7c0.3,1.3,0.7,2.8,1.3,4.4c0.5,1.6,1.3,3.2,2.2,4.8c0.2,0.4,0.4,0.8,0.7,1.2
		c0.2,0.4,0.5,0.8,0.7,1.2c0.2,0.4,0.5,0.8,0.8,1.2c0.3,0.4,0.5,0.8,0.8,1.2c1.2,1.5,2.3,3.1,3.7,4.4c1.3,1.4,2.7,2.7,4.2,3.8
		c1.5,1.1,3,2,4.5,2.8c1.5,0.8,3.1,1.4,4.7,1.9c1.6,0.5,3.2,0.8,4.9,0.9c1.7,0.2,3.5,0.2,5.4,0c1.9-0.2,3.9-0.5,5.9-1.1
		c1-0.2,2.1-0.6,3.2-1c1.1-0.5,2.2-0.8,3.3-1.3c1.1-0.5,2.2-1.1,3.3-1.6c0.6-0.3,0.9-0.5,1.4-0.7l0.7-0.3c0.2-0.1,0.5-0.2,0.6-0.3
		c0.7-0.5,1.4-1,2.2-1.5c0.8-0.7,1.6-1.4,2.5-2.1c0.8-0.7,1.5-1.6,2.3-2.3c0.8-0.8,1.4-1.7,2.1-2.5c0.4-0.4,0.7-0.9,1-1.3l1-1.4
		c0.4-0.4,0.6-1,0.9-1.5l0.9-1.5c0.3-0.5,0.6-1.1,0.8-1.6l0.8-1.7c0.3-0.5,0.5-1.1,0.7-1.7l0.7-1.8c0.9-2.4,1.7-5,2.4-7.7
		c0.6-2.7,1.1-5.6,1.4-8.5c0.3-1.5,0.3-3,0.5-4.5c0.2-1.5,0.2-3,0.2-4.6c0.1-6.2-0.1-12.7-0.9-19.2c-0.1-0.8-0.2-1.6-0.3-2.5
		l-0.3-2.5l-0.4-2.5l-0.4-2.5l-0.5-2.5l-0.5-2.5l-0.5-2.5l-0.6-2.5c-1.6-6.6-3.5-13.3-6-19.8c-0.6-1.6-1.3-3.3-2-4.8l-1.1-2.4
		c-0.4-0.8-0.8-1.6-1.2-2.4c-1.6-3.1-3.3-6.3-5.7-9.1L437.7,237.6z"/>
</g>
<path class="st1" d="M382.4,214.8c-9.4,13.8-19.6,31.4-28.7,52.1c-11.9,27-18.4,51.7-22.1,71.5"/>
<path class="st1" d="M382.4,214.8c1.9,10.2,5.4,23,11.8,37c4.6,10,9.7,18.3,14.4,25"/>
<path class="st1" d="M438.2,237.6c-2.6,6.2-6.7,14.2-13.2,22.6c-5.7,7.3-11.5,12.7-16.3,16.6"/>
<path class="st1" d="M382.4,214.8c5.4,6.2,12.9,13.2,23.1,20.4c9.9,6.9,19.2,11.4,26.6,14.4"/>
</svg>
